%TF.GenerationSoftware,KiCad,Pcbnew,9.0.7-9.0.7~ubuntu24.04.1*%
%TF.CreationDate,2026-01-11T20:29:39+01:00*%
%TF.ProjectId,mfi,6d66692e-6b69-4636-9164-5f7063625858,rev?*%
%TF.SameCoordinates,Original*%
%TF.FileFunction,Drillmap*%
%TF.FilePolarity,Positive*%
%FSLAX45Y45*%
G04 Gerber Fmt 4.5, Leading zero omitted, Abs format (unit mm)*
G04 Created by KiCad (PCBNEW 9.0.7-9.0.7~ubuntu24.04.1) date 2026-01-11 20:29:39*
%MOMM*%
%LPD*%
G01*
G04 APERTURE LIST*
%ADD10C,0.010000*%
%ADD11C,0.200000*%
%ADD12C,0.100000*%
G04 APERTURE END LIST*
D10*
X13710000Y-11600000D02*
X15200000Y-11600000D01*
X13290000Y-11150000D02*
X13710000Y-11600000D01*
X10000000Y-13000000D02*
X15200000Y-13000000D01*
X10000000Y-11150000D02*
X13290000Y-11150000D01*
X15200000Y-11600000D02*
X15200000Y-13000000D01*
X10000000Y-11150000D02*
X10000000Y-13000000D01*
D11*
D12*
X12735000Y-11865000D02*
X12765000Y-11895000D01*
X12765000Y-11865000D02*
X12735000Y-11895000D01*
X12745000Y-11981050D02*
X12775000Y-12011050D01*
X12775000Y-11981050D02*
X12745000Y-12011050D01*
X11341000Y-11945000D02*
G75*
G02*
X11301000Y-11945000I-20000J0D01*
G01*
X11301000Y-11945000D02*
G75*
G02*
X11341000Y-11945000I20000J0D01*
G01*
X11666000Y-12190000D02*
G75*
G02*
X11626000Y-12190000I-20000J0D01*
G01*
X11626000Y-12190000D02*
G75*
G02*
X11666000Y-12190000I20000J0D01*
G01*
X12100000Y-12275000D02*
G75*
G02*
X12060000Y-12275000I-20000J0D01*
G01*
X12060000Y-12275000D02*
G75*
G02*
X12100000Y-12275000I20000J0D01*
G01*
X12101000Y-11890000D02*
G75*
G02*
X12061000Y-11890000I-20000J0D01*
G01*
X12061000Y-11890000D02*
G75*
G02*
X12101000Y-11890000I20000J0D01*
G01*
X12140000Y-12015000D02*
G75*
G02*
X12100000Y-12015000I-20000J0D01*
G01*
X12100000Y-12015000D02*
G75*
G02*
X12140000Y-12015000I20000J0D01*
G01*
X12400000Y-12275000D02*
G75*
G02*
X12360000Y-12275000I-20000J0D01*
G01*
X12360000Y-12275000D02*
G75*
G02*
X12400000Y-12275000I20000J0D01*
G01*
X12420000Y-11445000D02*
G75*
G02*
X12380000Y-11445000I-20000J0D01*
G01*
X12380000Y-11445000D02*
G75*
G02*
X12420000Y-11445000I20000J0D01*
G01*
X12630000Y-11330000D02*
G75*
G02*
X12590000Y-11330000I-20000J0D01*
G01*
X12590000Y-11330000D02*
G75*
G02*
X12630000Y-11330000I20000J0D01*
G01*
X12870000Y-11870000D02*
G75*
G02*
X12830000Y-11870000I-20000J0D01*
G01*
X12830000Y-11870000D02*
G75*
G02*
X12870000Y-11870000I20000J0D01*
G01*
X12870000Y-12070000D02*
G75*
G02*
X12830000Y-12070000I-20000J0D01*
G01*
X12830000Y-12070000D02*
G75*
G02*
X12870000Y-12070000I20000J0D01*
G01*
X12960000Y-12155000D02*
G75*
G02*
X12920000Y-12155000I-20000J0D01*
G01*
X12920000Y-12155000D02*
G75*
G02*
X12960000Y-12155000I20000J0D01*
G01*
X13430000Y-12275000D02*
G75*
G02*
X13390000Y-12275000I-20000J0D01*
G01*
X13390000Y-12275000D02*
G75*
G02*
X13430000Y-12275000I20000J0D01*
G01*
X11229000Y-11250000D02*
X11229000Y-11310000D01*
X11199000Y-11280000D02*
X11259000Y-11280000D01*
X11259000Y-11310000D02*
X11259000Y-11250000D01*
X11199000Y-11250000D02*
G75*
G02*
X11259000Y-11250000I30000J0D01*
G01*
X11199000Y-11250000D02*
X11199000Y-11310000D01*
X11199000Y-11310000D02*
G75*
G03*
X11259000Y-11310000I30000J0D01*
G01*
X11229000Y-11668000D02*
X11229000Y-11728000D01*
X11199000Y-11698000D02*
X11259000Y-11698000D01*
X11259000Y-11753000D02*
X11259000Y-11643000D01*
X11199000Y-11643000D02*
G75*
G02*
X11259000Y-11643000I30000J0D01*
G01*
X11199000Y-11643000D02*
X11199000Y-11753000D01*
X11199000Y-11753000D02*
G75*
G03*
X11259000Y-11753000I30000J0D01*
G01*
X12093000Y-11250000D02*
X12093000Y-11310000D01*
X12063000Y-11280000D02*
X12123000Y-11280000D01*
X12123000Y-11310000D02*
X12123000Y-11250000D01*
X12063000Y-11250000D02*
G75*
G02*
X12123000Y-11250000I30000J0D01*
G01*
X12063000Y-11250000D02*
X12063000Y-11310000D01*
X12063000Y-11310000D02*
G75*
G03*
X12123000Y-11310000I30000J0D01*
G01*
X12093000Y-11668000D02*
X12093000Y-11728000D01*
X12063000Y-11698000D02*
X12123000Y-11698000D01*
X12123000Y-11753000D02*
X12123000Y-11643000D01*
X12063000Y-11643000D02*
G75*
G02*
X12123000Y-11643000I30000J0D01*
G01*
X12063000Y-11643000D02*
X12063000Y-11753000D01*
X12063000Y-11753000D02*
G75*
G03*
X12123000Y-11753000I30000J0D01*
G01*
X10304749Y-11279749D02*
X10304749Y-11230251D01*
X10255251Y-11230251D01*
X10255251Y-11279749D01*
X10304749Y-11279749D01*
X10894749Y-11289749D02*
X10894749Y-11240251D01*
X10845251Y-11240251D01*
X10845251Y-11289749D01*
X10894749Y-11289749D01*
X10365813Y-11765000D02*
X10405813Y-11725000D01*
X10365813Y-11685000D01*
X10325813Y-11725000D01*
X10365813Y-11765000D01*
X10432906Y-11925000D02*
X10472906Y-11885000D01*
X10432906Y-11845000D01*
X10392906Y-11885000D01*
X10432906Y-11925000D01*
X10682906Y-11925000D02*
X10722906Y-11885000D01*
X10682906Y-11845000D01*
X10642906Y-11885000D01*
X10682906Y-11925000D01*
X10750000Y-12085000D02*
X10790000Y-12045000D01*
X10750000Y-12005000D01*
X10710000Y-12045000D01*
X10750000Y-12085000D01*
X10146000Y-12541000D02*
X10246000Y-12641000D01*
X10246000Y-12541000D02*
X10146000Y-12641000D01*
X10246000Y-12591000D02*
G75*
G02*
X10146000Y-12591000I-50000J0D01*
G01*
X10146000Y-12591000D02*
G75*
G02*
X10246000Y-12591000I50000J0D01*
G01*
X10146000Y-12795000D02*
X10246000Y-12895000D01*
X10246000Y-12795000D02*
X10146000Y-12895000D01*
X10246000Y-12845000D02*
G75*
G02*
X10146000Y-12845000I-50000J0D01*
G01*
X10146000Y-12845000D02*
G75*
G02*
X10246000Y-12845000I50000J0D01*
G01*
X10400000Y-12541000D02*
X10500000Y-12641000D01*
X10500000Y-12541000D02*
X10400000Y-12641000D01*
X10500000Y-12591000D02*
G75*
G02*
X10400000Y-12591000I-50000J0D01*
G01*
X10400000Y-12591000D02*
G75*
G02*
X10500000Y-12591000I50000J0D01*
G01*
X10400000Y-12795000D02*
X10500000Y-12895000D01*
X10500000Y-12795000D02*
X10400000Y-12895000D01*
X10500000Y-12845000D02*
G75*
G02*
X10400000Y-12845000I-50000J0D01*
G01*
X10400000Y-12845000D02*
G75*
G02*
X10500000Y-12845000I50000J0D01*
G01*
X10654000Y-12541000D02*
X10754000Y-12641000D01*
X10754000Y-12541000D02*
X10654000Y-12641000D01*
X10754000Y-12591000D02*
G75*
G02*
X10654000Y-12591000I-50000J0D01*
G01*
X10654000Y-12591000D02*
G75*
G02*
X10754000Y-12591000I50000J0D01*
G01*
X10654000Y-12795000D02*
X10754000Y-12895000D01*
X10754000Y-12795000D02*
X10654000Y-12895000D01*
X10754000Y-12845000D02*
G75*
G02*
X10654000Y-12845000I-50000J0D01*
G01*
X10654000Y-12845000D02*
G75*
G02*
X10754000Y-12845000I50000J0D01*
G01*
X10908000Y-12541000D02*
X11008000Y-12641000D01*
X11008000Y-12541000D02*
X10908000Y-12641000D01*
X11008000Y-12591000D02*
G75*
G02*
X10908000Y-12591000I-50000J0D01*
G01*
X10908000Y-12591000D02*
G75*
G02*
X11008000Y-12591000I50000J0D01*
G01*
X10908000Y-12795000D02*
X11008000Y-12895000D01*
X11008000Y-12795000D02*
X10908000Y-12895000D01*
X11008000Y-12845000D02*
G75*
G02*
X10908000Y-12845000I-50000J0D01*
G01*
X10908000Y-12845000D02*
G75*
G02*
X11008000Y-12845000I50000J0D01*
G01*
X11162000Y-12541000D02*
X11262000Y-12641000D01*
X11262000Y-12541000D02*
X11162000Y-12641000D01*
X11262000Y-12591000D02*
G75*
G02*
X11162000Y-12591000I-50000J0D01*
G01*
X11162000Y-12591000D02*
G75*
G02*
X11262000Y-12591000I50000J0D01*
G01*
X11162000Y-12795000D02*
X11262000Y-12895000D01*
X11262000Y-12795000D02*
X11162000Y-12895000D01*
X11262000Y-12845000D02*
G75*
G02*
X11162000Y-12845000I-50000J0D01*
G01*
X11162000Y-12845000D02*
G75*
G02*
X11262000Y-12845000I50000J0D01*
G01*
X11416000Y-12541000D02*
X11516000Y-12641000D01*
X11516000Y-12541000D02*
X11416000Y-12641000D01*
X11516000Y-12591000D02*
G75*
G02*
X11416000Y-12591000I-50000J0D01*
G01*
X11416000Y-12591000D02*
G75*
G02*
X11516000Y-12591000I50000J0D01*
G01*
X11416000Y-12795000D02*
X11516000Y-12895000D01*
X11516000Y-12795000D02*
X11416000Y-12895000D01*
X11516000Y-12845000D02*
G75*
G02*
X11416000Y-12845000I-50000J0D01*
G01*
X11416000Y-12845000D02*
G75*
G02*
X11516000Y-12845000I50000J0D01*
G01*
X11670000Y-12541000D02*
X11770000Y-12641000D01*
X11770000Y-12541000D02*
X11670000Y-12641000D01*
X11770000Y-12591000D02*
G75*
G02*
X11670000Y-12591000I-50000J0D01*
G01*
X11670000Y-12591000D02*
G75*
G02*
X11770000Y-12591000I50000J0D01*
G01*
X11670000Y-12795000D02*
X11770000Y-12895000D01*
X11770000Y-12795000D02*
X11670000Y-12895000D01*
X11770000Y-12845000D02*
G75*
G02*
X11670000Y-12845000I-50000J0D01*
G01*
X11670000Y-12845000D02*
G75*
G02*
X11770000Y-12845000I50000J0D01*
G01*
X11924000Y-12541000D02*
X12024000Y-12641000D01*
X12024000Y-12541000D02*
X11924000Y-12641000D01*
X12024000Y-12591000D02*
G75*
G02*
X11924000Y-12591000I-50000J0D01*
G01*
X11924000Y-12591000D02*
G75*
G02*
X12024000Y-12591000I50000J0D01*
G01*
X11924000Y-12795000D02*
X12024000Y-12895000D01*
X12024000Y-12795000D02*
X11924000Y-12895000D01*
X12024000Y-12845000D02*
G75*
G02*
X11924000Y-12845000I-50000J0D01*
G01*
X11924000Y-12845000D02*
G75*
G02*
X12024000Y-12845000I50000J0D01*
G01*
X12178000Y-12541000D02*
X12278000Y-12641000D01*
X12278000Y-12541000D02*
X12178000Y-12641000D01*
X12278000Y-12591000D02*
G75*
G02*
X12178000Y-12591000I-50000J0D01*
G01*
X12178000Y-12591000D02*
G75*
G02*
X12278000Y-12591000I50000J0D01*
G01*
X12178000Y-12795000D02*
X12278000Y-12895000D01*
X12278000Y-12795000D02*
X12178000Y-12895000D01*
X12278000Y-12845000D02*
G75*
G02*
X12178000Y-12845000I-50000J0D01*
G01*
X12178000Y-12845000D02*
G75*
G02*
X12278000Y-12845000I50000J0D01*
G01*
X12432000Y-12541000D02*
X12532000Y-12641000D01*
X12532000Y-12541000D02*
X12432000Y-12641000D01*
X12532000Y-12591000D02*
G75*
G02*
X12432000Y-12591000I-50000J0D01*
G01*
X12432000Y-12591000D02*
G75*
G02*
X12532000Y-12591000I50000J0D01*
G01*
X12432000Y-12795000D02*
X12532000Y-12895000D01*
X12532000Y-12795000D02*
X12432000Y-12895000D01*
X12532000Y-12845000D02*
G75*
G02*
X12432000Y-12845000I-50000J0D01*
G01*
X12432000Y-12845000D02*
G75*
G02*
X12532000Y-12845000I50000J0D01*
G01*
X12686000Y-12541000D02*
X12786000Y-12641000D01*
X12786000Y-12541000D02*
X12686000Y-12641000D01*
X12786000Y-12591000D02*
G75*
G02*
X12686000Y-12591000I-50000J0D01*
G01*
X12686000Y-12591000D02*
G75*
G02*
X12786000Y-12591000I50000J0D01*
G01*
X12686000Y-12795000D02*
X12786000Y-12895000D01*
X12786000Y-12795000D02*
X12686000Y-12895000D01*
X12786000Y-12845000D02*
G75*
G02*
X12686000Y-12845000I-50000J0D01*
G01*
X12686000Y-12845000D02*
G75*
G02*
X12786000Y-12845000I50000J0D01*
G01*
X12940000Y-12541000D02*
X13040000Y-12641000D01*
X13040000Y-12541000D02*
X12940000Y-12641000D01*
X13040000Y-12591000D02*
G75*
G02*
X12940000Y-12591000I-50000J0D01*
G01*
X12940000Y-12591000D02*
G75*
G02*
X13040000Y-12591000I50000J0D01*
G01*
X12940000Y-12795000D02*
X13040000Y-12895000D01*
X13040000Y-12795000D02*
X12940000Y-12895000D01*
X13040000Y-12845000D02*
G75*
G02*
X12940000Y-12845000I-50000J0D01*
G01*
X12940000Y-12845000D02*
G75*
G02*
X13040000Y-12845000I50000J0D01*
G01*
X13194000Y-12541000D02*
X13294000Y-12641000D01*
X13294000Y-12541000D02*
X13194000Y-12641000D01*
X13294000Y-12591000D02*
G75*
G02*
X13194000Y-12591000I-50000J0D01*
G01*
X13194000Y-12591000D02*
G75*
G02*
X13294000Y-12591000I50000J0D01*
G01*
X13194000Y-12795000D02*
X13294000Y-12895000D01*
X13294000Y-12795000D02*
X13194000Y-12895000D01*
X13294000Y-12845000D02*
G75*
G02*
X13194000Y-12845000I-50000J0D01*
G01*
X13194000Y-12845000D02*
G75*
G02*
X13294000Y-12845000I50000J0D01*
G01*
X13448000Y-12541000D02*
X13548000Y-12641000D01*
X13548000Y-12541000D02*
X13448000Y-12641000D01*
X13548000Y-12591000D02*
G75*
G02*
X13448000Y-12591000I-50000J0D01*
G01*
X13448000Y-12591000D02*
G75*
G02*
X13548000Y-12591000I50000J0D01*
G01*
X13448000Y-12795000D02*
X13548000Y-12895000D01*
X13548000Y-12795000D02*
X13448000Y-12895000D01*
X13548000Y-12845000D02*
G75*
G02*
X13448000Y-12845000I-50000J0D01*
G01*
X13448000Y-12845000D02*
G75*
G02*
X13548000Y-12845000I50000J0D01*
G01*
X13702000Y-12541000D02*
X13802000Y-12641000D01*
X13802000Y-12541000D02*
X13702000Y-12641000D01*
X13802000Y-12591000D02*
G75*
G02*
X13702000Y-12591000I-50000J0D01*
G01*
X13702000Y-12591000D02*
G75*
G02*
X13802000Y-12591000I50000J0D01*
G01*
X13702000Y-12795000D02*
X13802000Y-12895000D01*
X13802000Y-12795000D02*
X13702000Y-12895000D01*
X13802000Y-12845000D02*
G75*
G02*
X13702000Y-12845000I-50000J0D01*
G01*
X13702000Y-12845000D02*
G75*
G02*
X13802000Y-12845000I50000J0D01*
G01*
X13956000Y-12541000D02*
X14056000Y-12641000D01*
X14056000Y-12541000D02*
X13956000Y-12641000D01*
X14056000Y-12591000D02*
G75*
G02*
X13956000Y-12591000I-50000J0D01*
G01*
X13956000Y-12591000D02*
G75*
G02*
X14056000Y-12591000I50000J0D01*
G01*
X13956000Y-12795000D02*
X14056000Y-12895000D01*
X14056000Y-12795000D02*
X13956000Y-12895000D01*
X14056000Y-12845000D02*
G75*
G02*
X13956000Y-12845000I-50000J0D01*
G01*
X13956000Y-12845000D02*
G75*
G02*
X14056000Y-12845000I50000J0D01*
G01*
X14210000Y-12541000D02*
X14310000Y-12641000D01*
X14310000Y-12541000D02*
X14210000Y-12641000D01*
X14310000Y-12591000D02*
G75*
G02*
X14210000Y-12591000I-50000J0D01*
G01*
X14210000Y-12591000D02*
G75*
G02*
X14310000Y-12591000I50000J0D01*
G01*
X14210000Y-12795000D02*
X14310000Y-12895000D01*
X14310000Y-12795000D02*
X14210000Y-12895000D01*
X14310000Y-12845000D02*
G75*
G02*
X14210000Y-12845000I-50000J0D01*
G01*
X14210000Y-12845000D02*
G75*
G02*
X14310000Y-12845000I50000J0D01*
G01*
X14464000Y-12541000D02*
X14564000Y-12641000D01*
X14564000Y-12541000D02*
X14464000Y-12641000D01*
X14564000Y-12591000D02*
G75*
G02*
X14464000Y-12591000I-50000J0D01*
G01*
X14464000Y-12591000D02*
G75*
G02*
X14564000Y-12591000I50000J0D01*
G01*
X14464000Y-12795000D02*
X14564000Y-12895000D01*
X14564000Y-12795000D02*
X14464000Y-12895000D01*
X14564000Y-12845000D02*
G75*
G02*
X14464000Y-12845000I-50000J0D01*
G01*
X14464000Y-12845000D02*
G75*
G02*
X14564000Y-12845000I50000J0D01*
G01*
X14718000Y-12541000D02*
X14818000Y-12641000D01*
X14818000Y-12541000D02*
X14718000Y-12641000D01*
X14818000Y-12591000D02*
G75*
G02*
X14718000Y-12591000I-50000J0D01*
G01*
X14718000Y-12591000D02*
G75*
G02*
X14818000Y-12591000I50000J0D01*
G01*
X14718000Y-12795000D02*
X14818000Y-12895000D01*
X14818000Y-12795000D02*
X14718000Y-12895000D01*
X14818000Y-12845000D02*
G75*
G02*
X14718000Y-12845000I-50000J0D01*
G01*
X14718000Y-12845000D02*
G75*
G02*
X14818000Y-12845000I50000J0D01*
G01*
X14972000Y-12541000D02*
X15072000Y-12641000D01*
X15072000Y-12541000D02*
X14972000Y-12641000D01*
X15072000Y-12591000D02*
G75*
G02*
X14972000Y-12591000I-50000J0D01*
G01*
X14972000Y-12591000D02*
G75*
G02*
X15072000Y-12591000I50000J0D01*
G01*
X14972000Y-12795000D02*
X15072000Y-12895000D01*
X15072000Y-12795000D02*
X14972000Y-12895000D01*
X15072000Y-12845000D02*
G75*
G02*
X14972000Y-12845000I-50000J0D01*
G01*
X14972000Y-12845000D02*
G75*
G02*
X15072000Y-12845000I50000J0D01*
G01*
D11*
X10260277Y-13311984D02*
X10260277Y-13111984D01*
X10260277Y-13111984D02*
X10307896Y-13111984D01*
X10307896Y-13111984D02*
X10336467Y-13121508D01*
X10336467Y-13121508D02*
X10355515Y-13140555D01*
X10355515Y-13140555D02*
X10365039Y-13159603D01*
X10365039Y-13159603D02*
X10374563Y-13197698D01*
X10374563Y-13197698D02*
X10374563Y-13226269D01*
X10374563Y-13226269D02*
X10365039Y-13264365D01*
X10365039Y-13264365D02*
X10355515Y-13283412D01*
X10355515Y-13283412D02*
X10336467Y-13302460D01*
X10336467Y-13302460D02*
X10307896Y-13311984D01*
X10307896Y-13311984D02*
X10260277Y-13311984D01*
X10460277Y-13311984D02*
X10460277Y-13178650D01*
X10460277Y-13216746D02*
X10469801Y-13197698D01*
X10469801Y-13197698D02*
X10479324Y-13188174D01*
X10479324Y-13188174D02*
X10498372Y-13178650D01*
X10498372Y-13178650D02*
X10517420Y-13178650D01*
X10584086Y-13311984D02*
X10584086Y-13178650D01*
X10584086Y-13111984D02*
X10574563Y-13121508D01*
X10574563Y-13121508D02*
X10584086Y-13131031D01*
X10584086Y-13131031D02*
X10593610Y-13121508D01*
X10593610Y-13121508D02*
X10584086Y-13111984D01*
X10584086Y-13111984D02*
X10584086Y-13131031D01*
X10707896Y-13311984D02*
X10688848Y-13302460D01*
X10688848Y-13302460D02*
X10679324Y-13283412D01*
X10679324Y-13283412D02*
X10679324Y-13111984D01*
X10812658Y-13311984D02*
X10793610Y-13302460D01*
X10793610Y-13302460D02*
X10784086Y-13283412D01*
X10784086Y-13283412D02*
X10784086Y-13111984D01*
X11041229Y-13311984D02*
X11041229Y-13111984D01*
X11041229Y-13111984D02*
X11107896Y-13254841D01*
X11107896Y-13254841D02*
X11174563Y-13111984D01*
X11174563Y-13111984D02*
X11174563Y-13311984D01*
X11355515Y-13311984D02*
X11355515Y-13207222D01*
X11355515Y-13207222D02*
X11345991Y-13188174D01*
X11345991Y-13188174D02*
X11326943Y-13178650D01*
X11326943Y-13178650D02*
X11288848Y-13178650D01*
X11288848Y-13178650D02*
X11269801Y-13188174D01*
X11355515Y-13302460D02*
X11336467Y-13311984D01*
X11336467Y-13311984D02*
X11288848Y-13311984D01*
X11288848Y-13311984D02*
X11269801Y-13302460D01*
X11269801Y-13302460D02*
X11260277Y-13283412D01*
X11260277Y-13283412D02*
X11260277Y-13264365D01*
X11260277Y-13264365D02*
X11269801Y-13245317D01*
X11269801Y-13245317D02*
X11288848Y-13235793D01*
X11288848Y-13235793D02*
X11336467Y-13235793D01*
X11336467Y-13235793D02*
X11355515Y-13226269D01*
X11450753Y-13178650D02*
X11450753Y-13378650D01*
X11450753Y-13188174D02*
X11469801Y-13178650D01*
X11469801Y-13178650D02*
X11507896Y-13178650D01*
X11507896Y-13178650D02*
X11526943Y-13188174D01*
X11526943Y-13188174D02*
X11536467Y-13197698D01*
X11536467Y-13197698D02*
X11545991Y-13216746D01*
X11545991Y-13216746D02*
X11545991Y-13273888D01*
X11545991Y-13273888D02*
X11536467Y-13292936D01*
X11536467Y-13292936D02*
X11526943Y-13302460D01*
X11526943Y-13302460D02*
X11507896Y-13311984D01*
X11507896Y-13311984D02*
X11469801Y-13311984D01*
X11469801Y-13311984D02*
X11450753Y-13302460D01*
X11631705Y-13292936D02*
X11641229Y-13302460D01*
X11641229Y-13302460D02*
X11631705Y-13311984D01*
X11631705Y-13311984D02*
X11622182Y-13302460D01*
X11622182Y-13302460D02*
X11631705Y-13292936D01*
X11631705Y-13292936D02*
X11631705Y-13311984D01*
X11631705Y-13188174D02*
X11641229Y-13197698D01*
X11641229Y-13197698D02*
X11631705Y-13207222D01*
X11631705Y-13207222D02*
X11622182Y-13197698D01*
X11622182Y-13197698D02*
X11631705Y-13188174D01*
X11631705Y-13188174D02*
X11631705Y-13207222D01*
D12*
X9969500Y-13625500D02*
X9999500Y-13655500D01*
X9999500Y-13625500D02*
X9969500Y-13655500D01*
D11*
X10298372Y-13531984D02*
X10317420Y-13531984D01*
X10317420Y-13531984D02*
X10336467Y-13541508D01*
X10336467Y-13541508D02*
X10345991Y-13551031D01*
X10345991Y-13551031D02*
X10355515Y-13570079D01*
X10355515Y-13570079D02*
X10365039Y-13608174D01*
X10365039Y-13608174D02*
X10365039Y-13655793D01*
X10365039Y-13655793D02*
X10355515Y-13693888D01*
X10355515Y-13693888D02*
X10345991Y-13712936D01*
X10345991Y-13712936D02*
X10336467Y-13722460D01*
X10336467Y-13722460D02*
X10317420Y-13731984D01*
X10317420Y-13731984D02*
X10298372Y-13731984D01*
X10298372Y-13731984D02*
X10279324Y-13722460D01*
X10279324Y-13722460D02*
X10269801Y-13712936D01*
X10269801Y-13712936D02*
X10260277Y-13693888D01*
X10260277Y-13693888D02*
X10250753Y-13655793D01*
X10250753Y-13655793D02*
X10250753Y-13608174D01*
X10250753Y-13608174D02*
X10260277Y-13570079D01*
X10260277Y-13570079D02*
X10269801Y-13551031D01*
X10269801Y-13551031D02*
X10279324Y-13541508D01*
X10279324Y-13541508D02*
X10298372Y-13531984D01*
X10450753Y-13712936D02*
X10460277Y-13722460D01*
X10460277Y-13722460D02*
X10450753Y-13731984D01*
X10450753Y-13731984D02*
X10441229Y-13722460D01*
X10441229Y-13722460D02*
X10450753Y-13712936D01*
X10450753Y-13712936D02*
X10450753Y-13731984D01*
X10526944Y-13531984D02*
X10650753Y-13531984D01*
X10650753Y-13531984D02*
X10584086Y-13608174D01*
X10584086Y-13608174D02*
X10612658Y-13608174D01*
X10612658Y-13608174D02*
X10631705Y-13617698D01*
X10631705Y-13617698D02*
X10641229Y-13627222D01*
X10641229Y-13627222D02*
X10650753Y-13646269D01*
X10650753Y-13646269D02*
X10650753Y-13693888D01*
X10650753Y-13693888D02*
X10641229Y-13712936D01*
X10641229Y-13712936D02*
X10631705Y-13722460D01*
X10631705Y-13722460D02*
X10612658Y-13731984D01*
X10612658Y-13731984D02*
X10555515Y-13731984D01*
X10555515Y-13731984D02*
X10536467Y-13722460D01*
X10536467Y-13722460D02*
X10526944Y-13712936D01*
X10774563Y-13531984D02*
X10793610Y-13531984D01*
X10793610Y-13531984D02*
X10812658Y-13541508D01*
X10812658Y-13541508D02*
X10822182Y-13551031D01*
X10822182Y-13551031D02*
X10831705Y-13570079D01*
X10831705Y-13570079D02*
X10841229Y-13608174D01*
X10841229Y-13608174D02*
X10841229Y-13655793D01*
X10841229Y-13655793D02*
X10831705Y-13693888D01*
X10831705Y-13693888D02*
X10822182Y-13712936D01*
X10822182Y-13712936D02*
X10812658Y-13722460D01*
X10812658Y-13722460D02*
X10793610Y-13731984D01*
X10793610Y-13731984D02*
X10774563Y-13731984D01*
X10774563Y-13731984D02*
X10755515Y-13722460D01*
X10755515Y-13722460D02*
X10745991Y-13712936D01*
X10745991Y-13712936D02*
X10736467Y-13693888D01*
X10736467Y-13693888D02*
X10726944Y-13655793D01*
X10726944Y-13655793D02*
X10726944Y-13608174D01*
X10726944Y-13608174D02*
X10736467Y-13570079D01*
X10736467Y-13570079D02*
X10745991Y-13551031D01*
X10745991Y-13551031D02*
X10755515Y-13541508D01*
X10755515Y-13541508D02*
X10774563Y-13531984D01*
X10965039Y-13531984D02*
X10984086Y-13531984D01*
X10984086Y-13531984D02*
X11003134Y-13541508D01*
X11003134Y-13541508D02*
X11012658Y-13551031D01*
X11012658Y-13551031D02*
X11022182Y-13570079D01*
X11022182Y-13570079D02*
X11031705Y-13608174D01*
X11031705Y-13608174D02*
X11031705Y-13655793D01*
X11031705Y-13655793D02*
X11022182Y-13693888D01*
X11022182Y-13693888D02*
X11012658Y-13712936D01*
X11012658Y-13712936D02*
X11003134Y-13722460D01*
X11003134Y-13722460D02*
X10984086Y-13731984D01*
X10984086Y-13731984D02*
X10965039Y-13731984D01*
X10965039Y-13731984D02*
X10945991Y-13722460D01*
X10945991Y-13722460D02*
X10936467Y-13712936D01*
X10936467Y-13712936D02*
X10926944Y-13693888D01*
X10926944Y-13693888D02*
X10917420Y-13655793D01*
X10917420Y-13655793D02*
X10917420Y-13608174D01*
X10917420Y-13608174D02*
X10926944Y-13570079D01*
X10926944Y-13570079D02*
X10936467Y-13551031D01*
X10936467Y-13551031D02*
X10945991Y-13541508D01*
X10945991Y-13541508D02*
X10965039Y-13531984D01*
X11117420Y-13731984D02*
X11117420Y-13598650D01*
X11117420Y-13617698D02*
X11126944Y-13608174D01*
X11126944Y-13608174D02*
X11145991Y-13598650D01*
X11145991Y-13598650D02*
X11174563Y-13598650D01*
X11174563Y-13598650D02*
X11193610Y-13608174D01*
X11193610Y-13608174D02*
X11203134Y-13627222D01*
X11203134Y-13627222D02*
X11203134Y-13731984D01*
X11203134Y-13627222D02*
X11212658Y-13608174D01*
X11212658Y-13608174D02*
X11231705Y-13598650D01*
X11231705Y-13598650D02*
X11260277Y-13598650D01*
X11260277Y-13598650D02*
X11279324Y-13608174D01*
X11279324Y-13608174D02*
X11288848Y-13627222D01*
X11288848Y-13627222D02*
X11288848Y-13731984D01*
X11384086Y-13731984D02*
X11384086Y-13598650D01*
X11384086Y-13617698D02*
X11393610Y-13608174D01*
X11393610Y-13608174D02*
X11412658Y-13598650D01*
X11412658Y-13598650D02*
X11441229Y-13598650D01*
X11441229Y-13598650D02*
X11460277Y-13608174D01*
X11460277Y-13608174D02*
X11469801Y-13627222D01*
X11469801Y-13627222D02*
X11469801Y-13731984D01*
X11469801Y-13627222D02*
X11479324Y-13608174D01*
X11479324Y-13608174D02*
X11498372Y-13598650D01*
X11498372Y-13598650D02*
X11526943Y-13598650D01*
X11526943Y-13598650D02*
X11545991Y-13608174D01*
X11545991Y-13608174D02*
X11555515Y-13627222D01*
X11555515Y-13627222D02*
X11555515Y-13731984D01*
X11945991Y-13522460D02*
X11774563Y-13779603D01*
X12203134Y-13531984D02*
X12222182Y-13531984D01*
X12222182Y-13531984D02*
X12241229Y-13541508D01*
X12241229Y-13541508D02*
X12250753Y-13551031D01*
X12250753Y-13551031D02*
X12260277Y-13570079D01*
X12260277Y-13570079D02*
X12269801Y-13608174D01*
X12269801Y-13608174D02*
X12269801Y-13655793D01*
X12269801Y-13655793D02*
X12260277Y-13693888D01*
X12260277Y-13693888D02*
X12250753Y-13712936D01*
X12250753Y-13712936D02*
X12241229Y-13722460D01*
X12241229Y-13722460D02*
X12222182Y-13731984D01*
X12222182Y-13731984D02*
X12203134Y-13731984D01*
X12203134Y-13731984D02*
X12184086Y-13722460D01*
X12184086Y-13722460D02*
X12174563Y-13712936D01*
X12174563Y-13712936D02*
X12165039Y-13693888D01*
X12165039Y-13693888D02*
X12155515Y-13655793D01*
X12155515Y-13655793D02*
X12155515Y-13608174D01*
X12155515Y-13608174D02*
X12165039Y-13570079D01*
X12165039Y-13570079D02*
X12174563Y-13551031D01*
X12174563Y-13551031D02*
X12184086Y-13541508D01*
X12184086Y-13541508D02*
X12203134Y-13531984D01*
X12355515Y-13712936D02*
X12365039Y-13722460D01*
X12365039Y-13722460D02*
X12355515Y-13731984D01*
X12355515Y-13731984D02*
X12345991Y-13722460D01*
X12345991Y-13722460D02*
X12355515Y-13712936D01*
X12355515Y-13712936D02*
X12355515Y-13731984D01*
X12488848Y-13531984D02*
X12507896Y-13531984D01*
X12507896Y-13531984D02*
X12526944Y-13541508D01*
X12526944Y-13541508D02*
X12536467Y-13551031D01*
X12536467Y-13551031D02*
X12545991Y-13570079D01*
X12545991Y-13570079D02*
X12555515Y-13608174D01*
X12555515Y-13608174D02*
X12555515Y-13655793D01*
X12555515Y-13655793D02*
X12545991Y-13693888D01*
X12545991Y-13693888D02*
X12536467Y-13712936D01*
X12536467Y-13712936D02*
X12526944Y-13722460D01*
X12526944Y-13722460D02*
X12507896Y-13731984D01*
X12507896Y-13731984D02*
X12488848Y-13731984D01*
X12488848Y-13731984D02*
X12469801Y-13722460D01*
X12469801Y-13722460D02*
X12460277Y-13712936D01*
X12460277Y-13712936D02*
X12450753Y-13693888D01*
X12450753Y-13693888D02*
X12441229Y-13655793D01*
X12441229Y-13655793D02*
X12441229Y-13608174D01*
X12441229Y-13608174D02*
X12450753Y-13570079D01*
X12450753Y-13570079D02*
X12460277Y-13551031D01*
X12460277Y-13551031D02*
X12469801Y-13541508D01*
X12469801Y-13541508D02*
X12488848Y-13531984D01*
X12745991Y-13731984D02*
X12631706Y-13731984D01*
X12688848Y-13731984D02*
X12688848Y-13531984D01*
X12688848Y-13531984D02*
X12669801Y-13560555D01*
X12669801Y-13560555D02*
X12650753Y-13579603D01*
X12650753Y-13579603D02*
X12631706Y-13589127D01*
X12936467Y-13731984D02*
X12822182Y-13731984D01*
X12879325Y-13731984D02*
X12879325Y-13531984D01*
X12879325Y-13531984D02*
X12860277Y-13560555D01*
X12860277Y-13560555D02*
X12841229Y-13579603D01*
X12841229Y-13579603D02*
X12822182Y-13589127D01*
X13050753Y-13617698D02*
X13031706Y-13608174D01*
X13031706Y-13608174D02*
X13022182Y-13598650D01*
X13022182Y-13598650D02*
X13012658Y-13579603D01*
X13012658Y-13579603D02*
X13012658Y-13570079D01*
X13012658Y-13570079D02*
X13022182Y-13551031D01*
X13022182Y-13551031D02*
X13031706Y-13541508D01*
X13031706Y-13541508D02*
X13050753Y-13531984D01*
X13050753Y-13531984D02*
X13088848Y-13531984D01*
X13088848Y-13531984D02*
X13107896Y-13541508D01*
X13107896Y-13541508D02*
X13117420Y-13551031D01*
X13117420Y-13551031D02*
X13126944Y-13570079D01*
X13126944Y-13570079D02*
X13126944Y-13579603D01*
X13126944Y-13579603D02*
X13117420Y-13598650D01*
X13117420Y-13598650D02*
X13107896Y-13608174D01*
X13107896Y-13608174D02*
X13088848Y-13617698D01*
X13088848Y-13617698D02*
X13050753Y-13617698D01*
X13050753Y-13617698D02*
X13031706Y-13627222D01*
X13031706Y-13627222D02*
X13022182Y-13636746D01*
X13022182Y-13636746D02*
X13012658Y-13655793D01*
X13012658Y-13655793D02*
X13012658Y-13693888D01*
X13012658Y-13693888D02*
X13022182Y-13712936D01*
X13022182Y-13712936D02*
X13031706Y-13722460D01*
X13031706Y-13722460D02*
X13050753Y-13731984D01*
X13050753Y-13731984D02*
X13088848Y-13731984D01*
X13088848Y-13731984D02*
X13107896Y-13722460D01*
X13107896Y-13722460D02*
X13117420Y-13712936D01*
X13117420Y-13712936D02*
X13126944Y-13693888D01*
X13126944Y-13693888D02*
X13126944Y-13655793D01*
X13126944Y-13655793D02*
X13117420Y-13636746D01*
X13117420Y-13636746D02*
X13107896Y-13627222D01*
X13107896Y-13627222D02*
X13088848Y-13617698D01*
X13203134Y-13531984D02*
X13203134Y-13570079D01*
X13279325Y-13531984D02*
X13279325Y-13570079D01*
X13574563Y-13808174D02*
X13565039Y-13798650D01*
X13565039Y-13798650D02*
X13545991Y-13770079D01*
X13545991Y-13770079D02*
X13536468Y-13751031D01*
X13536468Y-13751031D02*
X13526944Y-13722460D01*
X13526944Y-13722460D02*
X13517420Y-13674841D01*
X13517420Y-13674841D02*
X13517420Y-13636746D01*
X13517420Y-13636746D02*
X13526944Y-13589127D01*
X13526944Y-13589127D02*
X13536468Y-13560555D01*
X13536468Y-13560555D02*
X13545991Y-13541508D01*
X13545991Y-13541508D02*
X13565039Y-13512936D01*
X13565039Y-13512936D02*
X13574563Y-13503412D01*
X13641229Y-13551031D02*
X13650753Y-13541508D01*
X13650753Y-13541508D02*
X13669801Y-13531984D01*
X13669801Y-13531984D02*
X13717420Y-13531984D01*
X13717420Y-13531984D02*
X13736468Y-13541508D01*
X13736468Y-13541508D02*
X13745991Y-13551031D01*
X13745991Y-13551031D02*
X13755515Y-13570079D01*
X13755515Y-13570079D02*
X13755515Y-13589127D01*
X13755515Y-13589127D02*
X13745991Y-13617698D01*
X13745991Y-13617698D02*
X13631706Y-13731984D01*
X13631706Y-13731984D02*
X13755515Y-13731984D01*
X13993610Y-13731984D02*
X13993610Y-13531984D01*
X14079325Y-13731984D02*
X14079325Y-13627222D01*
X14079325Y-13627222D02*
X14069801Y-13608174D01*
X14069801Y-13608174D02*
X14050753Y-13598650D01*
X14050753Y-13598650D02*
X14022182Y-13598650D01*
X14022182Y-13598650D02*
X14003134Y-13608174D01*
X14003134Y-13608174D02*
X13993610Y-13617698D01*
X14203134Y-13731984D02*
X14184087Y-13722460D01*
X14184087Y-13722460D02*
X14174563Y-13712936D01*
X14174563Y-13712936D02*
X14165039Y-13693888D01*
X14165039Y-13693888D02*
X14165039Y-13636746D01*
X14165039Y-13636746D02*
X14174563Y-13617698D01*
X14174563Y-13617698D02*
X14184087Y-13608174D01*
X14184087Y-13608174D02*
X14203134Y-13598650D01*
X14203134Y-13598650D02*
X14231706Y-13598650D01*
X14231706Y-13598650D02*
X14250753Y-13608174D01*
X14250753Y-13608174D02*
X14260277Y-13617698D01*
X14260277Y-13617698D02*
X14269801Y-13636746D01*
X14269801Y-13636746D02*
X14269801Y-13693888D01*
X14269801Y-13693888D02*
X14260277Y-13712936D01*
X14260277Y-13712936D02*
X14250753Y-13722460D01*
X14250753Y-13722460D02*
X14231706Y-13731984D01*
X14231706Y-13731984D02*
X14203134Y-13731984D01*
X14384087Y-13731984D02*
X14365039Y-13722460D01*
X14365039Y-13722460D02*
X14355515Y-13703412D01*
X14355515Y-13703412D02*
X14355515Y-13531984D01*
X14536468Y-13722460D02*
X14517420Y-13731984D01*
X14517420Y-13731984D02*
X14479325Y-13731984D01*
X14479325Y-13731984D02*
X14460277Y-13722460D01*
X14460277Y-13722460D02*
X14450753Y-13703412D01*
X14450753Y-13703412D02*
X14450753Y-13627222D01*
X14450753Y-13627222D02*
X14460277Y-13608174D01*
X14460277Y-13608174D02*
X14479325Y-13598650D01*
X14479325Y-13598650D02*
X14517420Y-13598650D01*
X14517420Y-13598650D02*
X14536468Y-13608174D01*
X14536468Y-13608174D02*
X14545991Y-13627222D01*
X14545991Y-13627222D02*
X14545991Y-13646269D01*
X14545991Y-13646269D02*
X14450753Y-13665317D01*
X14622182Y-13722460D02*
X14641230Y-13731984D01*
X14641230Y-13731984D02*
X14679325Y-13731984D01*
X14679325Y-13731984D02*
X14698372Y-13722460D01*
X14698372Y-13722460D02*
X14707896Y-13703412D01*
X14707896Y-13703412D02*
X14707896Y-13693888D01*
X14707896Y-13693888D02*
X14698372Y-13674841D01*
X14698372Y-13674841D02*
X14679325Y-13665317D01*
X14679325Y-13665317D02*
X14650753Y-13665317D01*
X14650753Y-13665317D02*
X14631706Y-13655793D01*
X14631706Y-13655793D02*
X14622182Y-13636746D01*
X14622182Y-13636746D02*
X14622182Y-13627222D01*
X14622182Y-13627222D02*
X14631706Y-13608174D01*
X14631706Y-13608174D02*
X14650753Y-13598650D01*
X14650753Y-13598650D02*
X14679325Y-13598650D01*
X14679325Y-13598650D02*
X14698372Y-13608174D01*
X14774563Y-13808174D02*
X14784087Y-13798650D01*
X14784087Y-13798650D02*
X14803134Y-13770079D01*
X14803134Y-13770079D02*
X14812658Y-13751031D01*
X14812658Y-13751031D02*
X14822182Y-13722460D01*
X14822182Y-13722460D02*
X14831706Y-13674841D01*
X14831706Y-13674841D02*
X14831706Y-13636746D01*
X14831706Y-13636746D02*
X14822182Y-13589127D01*
X14822182Y-13589127D02*
X14812658Y-13560555D01*
X14812658Y-13560555D02*
X14803134Y-13541508D01*
X14803134Y-13541508D02*
X14784087Y-13512936D01*
X14784087Y-13512936D02*
X14774563Y-13503412D01*
D12*
X9999500Y-13904500D02*
G75*
G02*
X9959500Y-13904500I-20000J0D01*
G01*
X9959500Y-13904500D02*
G75*
G02*
X9999500Y-13904500I20000J0D01*
G01*
D11*
X10298372Y-13795984D02*
X10317420Y-13795984D01*
X10317420Y-13795984D02*
X10336467Y-13805508D01*
X10336467Y-13805508D02*
X10345991Y-13815031D01*
X10345991Y-13815031D02*
X10355515Y-13834079D01*
X10355515Y-13834079D02*
X10365039Y-13872174D01*
X10365039Y-13872174D02*
X10365039Y-13919793D01*
X10365039Y-13919793D02*
X10355515Y-13957888D01*
X10355515Y-13957888D02*
X10345991Y-13976936D01*
X10345991Y-13976936D02*
X10336467Y-13986460D01*
X10336467Y-13986460D02*
X10317420Y-13995984D01*
X10317420Y-13995984D02*
X10298372Y-13995984D01*
X10298372Y-13995984D02*
X10279324Y-13986460D01*
X10279324Y-13986460D02*
X10269801Y-13976936D01*
X10269801Y-13976936D02*
X10260277Y-13957888D01*
X10260277Y-13957888D02*
X10250753Y-13919793D01*
X10250753Y-13919793D02*
X10250753Y-13872174D01*
X10250753Y-13872174D02*
X10260277Y-13834079D01*
X10260277Y-13834079D02*
X10269801Y-13815031D01*
X10269801Y-13815031D02*
X10279324Y-13805508D01*
X10279324Y-13805508D02*
X10298372Y-13795984D01*
X10450753Y-13976936D02*
X10460277Y-13986460D01*
X10460277Y-13986460D02*
X10450753Y-13995984D01*
X10450753Y-13995984D02*
X10441229Y-13986460D01*
X10441229Y-13986460D02*
X10450753Y-13976936D01*
X10450753Y-13976936D02*
X10450753Y-13995984D01*
X10631705Y-13862650D02*
X10631705Y-13995984D01*
X10584086Y-13786460D02*
X10536467Y-13929317D01*
X10536467Y-13929317D02*
X10660277Y-13929317D01*
X10774563Y-13795984D02*
X10793610Y-13795984D01*
X10793610Y-13795984D02*
X10812658Y-13805508D01*
X10812658Y-13805508D02*
X10822182Y-13815031D01*
X10822182Y-13815031D02*
X10831705Y-13834079D01*
X10831705Y-13834079D02*
X10841229Y-13872174D01*
X10841229Y-13872174D02*
X10841229Y-13919793D01*
X10841229Y-13919793D02*
X10831705Y-13957888D01*
X10831705Y-13957888D02*
X10822182Y-13976936D01*
X10822182Y-13976936D02*
X10812658Y-13986460D01*
X10812658Y-13986460D02*
X10793610Y-13995984D01*
X10793610Y-13995984D02*
X10774563Y-13995984D01*
X10774563Y-13995984D02*
X10755515Y-13986460D01*
X10755515Y-13986460D02*
X10745991Y-13976936D01*
X10745991Y-13976936D02*
X10736467Y-13957888D01*
X10736467Y-13957888D02*
X10726944Y-13919793D01*
X10726944Y-13919793D02*
X10726944Y-13872174D01*
X10726944Y-13872174D02*
X10736467Y-13834079D01*
X10736467Y-13834079D02*
X10745991Y-13815031D01*
X10745991Y-13815031D02*
X10755515Y-13805508D01*
X10755515Y-13805508D02*
X10774563Y-13795984D01*
X10965039Y-13795984D02*
X10984086Y-13795984D01*
X10984086Y-13795984D02*
X11003134Y-13805508D01*
X11003134Y-13805508D02*
X11012658Y-13815031D01*
X11012658Y-13815031D02*
X11022182Y-13834079D01*
X11022182Y-13834079D02*
X11031705Y-13872174D01*
X11031705Y-13872174D02*
X11031705Y-13919793D01*
X11031705Y-13919793D02*
X11022182Y-13957888D01*
X11022182Y-13957888D02*
X11012658Y-13976936D01*
X11012658Y-13976936D02*
X11003134Y-13986460D01*
X11003134Y-13986460D02*
X10984086Y-13995984D01*
X10984086Y-13995984D02*
X10965039Y-13995984D01*
X10965039Y-13995984D02*
X10945991Y-13986460D01*
X10945991Y-13986460D02*
X10936467Y-13976936D01*
X10936467Y-13976936D02*
X10926944Y-13957888D01*
X10926944Y-13957888D02*
X10917420Y-13919793D01*
X10917420Y-13919793D02*
X10917420Y-13872174D01*
X10917420Y-13872174D02*
X10926944Y-13834079D01*
X10926944Y-13834079D02*
X10936467Y-13815031D01*
X10936467Y-13815031D02*
X10945991Y-13805508D01*
X10945991Y-13805508D02*
X10965039Y-13795984D01*
X11117420Y-13995984D02*
X11117420Y-13862650D01*
X11117420Y-13881698D02*
X11126944Y-13872174D01*
X11126944Y-13872174D02*
X11145991Y-13862650D01*
X11145991Y-13862650D02*
X11174563Y-13862650D01*
X11174563Y-13862650D02*
X11193610Y-13872174D01*
X11193610Y-13872174D02*
X11203134Y-13891222D01*
X11203134Y-13891222D02*
X11203134Y-13995984D01*
X11203134Y-13891222D02*
X11212658Y-13872174D01*
X11212658Y-13872174D02*
X11231705Y-13862650D01*
X11231705Y-13862650D02*
X11260277Y-13862650D01*
X11260277Y-13862650D02*
X11279324Y-13872174D01*
X11279324Y-13872174D02*
X11288848Y-13891222D01*
X11288848Y-13891222D02*
X11288848Y-13995984D01*
X11384086Y-13995984D02*
X11384086Y-13862650D01*
X11384086Y-13881698D02*
X11393610Y-13872174D01*
X11393610Y-13872174D02*
X11412658Y-13862650D01*
X11412658Y-13862650D02*
X11441229Y-13862650D01*
X11441229Y-13862650D02*
X11460277Y-13872174D01*
X11460277Y-13872174D02*
X11469801Y-13891222D01*
X11469801Y-13891222D02*
X11469801Y-13995984D01*
X11469801Y-13891222D02*
X11479324Y-13872174D01*
X11479324Y-13872174D02*
X11498372Y-13862650D01*
X11498372Y-13862650D02*
X11526943Y-13862650D01*
X11526943Y-13862650D02*
X11545991Y-13872174D01*
X11545991Y-13872174D02*
X11555515Y-13891222D01*
X11555515Y-13891222D02*
X11555515Y-13995984D01*
X11945991Y-13786460D02*
X11774563Y-14043603D01*
X12203134Y-13795984D02*
X12222182Y-13795984D01*
X12222182Y-13795984D02*
X12241229Y-13805508D01*
X12241229Y-13805508D02*
X12250753Y-13815031D01*
X12250753Y-13815031D02*
X12260277Y-13834079D01*
X12260277Y-13834079D02*
X12269801Y-13872174D01*
X12269801Y-13872174D02*
X12269801Y-13919793D01*
X12269801Y-13919793D02*
X12260277Y-13957888D01*
X12260277Y-13957888D02*
X12250753Y-13976936D01*
X12250753Y-13976936D02*
X12241229Y-13986460D01*
X12241229Y-13986460D02*
X12222182Y-13995984D01*
X12222182Y-13995984D02*
X12203134Y-13995984D01*
X12203134Y-13995984D02*
X12184086Y-13986460D01*
X12184086Y-13986460D02*
X12174563Y-13976936D01*
X12174563Y-13976936D02*
X12165039Y-13957888D01*
X12165039Y-13957888D02*
X12155515Y-13919793D01*
X12155515Y-13919793D02*
X12155515Y-13872174D01*
X12155515Y-13872174D02*
X12165039Y-13834079D01*
X12165039Y-13834079D02*
X12174563Y-13815031D01*
X12174563Y-13815031D02*
X12184086Y-13805508D01*
X12184086Y-13805508D02*
X12203134Y-13795984D01*
X12355515Y-13976936D02*
X12365039Y-13986460D01*
X12365039Y-13986460D02*
X12355515Y-13995984D01*
X12355515Y-13995984D02*
X12345991Y-13986460D01*
X12345991Y-13986460D02*
X12355515Y-13976936D01*
X12355515Y-13976936D02*
X12355515Y-13995984D01*
X12488848Y-13795984D02*
X12507896Y-13795984D01*
X12507896Y-13795984D02*
X12526944Y-13805508D01*
X12526944Y-13805508D02*
X12536467Y-13815031D01*
X12536467Y-13815031D02*
X12545991Y-13834079D01*
X12545991Y-13834079D02*
X12555515Y-13872174D01*
X12555515Y-13872174D02*
X12555515Y-13919793D01*
X12555515Y-13919793D02*
X12545991Y-13957888D01*
X12545991Y-13957888D02*
X12536467Y-13976936D01*
X12536467Y-13976936D02*
X12526944Y-13986460D01*
X12526944Y-13986460D02*
X12507896Y-13995984D01*
X12507896Y-13995984D02*
X12488848Y-13995984D01*
X12488848Y-13995984D02*
X12469801Y-13986460D01*
X12469801Y-13986460D02*
X12460277Y-13976936D01*
X12460277Y-13976936D02*
X12450753Y-13957888D01*
X12450753Y-13957888D02*
X12441229Y-13919793D01*
X12441229Y-13919793D02*
X12441229Y-13872174D01*
X12441229Y-13872174D02*
X12450753Y-13834079D01*
X12450753Y-13834079D02*
X12460277Y-13815031D01*
X12460277Y-13815031D02*
X12469801Y-13805508D01*
X12469801Y-13805508D02*
X12488848Y-13795984D01*
X12745991Y-13995984D02*
X12631706Y-13995984D01*
X12688848Y-13995984D02*
X12688848Y-13795984D01*
X12688848Y-13795984D02*
X12669801Y-13824555D01*
X12669801Y-13824555D02*
X12650753Y-13843603D01*
X12650753Y-13843603D02*
X12631706Y-13853127D01*
X12926944Y-13795984D02*
X12831706Y-13795984D01*
X12831706Y-13795984D02*
X12822182Y-13891222D01*
X12822182Y-13891222D02*
X12831706Y-13881698D01*
X12831706Y-13881698D02*
X12850753Y-13872174D01*
X12850753Y-13872174D02*
X12898372Y-13872174D01*
X12898372Y-13872174D02*
X12917420Y-13881698D01*
X12917420Y-13881698D02*
X12926944Y-13891222D01*
X12926944Y-13891222D02*
X12936467Y-13910269D01*
X12936467Y-13910269D02*
X12936467Y-13957888D01*
X12936467Y-13957888D02*
X12926944Y-13976936D01*
X12926944Y-13976936D02*
X12917420Y-13986460D01*
X12917420Y-13986460D02*
X12898372Y-13995984D01*
X12898372Y-13995984D02*
X12850753Y-13995984D01*
X12850753Y-13995984D02*
X12831706Y-13986460D01*
X12831706Y-13986460D02*
X12822182Y-13976936D01*
X13003134Y-13795984D02*
X13136467Y-13795984D01*
X13136467Y-13795984D02*
X13050753Y-13995984D01*
X13203134Y-13795984D02*
X13203134Y-13834079D01*
X13279325Y-13795984D02*
X13279325Y-13834079D01*
X13574563Y-14072174D02*
X13565039Y-14062650D01*
X13565039Y-14062650D02*
X13545991Y-14034079D01*
X13545991Y-14034079D02*
X13536468Y-14015031D01*
X13536468Y-14015031D02*
X13526944Y-13986460D01*
X13526944Y-13986460D02*
X13517420Y-13938841D01*
X13517420Y-13938841D02*
X13517420Y-13900746D01*
X13517420Y-13900746D02*
X13526944Y-13853127D01*
X13526944Y-13853127D02*
X13536468Y-13824555D01*
X13536468Y-13824555D02*
X13545991Y-13805508D01*
X13545991Y-13805508D02*
X13565039Y-13776936D01*
X13565039Y-13776936D02*
X13574563Y-13767412D01*
X13755515Y-13995984D02*
X13641229Y-13995984D01*
X13698372Y-13995984D02*
X13698372Y-13795984D01*
X13698372Y-13795984D02*
X13679325Y-13824555D01*
X13679325Y-13824555D02*
X13660277Y-13843603D01*
X13660277Y-13843603D02*
X13641229Y-13853127D01*
X13831706Y-13815031D02*
X13841229Y-13805508D01*
X13841229Y-13805508D02*
X13860277Y-13795984D01*
X13860277Y-13795984D02*
X13907896Y-13795984D01*
X13907896Y-13795984D02*
X13926944Y-13805508D01*
X13926944Y-13805508D02*
X13936468Y-13815031D01*
X13936468Y-13815031D02*
X13945991Y-13834079D01*
X13945991Y-13834079D02*
X13945991Y-13853127D01*
X13945991Y-13853127D02*
X13936468Y-13881698D01*
X13936468Y-13881698D02*
X13822182Y-13995984D01*
X13822182Y-13995984D02*
X13945991Y-13995984D01*
X14184087Y-13995984D02*
X14184087Y-13795984D01*
X14269801Y-13995984D02*
X14269801Y-13891222D01*
X14269801Y-13891222D02*
X14260277Y-13872174D01*
X14260277Y-13872174D02*
X14241230Y-13862650D01*
X14241230Y-13862650D02*
X14212658Y-13862650D01*
X14212658Y-13862650D02*
X14193610Y-13872174D01*
X14193610Y-13872174D02*
X14184087Y-13881698D01*
X14393610Y-13995984D02*
X14374563Y-13986460D01*
X14374563Y-13986460D02*
X14365039Y-13976936D01*
X14365039Y-13976936D02*
X14355515Y-13957888D01*
X14355515Y-13957888D02*
X14355515Y-13900746D01*
X14355515Y-13900746D02*
X14365039Y-13881698D01*
X14365039Y-13881698D02*
X14374563Y-13872174D01*
X14374563Y-13872174D02*
X14393610Y-13862650D01*
X14393610Y-13862650D02*
X14422182Y-13862650D01*
X14422182Y-13862650D02*
X14441230Y-13872174D01*
X14441230Y-13872174D02*
X14450753Y-13881698D01*
X14450753Y-13881698D02*
X14460277Y-13900746D01*
X14460277Y-13900746D02*
X14460277Y-13957888D01*
X14460277Y-13957888D02*
X14450753Y-13976936D01*
X14450753Y-13976936D02*
X14441230Y-13986460D01*
X14441230Y-13986460D02*
X14422182Y-13995984D01*
X14422182Y-13995984D02*
X14393610Y-13995984D01*
X14574563Y-13995984D02*
X14555515Y-13986460D01*
X14555515Y-13986460D02*
X14545991Y-13967412D01*
X14545991Y-13967412D02*
X14545991Y-13795984D01*
X14726944Y-13986460D02*
X14707896Y-13995984D01*
X14707896Y-13995984D02*
X14669801Y-13995984D01*
X14669801Y-13995984D02*
X14650753Y-13986460D01*
X14650753Y-13986460D02*
X14641230Y-13967412D01*
X14641230Y-13967412D02*
X14641230Y-13891222D01*
X14641230Y-13891222D02*
X14650753Y-13872174D01*
X14650753Y-13872174D02*
X14669801Y-13862650D01*
X14669801Y-13862650D02*
X14707896Y-13862650D01*
X14707896Y-13862650D02*
X14726944Y-13872174D01*
X14726944Y-13872174D02*
X14736468Y-13891222D01*
X14736468Y-13891222D02*
X14736468Y-13910269D01*
X14736468Y-13910269D02*
X14641230Y-13929317D01*
X14812658Y-13986460D02*
X14831706Y-13995984D01*
X14831706Y-13995984D02*
X14869801Y-13995984D01*
X14869801Y-13995984D02*
X14888849Y-13986460D01*
X14888849Y-13986460D02*
X14898372Y-13967412D01*
X14898372Y-13967412D02*
X14898372Y-13957888D01*
X14898372Y-13957888D02*
X14888849Y-13938841D01*
X14888849Y-13938841D02*
X14869801Y-13929317D01*
X14869801Y-13929317D02*
X14841230Y-13929317D01*
X14841230Y-13929317D02*
X14822182Y-13919793D01*
X14822182Y-13919793D02*
X14812658Y-13900746D01*
X14812658Y-13900746D02*
X14812658Y-13891222D01*
X14812658Y-13891222D02*
X14822182Y-13872174D01*
X14822182Y-13872174D02*
X14841230Y-13862650D01*
X14841230Y-13862650D02*
X14869801Y-13862650D01*
X14869801Y-13862650D02*
X14888849Y-13872174D01*
X14965039Y-14072174D02*
X14974563Y-14062650D01*
X14974563Y-14062650D02*
X14993611Y-14034079D01*
X14993611Y-14034079D02*
X15003134Y-14015031D01*
X15003134Y-14015031D02*
X15012658Y-13986460D01*
X15012658Y-13986460D02*
X15022182Y-13938841D01*
X15022182Y-13938841D02*
X15022182Y-13900746D01*
X15022182Y-13900746D02*
X15012658Y-13853127D01*
X15012658Y-13853127D02*
X15003134Y-13824555D01*
X15003134Y-13824555D02*
X14993611Y-13805508D01*
X14993611Y-13805508D02*
X14974563Y-13776936D01*
X14974563Y-13776936D02*
X14965039Y-13767412D01*
D12*
X9969500Y-14138500D02*
X9969500Y-14198500D01*
X9939500Y-14168500D02*
X9999500Y-14168500D01*
D11*
X10298372Y-14059984D02*
X10317420Y-14059984D01*
X10317420Y-14059984D02*
X10336467Y-14069508D01*
X10336467Y-14069508D02*
X10345991Y-14079031D01*
X10345991Y-14079031D02*
X10355515Y-14098079D01*
X10355515Y-14098079D02*
X10365039Y-14136174D01*
X10365039Y-14136174D02*
X10365039Y-14183793D01*
X10365039Y-14183793D02*
X10355515Y-14221888D01*
X10355515Y-14221888D02*
X10345991Y-14240936D01*
X10345991Y-14240936D02*
X10336467Y-14250460D01*
X10336467Y-14250460D02*
X10317420Y-14259984D01*
X10317420Y-14259984D02*
X10298372Y-14259984D01*
X10298372Y-14259984D02*
X10279324Y-14250460D01*
X10279324Y-14250460D02*
X10269801Y-14240936D01*
X10269801Y-14240936D02*
X10260277Y-14221888D01*
X10260277Y-14221888D02*
X10250753Y-14183793D01*
X10250753Y-14183793D02*
X10250753Y-14136174D01*
X10250753Y-14136174D02*
X10260277Y-14098079D01*
X10260277Y-14098079D02*
X10269801Y-14079031D01*
X10269801Y-14079031D02*
X10279324Y-14069508D01*
X10279324Y-14069508D02*
X10298372Y-14059984D01*
X10450753Y-14240936D02*
X10460277Y-14250460D01*
X10460277Y-14250460D02*
X10450753Y-14259984D01*
X10450753Y-14259984D02*
X10441229Y-14250460D01*
X10441229Y-14250460D02*
X10450753Y-14240936D01*
X10450753Y-14240936D02*
X10450753Y-14259984D01*
X10631705Y-14059984D02*
X10593610Y-14059984D01*
X10593610Y-14059984D02*
X10574563Y-14069508D01*
X10574563Y-14069508D02*
X10565039Y-14079031D01*
X10565039Y-14079031D02*
X10545991Y-14107603D01*
X10545991Y-14107603D02*
X10536467Y-14145698D01*
X10536467Y-14145698D02*
X10536467Y-14221888D01*
X10536467Y-14221888D02*
X10545991Y-14240936D01*
X10545991Y-14240936D02*
X10555515Y-14250460D01*
X10555515Y-14250460D02*
X10574563Y-14259984D01*
X10574563Y-14259984D02*
X10612658Y-14259984D01*
X10612658Y-14259984D02*
X10631705Y-14250460D01*
X10631705Y-14250460D02*
X10641229Y-14240936D01*
X10641229Y-14240936D02*
X10650753Y-14221888D01*
X10650753Y-14221888D02*
X10650753Y-14174269D01*
X10650753Y-14174269D02*
X10641229Y-14155222D01*
X10641229Y-14155222D02*
X10631705Y-14145698D01*
X10631705Y-14145698D02*
X10612658Y-14136174D01*
X10612658Y-14136174D02*
X10574563Y-14136174D01*
X10574563Y-14136174D02*
X10555515Y-14145698D01*
X10555515Y-14145698D02*
X10545991Y-14155222D01*
X10545991Y-14155222D02*
X10536467Y-14174269D01*
X10774563Y-14059984D02*
X10793610Y-14059984D01*
X10793610Y-14059984D02*
X10812658Y-14069508D01*
X10812658Y-14069508D02*
X10822182Y-14079031D01*
X10822182Y-14079031D02*
X10831705Y-14098079D01*
X10831705Y-14098079D02*
X10841229Y-14136174D01*
X10841229Y-14136174D02*
X10841229Y-14183793D01*
X10841229Y-14183793D02*
X10831705Y-14221888D01*
X10831705Y-14221888D02*
X10822182Y-14240936D01*
X10822182Y-14240936D02*
X10812658Y-14250460D01*
X10812658Y-14250460D02*
X10793610Y-14259984D01*
X10793610Y-14259984D02*
X10774563Y-14259984D01*
X10774563Y-14259984D02*
X10755515Y-14250460D01*
X10755515Y-14250460D02*
X10745991Y-14240936D01*
X10745991Y-14240936D02*
X10736467Y-14221888D01*
X10736467Y-14221888D02*
X10726944Y-14183793D01*
X10726944Y-14183793D02*
X10726944Y-14136174D01*
X10726944Y-14136174D02*
X10736467Y-14098079D01*
X10736467Y-14098079D02*
X10745991Y-14079031D01*
X10745991Y-14079031D02*
X10755515Y-14069508D01*
X10755515Y-14069508D02*
X10774563Y-14059984D01*
X10965039Y-14059984D02*
X10984086Y-14059984D01*
X10984086Y-14059984D02*
X11003134Y-14069508D01*
X11003134Y-14069508D02*
X11012658Y-14079031D01*
X11012658Y-14079031D02*
X11022182Y-14098079D01*
X11022182Y-14098079D02*
X11031705Y-14136174D01*
X11031705Y-14136174D02*
X11031705Y-14183793D01*
X11031705Y-14183793D02*
X11022182Y-14221888D01*
X11022182Y-14221888D02*
X11012658Y-14240936D01*
X11012658Y-14240936D02*
X11003134Y-14250460D01*
X11003134Y-14250460D02*
X10984086Y-14259984D01*
X10984086Y-14259984D02*
X10965039Y-14259984D01*
X10965039Y-14259984D02*
X10945991Y-14250460D01*
X10945991Y-14250460D02*
X10936467Y-14240936D01*
X10936467Y-14240936D02*
X10926944Y-14221888D01*
X10926944Y-14221888D02*
X10917420Y-14183793D01*
X10917420Y-14183793D02*
X10917420Y-14136174D01*
X10917420Y-14136174D02*
X10926944Y-14098079D01*
X10926944Y-14098079D02*
X10936467Y-14079031D01*
X10936467Y-14079031D02*
X10945991Y-14069508D01*
X10945991Y-14069508D02*
X10965039Y-14059984D01*
X11117420Y-14259984D02*
X11117420Y-14126650D01*
X11117420Y-14145698D02*
X11126944Y-14136174D01*
X11126944Y-14136174D02*
X11145991Y-14126650D01*
X11145991Y-14126650D02*
X11174563Y-14126650D01*
X11174563Y-14126650D02*
X11193610Y-14136174D01*
X11193610Y-14136174D02*
X11203134Y-14155222D01*
X11203134Y-14155222D02*
X11203134Y-14259984D01*
X11203134Y-14155222D02*
X11212658Y-14136174D01*
X11212658Y-14136174D02*
X11231705Y-14126650D01*
X11231705Y-14126650D02*
X11260277Y-14126650D01*
X11260277Y-14126650D02*
X11279324Y-14136174D01*
X11279324Y-14136174D02*
X11288848Y-14155222D01*
X11288848Y-14155222D02*
X11288848Y-14259984D01*
X11384086Y-14259984D02*
X11384086Y-14126650D01*
X11384086Y-14145698D02*
X11393610Y-14136174D01*
X11393610Y-14136174D02*
X11412658Y-14126650D01*
X11412658Y-14126650D02*
X11441229Y-14126650D01*
X11441229Y-14126650D02*
X11460277Y-14136174D01*
X11460277Y-14136174D02*
X11469801Y-14155222D01*
X11469801Y-14155222D02*
X11469801Y-14259984D01*
X11469801Y-14155222D02*
X11479324Y-14136174D01*
X11479324Y-14136174D02*
X11498372Y-14126650D01*
X11498372Y-14126650D02*
X11526943Y-14126650D01*
X11526943Y-14126650D02*
X11545991Y-14136174D01*
X11545991Y-14136174D02*
X11555515Y-14155222D01*
X11555515Y-14155222D02*
X11555515Y-14259984D01*
X11945991Y-14050460D02*
X11774563Y-14307603D01*
X12203134Y-14059984D02*
X12222182Y-14059984D01*
X12222182Y-14059984D02*
X12241229Y-14069508D01*
X12241229Y-14069508D02*
X12250753Y-14079031D01*
X12250753Y-14079031D02*
X12260277Y-14098079D01*
X12260277Y-14098079D02*
X12269801Y-14136174D01*
X12269801Y-14136174D02*
X12269801Y-14183793D01*
X12269801Y-14183793D02*
X12260277Y-14221888D01*
X12260277Y-14221888D02*
X12250753Y-14240936D01*
X12250753Y-14240936D02*
X12241229Y-14250460D01*
X12241229Y-14250460D02*
X12222182Y-14259984D01*
X12222182Y-14259984D02*
X12203134Y-14259984D01*
X12203134Y-14259984D02*
X12184086Y-14250460D01*
X12184086Y-14250460D02*
X12174563Y-14240936D01*
X12174563Y-14240936D02*
X12165039Y-14221888D01*
X12165039Y-14221888D02*
X12155515Y-14183793D01*
X12155515Y-14183793D02*
X12155515Y-14136174D01*
X12155515Y-14136174D02*
X12165039Y-14098079D01*
X12165039Y-14098079D02*
X12174563Y-14079031D01*
X12174563Y-14079031D02*
X12184086Y-14069508D01*
X12184086Y-14069508D02*
X12203134Y-14059984D01*
X12355515Y-14240936D02*
X12365039Y-14250460D01*
X12365039Y-14250460D02*
X12355515Y-14259984D01*
X12355515Y-14259984D02*
X12345991Y-14250460D01*
X12345991Y-14250460D02*
X12355515Y-14240936D01*
X12355515Y-14240936D02*
X12355515Y-14259984D01*
X12488848Y-14059984D02*
X12507896Y-14059984D01*
X12507896Y-14059984D02*
X12526944Y-14069508D01*
X12526944Y-14069508D02*
X12536467Y-14079031D01*
X12536467Y-14079031D02*
X12545991Y-14098079D01*
X12545991Y-14098079D02*
X12555515Y-14136174D01*
X12555515Y-14136174D02*
X12555515Y-14183793D01*
X12555515Y-14183793D02*
X12545991Y-14221888D01*
X12545991Y-14221888D02*
X12536467Y-14240936D01*
X12536467Y-14240936D02*
X12526944Y-14250460D01*
X12526944Y-14250460D02*
X12507896Y-14259984D01*
X12507896Y-14259984D02*
X12488848Y-14259984D01*
X12488848Y-14259984D02*
X12469801Y-14250460D01*
X12469801Y-14250460D02*
X12460277Y-14240936D01*
X12460277Y-14240936D02*
X12450753Y-14221888D01*
X12450753Y-14221888D02*
X12441229Y-14183793D01*
X12441229Y-14183793D02*
X12441229Y-14136174D01*
X12441229Y-14136174D02*
X12450753Y-14098079D01*
X12450753Y-14098079D02*
X12460277Y-14079031D01*
X12460277Y-14079031D02*
X12469801Y-14069508D01*
X12469801Y-14069508D02*
X12488848Y-14059984D01*
X12631706Y-14079031D02*
X12641229Y-14069508D01*
X12641229Y-14069508D02*
X12660277Y-14059984D01*
X12660277Y-14059984D02*
X12707896Y-14059984D01*
X12707896Y-14059984D02*
X12726944Y-14069508D01*
X12726944Y-14069508D02*
X12736467Y-14079031D01*
X12736467Y-14079031D02*
X12745991Y-14098079D01*
X12745991Y-14098079D02*
X12745991Y-14117127D01*
X12745991Y-14117127D02*
X12736467Y-14145698D01*
X12736467Y-14145698D02*
X12622182Y-14259984D01*
X12622182Y-14259984D02*
X12745991Y-14259984D01*
X12812658Y-14059984D02*
X12936467Y-14059984D01*
X12936467Y-14059984D02*
X12869801Y-14136174D01*
X12869801Y-14136174D02*
X12898372Y-14136174D01*
X12898372Y-14136174D02*
X12917420Y-14145698D01*
X12917420Y-14145698D02*
X12926944Y-14155222D01*
X12926944Y-14155222D02*
X12936467Y-14174269D01*
X12936467Y-14174269D02*
X12936467Y-14221888D01*
X12936467Y-14221888D02*
X12926944Y-14240936D01*
X12926944Y-14240936D02*
X12917420Y-14250460D01*
X12917420Y-14250460D02*
X12898372Y-14259984D01*
X12898372Y-14259984D02*
X12841229Y-14259984D01*
X12841229Y-14259984D02*
X12822182Y-14250460D01*
X12822182Y-14250460D02*
X12812658Y-14240936D01*
X13107896Y-14059984D02*
X13069801Y-14059984D01*
X13069801Y-14059984D02*
X13050753Y-14069508D01*
X13050753Y-14069508D02*
X13041229Y-14079031D01*
X13041229Y-14079031D02*
X13022182Y-14107603D01*
X13022182Y-14107603D02*
X13012658Y-14145698D01*
X13012658Y-14145698D02*
X13012658Y-14221888D01*
X13012658Y-14221888D02*
X13022182Y-14240936D01*
X13022182Y-14240936D02*
X13031706Y-14250460D01*
X13031706Y-14250460D02*
X13050753Y-14259984D01*
X13050753Y-14259984D02*
X13088848Y-14259984D01*
X13088848Y-14259984D02*
X13107896Y-14250460D01*
X13107896Y-14250460D02*
X13117420Y-14240936D01*
X13117420Y-14240936D02*
X13126944Y-14221888D01*
X13126944Y-14221888D02*
X13126944Y-14174269D01*
X13126944Y-14174269D02*
X13117420Y-14155222D01*
X13117420Y-14155222D02*
X13107896Y-14145698D01*
X13107896Y-14145698D02*
X13088848Y-14136174D01*
X13088848Y-14136174D02*
X13050753Y-14136174D01*
X13050753Y-14136174D02*
X13031706Y-14145698D01*
X13031706Y-14145698D02*
X13022182Y-14155222D01*
X13022182Y-14155222D02*
X13012658Y-14174269D01*
X13203134Y-14059984D02*
X13203134Y-14098079D01*
X13279325Y-14059984D02*
X13279325Y-14098079D01*
X13574563Y-14336174D02*
X13565039Y-14326650D01*
X13565039Y-14326650D02*
X13545991Y-14298079D01*
X13545991Y-14298079D02*
X13536468Y-14279031D01*
X13536468Y-14279031D02*
X13526944Y-14250460D01*
X13526944Y-14250460D02*
X13517420Y-14202841D01*
X13517420Y-14202841D02*
X13517420Y-14164746D01*
X13517420Y-14164746D02*
X13526944Y-14117127D01*
X13526944Y-14117127D02*
X13536468Y-14088555D01*
X13536468Y-14088555D02*
X13545991Y-14069508D01*
X13545991Y-14069508D02*
X13565039Y-14040936D01*
X13565039Y-14040936D02*
X13574563Y-14031412D01*
X13688848Y-14059984D02*
X13707896Y-14059984D01*
X13707896Y-14059984D02*
X13726944Y-14069508D01*
X13726944Y-14069508D02*
X13736468Y-14079031D01*
X13736468Y-14079031D02*
X13745991Y-14098079D01*
X13745991Y-14098079D02*
X13755515Y-14136174D01*
X13755515Y-14136174D02*
X13755515Y-14183793D01*
X13755515Y-14183793D02*
X13745991Y-14221888D01*
X13745991Y-14221888D02*
X13736468Y-14240936D01*
X13736468Y-14240936D02*
X13726944Y-14250460D01*
X13726944Y-14250460D02*
X13707896Y-14259984D01*
X13707896Y-14259984D02*
X13688848Y-14259984D01*
X13688848Y-14259984D02*
X13669801Y-14250460D01*
X13669801Y-14250460D02*
X13660277Y-14240936D01*
X13660277Y-14240936D02*
X13650753Y-14221888D01*
X13650753Y-14221888D02*
X13641229Y-14183793D01*
X13641229Y-14183793D02*
X13641229Y-14136174D01*
X13641229Y-14136174D02*
X13650753Y-14098079D01*
X13650753Y-14098079D02*
X13660277Y-14079031D01*
X13660277Y-14079031D02*
X13669801Y-14069508D01*
X13669801Y-14069508D02*
X13688848Y-14059984D01*
X13993610Y-14259984D02*
X13993610Y-14059984D01*
X14079325Y-14259984D02*
X14079325Y-14155222D01*
X14079325Y-14155222D02*
X14069801Y-14136174D01*
X14069801Y-14136174D02*
X14050753Y-14126650D01*
X14050753Y-14126650D02*
X14022182Y-14126650D01*
X14022182Y-14126650D02*
X14003134Y-14136174D01*
X14003134Y-14136174D02*
X13993610Y-14145698D01*
X14203134Y-14259984D02*
X14184087Y-14250460D01*
X14184087Y-14250460D02*
X14174563Y-14240936D01*
X14174563Y-14240936D02*
X14165039Y-14221888D01*
X14165039Y-14221888D02*
X14165039Y-14164746D01*
X14165039Y-14164746D02*
X14174563Y-14145698D01*
X14174563Y-14145698D02*
X14184087Y-14136174D01*
X14184087Y-14136174D02*
X14203134Y-14126650D01*
X14203134Y-14126650D02*
X14231706Y-14126650D01*
X14231706Y-14126650D02*
X14250753Y-14136174D01*
X14250753Y-14136174D02*
X14260277Y-14145698D01*
X14260277Y-14145698D02*
X14269801Y-14164746D01*
X14269801Y-14164746D02*
X14269801Y-14221888D01*
X14269801Y-14221888D02*
X14260277Y-14240936D01*
X14260277Y-14240936D02*
X14250753Y-14250460D01*
X14250753Y-14250460D02*
X14231706Y-14259984D01*
X14231706Y-14259984D02*
X14203134Y-14259984D01*
X14384087Y-14259984D02*
X14365039Y-14250460D01*
X14365039Y-14250460D02*
X14355515Y-14231412D01*
X14355515Y-14231412D02*
X14355515Y-14059984D01*
X14536468Y-14250460D02*
X14517420Y-14259984D01*
X14517420Y-14259984D02*
X14479325Y-14259984D01*
X14479325Y-14259984D02*
X14460277Y-14250460D01*
X14460277Y-14250460D02*
X14450753Y-14231412D01*
X14450753Y-14231412D02*
X14450753Y-14155222D01*
X14450753Y-14155222D02*
X14460277Y-14136174D01*
X14460277Y-14136174D02*
X14479325Y-14126650D01*
X14479325Y-14126650D02*
X14517420Y-14126650D01*
X14517420Y-14126650D02*
X14536468Y-14136174D01*
X14536468Y-14136174D02*
X14545991Y-14155222D01*
X14545991Y-14155222D02*
X14545991Y-14174269D01*
X14545991Y-14174269D02*
X14450753Y-14193317D01*
X14622182Y-14250460D02*
X14641230Y-14259984D01*
X14641230Y-14259984D02*
X14679325Y-14259984D01*
X14679325Y-14259984D02*
X14698372Y-14250460D01*
X14698372Y-14250460D02*
X14707896Y-14231412D01*
X14707896Y-14231412D02*
X14707896Y-14221888D01*
X14707896Y-14221888D02*
X14698372Y-14202841D01*
X14698372Y-14202841D02*
X14679325Y-14193317D01*
X14679325Y-14193317D02*
X14650753Y-14193317D01*
X14650753Y-14193317D02*
X14631706Y-14183793D01*
X14631706Y-14183793D02*
X14622182Y-14164746D01*
X14622182Y-14164746D02*
X14622182Y-14155222D01*
X14622182Y-14155222D02*
X14631706Y-14136174D01*
X14631706Y-14136174D02*
X14650753Y-14126650D01*
X14650753Y-14126650D02*
X14679325Y-14126650D01*
X14679325Y-14126650D02*
X14698372Y-14136174D01*
X14945992Y-14183793D02*
X15098373Y-14183793D01*
X15022182Y-14259984D02*
X15022182Y-14107603D01*
X15431706Y-14126650D02*
X15431706Y-14259984D01*
X15384087Y-14050460D02*
X15336468Y-14193317D01*
X15336468Y-14193317D02*
X15460277Y-14193317D01*
X15679325Y-14250460D02*
X15698373Y-14259984D01*
X15698373Y-14259984D02*
X15736468Y-14259984D01*
X15736468Y-14259984D02*
X15755515Y-14250460D01*
X15755515Y-14250460D02*
X15765039Y-14231412D01*
X15765039Y-14231412D02*
X15765039Y-14221888D01*
X15765039Y-14221888D02*
X15755515Y-14202841D01*
X15755515Y-14202841D02*
X15736468Y-14193317D01*
X15736468Y-14193317D02*
X15707896Y-14193317D01*
X15707896Y-14193317D02*
X15688849Y-14183793D01*
X15688849Y-14183793D02*
X15679325Y-14164746D01*
X15679325Y-14164746D02*
X15679325Y-14155222D01*
X15679325Y-14155222D02*
X15688849Y-14136174D01*
X15688849Y-14136174D02*
X15707896Y-14126650D01*
X15707896Y-14126650D02*
X15736468Y-14126650D01*
X15736468Y-14126650D02*
X15755515Y-14136174D01*
X15879325Y-14259984D02*
X15860277Y-14250460D01*
X15860277Y-14250460D02*
X15850754Y-14231412D01*
X15850754Y-14231412D02*
X15850754Y-14059984D01*
X15984087Y-14259984D02*
X15965039Y-14250460D01*
X15965039Y-14250460D02*
X15955515Y-14240936D01*
X15955515Y-14240936D02*
X15945992Y-14221888D01*
X15945992Y-14221888D02*
X15945992Y-14164746D01*
X15945992Y-14164746D02*
X15955515Y-14145698D01*
X15955515Y-14145698D02*
X15965039Y-14136174D01*
X15965039Y-14136174D02*
X15984087Y-14126650D01*
X15984087Y-14126650D02*
X16012658Y-14126650D01*
X16012658Y-14126650D02*
X16031706Y-14136174D01*
X16031706Y-14136174D02*
X16041230Y-14145698D01*
X16041230Y-14145698D02*
X16050754Y-14164746D01*
X16050754Y-14164746D02*
X16050754Y-14221888D01*
X16050754Y-14221888D02*
X16041230Y-14240936D01*
X16041230Y-14240936D02*
X16031706Y-14250460D01*
X16031706Y-14250460D02*
X16012658Y-14259984D01*
X16012658Y-14259984D02*
X15984087Y-14259984D01*
X16107896Y-14126650D02*
X16184087Y-14126650D01*
X16136468Y-14059984D02*
X16136468Y-14231412D01*
X16136468Y-14231412D02*
X16145992Y-14250460D01*
X16145992Y-14250460D02*
X16165039Y-14259984D01*
X16165039Y-14259984D02*
X16184087Y-14259984D01*
X16241230Y-14250460D02*
X16260277Y-14259984D01*
X16260277Y-14259984D02*
X16298373Y-14259984D01*
X16298373Y-14259984D02*
X16317420Y-14250460D01*
X16317420Y-14250460D02*
X16326944Y-14231412D01*
X16326944Y-14231412D02*
X16326944Y-14221888D01*
X16326944Y-14221888D02*
X16317420Y-14202841D01*
X16317420Y-14202841D02*
X16298373Y-14193317D01*
X16298373Y-14193317D02*
X16269801Y-14193317D01*
X16269801Y-14193317D02*
X16250754Y-14183793D01*
X16250754Y-14183793D02*
X16241230Y-14164746D01*
X16241230Y-14164746D02*
X16241230Y-14155222D01*
X16241230Y-14155222D02*
X16250754Y-14136174D01*
X16250754Y-14136174D02*
X16269801Y-14126650D01*
X16269801Y-14126650D02*
X16298373Y-14126650D01*
X16298373Y-14126650D02*
X16317420Y-14136174D01*
X16393611Y-14336174D02*
X16403135Y-14326650D01*
X16403135Y-14326650D02*
X16422182Y-14298079D01*
X16422182Y-14298079D02*
X16431706Y-14279031D01*
X16431706Y-14279031D02*
X16441230Y-14250460D01*
X16441230Y-14250460D02*
X16450754Y-14202841D01*
X16450754Y-14202841D02*
X16450754Y-14164746D01*
X16450754Y-14164746D02*
X16441230Y-14117127D01*
X16441230Y-14117127D02*
X16431706Y-14088555D01*
X16431706Y-14088555D02*
X16422182Y-14069508D01*
X16422182Y-14069508D02*
X16403135Y-14040936D01*
X16403135Y-14040936D02*
X16393611Y-14031412D01*
D12*
X9989249Y-14457249D02*
X9989249Y-14407751D01*
X9939751Y-14407751D01*
X9939751Y-14457249D01*
X9989249Y-14457249D01*
D11*
X10298372Y-14323984D02*
X10317420Y-14323984D01*
X10317420Y-14323984D02*
X10336467Y-14333508D01*
X10336467Y-14333508D02*
X10345991Y-14343031D01*
X10345991Y-14343031D02*
X10355515Y-14362079D01*
X10355515Y-14362079D02*
X10365039Y-14400174D01*
X10365039Y-14400174D02*
X10365039Y-14447793D01*
X10365039Y-14447793D02*
X10355515Y-14485888D01*
X10355515Y-14485888D02*
X10345991Y-14504936D01*
X10345991Y-14504936D02*
X10336467Y-14514460D01*
X10336467Y-14514460D02*
X10317420Y-14523984D01*
X10317420Y-14523984D02*
X10298372Y-14523984D01*
X10298372Y-14523984D02*
X10279324Y-14514460D01*
X10279324Y-14514460D02*
X10269801Y-14504936D01*
X10269801Y-14504936D02*
X10260277Y-14485888D01*
X10260277Y-14485888D02*
X10250753Y-14447793D01*
X10250753Y-14447793D02*
X10250753Y-14400174D01*
X10250753Y-14400174D02*
X10260277Y-14362079D01*
X10260277Y-14362079D02*
X10269801Y-14343031D01*
X10269801Y-14343031D02*
X10279324Y-14333508D01*
X10279324Y-14333508D02*
X10298372Y-14323984D01*
X10450753Y-14504936D02*
X10460277Y-14514460D01*
X10460277Y-14514460D02*
X10450753Y-14523984D01*
X10450753Y-14523984D02*
X10441229Y-14514460D01*
X10441229Y-14514460D02*
X10450753Y-14504936D01*
X10450753Y-14504936D02*
X10450753Y-14523984D01*
X10526944Y-14323984D02*
X10660277Y-14323984D01*
X10660277Y-14323984D02*
X10574563Y-14523984D01*
X10774563Y-14323984D02*
X10793610Y-14323984D01*
X10793610Y-14323984D02*
X10812658Y-14333508D01*
X10812658Y-14333508D02*
X10822182Y-14343031D01*
X10822182Y-14343031D02*
X10831705Y-14362079D01*
X10831705Y-14362079D02*
X10841229Y-14400174D01*
X10841229Y-14400174D02*
X10841229Y-14447793D01*
X10841229Y-14447793D02*
X10831705Y-14485888D01*
X10831705Y-14485888D02*
X10822182Y-14504936D01*
X10822182Y-14504936D02*
X10812658Y-14514460D01*
X10812658Y-14514460D02*
X10793610Y-14523984D01*
X10793610Y-14523984D02*
X10774563Y-14523984D01*
X10774563Y-14523984D02*
X10755515Y-14514460D01*
X10755515Y-14514460D02*
X10745991Y-14504936D01*
X10745991Y-14504936D02*
X10736467Y-14485888D01*
X10736467Y-14485888D02*
X10726944Y-14447793D01*
X10726944Y-14447793D02*
X10726944Y-14400174D01*
X10726944Y-14400174D02*
X10736467Y-14362079D01*
X10736467Y-14362079D02*
X10745991Y-14343031D01*
X10745991Y-14343031D02*
X10755515Y-14333508D01*
X10755515Y-14333508D02*
X10774563Y-14323984D01*
X10965039Y-14323984D02*
X10984086Y-14323984D01*
X10984086Y-14323984D02*
X11003134Y-14333508D01*
X11003134Y-14333508D02*
X11012658Y-14343031D01*
X11012658Y-14343031D02*
X11022182Y-14362079D01*
X11022182Y-14362079D02*
X11031705Y-14400174D01*
X11031705Y-14400174D02*
X11031705Y-14447793D01*
X11031705Y-14447793D02*
X11022182Y-14485888D01*
X11022182Y-14485888D02*
X11012658Y-14504936D01*
X11012658Y-14504936D02*
X11003134Y-14514460D01*
X11003134Y-14514460D02*
X10984086Y-14523984D01*
X10984086Y-14523984D02*
X10965039Y-14523984D01*
X10965039Y-14523984D02*
X10945991Y-14514460D01*
X10945991Y-14514460D02*
X10936467Y-14504936D01*
X10936467Y-14504936D02*
X10926944Y-14485888D01*
X10926944Y-14485888D02*
X10917420Y-14447793D01*
X10917420Y-14447793D02*
X10917420Y-14400174D01*
X10917420Y-14400174D02*
X10926944Y-14362079D01*
X10926944Y-14362079D02*
X10936467Y-14343031D01*
X10936467Y-14343031D02*
X10945991Y-14333508D01*
X10945991Y-14333508D02*
X10965039Y-14323984D01*
X11117420Y-14523984D02*
X11117420Y-14390650D01*
X11117420Y-14409698D02*
X11126944Y-14400174D01*
X11126944Y-14400174D02*
X11145991Y-14390650D01*
X11145991Y-14390650D02*
X11174563Y-14390650D01*
X11174563Y-14390650D02*
X11193610Y-14400174D01*
X11193610Y-14400174D02*
X11203134Y-14419222D01*
X11203134Y-14419222D02*
X11203134Y-14523984D01*
X11203134Y-14419222D02*
X11212658Y-14400174D01*
X11212658Y-14400174D02*
X11231705Y-14390650D01*
X11231705Y-14390650D02*
X11260277Y-14390650D01*
X11260277Y-14390650D02*
X11279324Y-14400174D01*
X11279324Y-14400174D02*
X11288848Y-14419222D01*
X11288848Y-14419222D02*
X11288848Y-14523984D01*
X11384086Y-14523984D02*
X11384086Y-14390650D01*
X11384086Y-14409698D02*
X11393610Y-14400174D01*
X11393610Y-14400174D02*
X11412658Y-14390650D01*
X11412658Y-14390650D02*
X11441229Y-14390650D01*
X11441229Y-14390650D02*
X11460277Y-14400174D01*
X11460277Y-14400174D02*
X11469801Y-14419222D01*
X11469801Y-14419222D02*
X11469801Y-14523984D01*
X11469801Y-14419222D02*
X11479324Y-14400174D01*
X11479324Y-14400174D02*
X11498372Y-14390650D01*
X11498372Y-14390650D02*
X11526943Y-14390650D01*
X11526943Y-14390650D02*
X11545991Y-14400174D01*
X11545991Y-14400174D02*
X11555515Y-14419222D01*
X11555515Y-14419222D02*
X11555515Y-14523984D01*
X11945991Y-14314460D02*
X11774563Y-14571603D01*
X12203134Y-14323984D02*
X12222182Y-14323984D01*
X12222182Y-14323984D02*
X12241229Y-14333508D01*
X12241229Y-14333508D02*
X12250753Y-14343031D01*
X12250753Y-14343031D02*
X12260277Y-14362079D01*
X12260277Y-14362079D02*
X12269801Y-14400174D01*
X12269801Y-14400174D02*
X12269801Y-14447793D01*
X12269801Y-14447793D02*
X12260277Y-14485888D01*
X12260277Y-14485888D02*
X12250753Y-14504936D01*
X12250753Y-14504936D02*
X12241229Y-14514460D01*
X12241229Y-14514460D02*
X12222182Y-14523984D01*
X12222182Y-14523984D02*
X12203134Y-14523984D01*
X12203134Y-14523984D02*
X12184086Y-14514460D01*
X12184086Y-14514460D02*
X12174563Y-14504936D01*
X12174563Y-14504936D02*
X12165039Y-14485888D01*
X12165039Y-14485888D02*
X12155515Y-14447793D01*
X12155515Y-14447793D02*
X12155515Y-14400174D01*
X12155515Y-14400174D02*
X12165039Y-14362079D01*
X12165039Y-14362079D02*
X12174563Y-14343031D01*
X12174563Y-14343031D02*
X12184086Y-14333508D01*
X12184086Y-14333508D02*
X12203134Y-14323984D01*
X12355515Y-14504936D02*
X12365039Y-14514460D01*
X12365039Y-14514460D02*
X12355515Y-14523984D01*
X12355515Y-14523984D02*
X12345991Y-14514460D01*
X12345991Y-14514460D02*
X12355515Y-14504936D01*
X12355515Y-14504936D02*
X12355515Y-14523984D01*
X12488848Y-14323984D02*
X12507896Y-14323984D01*
X12507896Y-14323984D02*
X12526944Y-14333508D01*
X12526944Y-14333508D02*
X12536467Y-14343031D01*
X12536467Y-14343031D02*
X12545991Y-14362079D01*
X12545991Y-14362079D02*
X12555515Y-14400174D01*
X12555515Y-14400174D02*
X12555515Y-14447793D01*
X12555515Y-14447793D02*
X12545991Y-14485888D01*
X12545991Y-14485888D02*
X12536467Y-14504936D01*
X12536467Y-14504936D02*
X12526944Y-14514460D01*
X12526944Y-14514460D02*
X12507896Y-14523984D01*
X12507896Y-14523984D02*
X12488848Y-14523984D01*
X12488848Y-14523984D02*
X12469801Y-14514460D01*
X12469801Y-14514460D02*
X12460277Y-14504936D01*
X12460277Y-14504936D02*
X12450753Y-14485888D01*
X12450753Y-14485888D02*
X12441229Y-14447793D01*
X12441229Y-14447793D02*
X12441229Y-14400174D01*
X12441229Y-14400174D02*
X12450753Y-14362079D01*
X12450753Y-14362079D02*
X12460277Y-14343031D01*
X12460277Y-14343031D02*
X12469801Y-14333508D01*
X12469801Y-14333508D02*
X12488848Y-14323984D01*
X12631706Y-14343031D02*
X12641229Y-14333508D01*
X12641229Y-14333508D02*
X12660277Y-14323984D01*
X12660277Y-14323984D02*
X12707896Y-14323984D01*
X12707896Y-14323984D02*
X12726944Y-14333508D01*
X12726944Y-14333508D02*
X12736467Y-14343031D01*
X12736467Y-14343031D02*
X12745991Y-14362079D01*
X12745991Y-14362079D02*
X12745991Y-14381127D01*
X12745991Y-14381127D02*
X12736467Y-14409698D01*
X12736467Y-14409698D02*
X12622182Y-14523984D01*
X12622182Y-14523984D02*
X12745991Y-14523984D01*
X12812658Y-14323984D02*
X12945991Y-14323984D01*
X12945991Y-14323984D02*
X12860277Y-14523984D01*
X13107896Y-14323984D02*
X13069801Y-14323984D01*
X13069801Y-14323984D02*
X13050753Y-14333508D01*
X13050753Y-14333508D02*
X13041229Y-14343031D01*
X13041229Y-14343031D02*
X13022182Y-14371603D01*
X13022182Y-14371603D02*
X13012658Y-14409698D01*
X13012658Y-14409698D02*
X13012658Y-14485888D01*
X13012658Y-14485888D02*
X13022182Y-14504936D01*
X13022182Y-14504936D02*
X13031706Y-14514460D01*
X13031706Y-14514460D02*
X13050753Y-14523984D01*
X13050753Y-14523984D02*
X13088848Y-14523984D01*
X13088848Y-14523984D02*
X13107896Y-14514460D01*
X13107896Y-14514460D02*
X13117420Y-14504936D01*
X13117420Y-14504936D02*
X13126944Y-14485888D01*
X13126944Y-14485888D02*
X13126944Y-14438269D01*
X13126944Y-14438269D02*
X13117420Y-14419222D01*
X13117420Y-14419222D02*
X13107896Y-14409698D01*
X13107896Y-14409698D02*
X13088848Y-14400174D01*
X13088848Y-14400174D02*
X13050753Y-14400174D01*
X13050753Y-14400174D02*
X13031706Y-14409698D01*
X13031706Y-14409698D02*
X13022182Y-14419222D01*
X13022182Y-14419222D02*
X13012658Y-14438269D01*
X13203134Y-14323984D02*
X13203134Y-14362079D01*
X13279325Y-14323984D02*
X13279325Y-14362079D01*
X13574563Y-14600174D02*
X13565039Y-14590650D01*
X13565039Y-14590650D02*
X13545991Y-14562079D01*
X13545991Y-14562079D02*
X13536468Y-14543031D01*
X13536468Y-14543031D02*
X13526944Y-14514460D01*
X13526944Y-14514460D02*
X13517420Y-14466841D01*
X13517420Y-14466841D02*
X13517420Y-14428746D01*
X13517420Y-14428746D02*
X13526944Y-14381127D01*
X13526944Y-14381127D02*
X13536468Y-14352555D01*
X13536468Y-14352555D02*
X13545991Y-14333508D01*
X13545991Y-14333508D02*
X13565039Y-14304936D01*
X13565039Y-14304936D02*
X13574563Y-14295412D01*
X13641229Y-14343031D02*
X13650753Y-14333508D01*
X13650753Y-14333508D02*
X13669801Y-14323984D01*
X13669801Y-14323984D02*
X13717420Y-14323984D01*
X13717420Y-14323984D02*
X13736468Y-14333508D01*
X13736468Y-14333508D02*
X13745991Y-14343031D01*
X13745991Y-14343031D02*
X13755515Y-14362079D01*
X13755515Y-14362079D02*
X13755515Y-14381127D01*
X13755515Y-14381127D02*
X13745991Y-14409698D01*
X13745991Y-14409698D02*
X13631706Y-14523984D01*
X13631706Y-14523984D02*
X13755515Y-14523984D01*
X13993610Y-14523984D02*
X13993610Y-14323984D01*
X14079325Y-14523984D02*
X14079325Y-14419222D01*
X14079325Y-14419222D02*
X14069801Y-14400174D01*
X14069801Y-14400174D02*
X14050753Y-14390650D01*
X14050753Y-14390650D02*
X14022182Y-14390650D01*
X14022182Y-14390650D02*
X14003134Y-14400174D01*
X14003134Y-14400174D02*
X13993610Y-14409698D01*
X14203134Y-14523984D02*
X14184087Y-14514460D01*
X14184087Y-14514460D02*
X14174563Y-14504936D01*
X14174563Y-14504936D02*
X14165039Y-14485888D01*
X14165039Y-14485888D02*
X14165039Y-14428746D01*
X14165039Y-14428746D02*
X14174563Y-14409698D01*
X14174563Y-14409698D02*
X14184087Y-14400174D01*
X14184087Y-14400174D02*
X14203134Y-14390650D01*
X14203134Y-14390650D02*
X14231706Y-14390650D01*
X14231706Y-14390650D02*
X14250753Y-14400174D01*
X14250753Y-14400174D02*
X14260277Y-14409698D01*
X14260277Y-14409698D02*
X14269801Y-14428746D01*
X14269801Y-14428746D02*
X14269801Y-14485888D01*
X14269801Y-14485888D02*
X14260277Y-14504936D01*
X14260277Y-14504936D02*
X14250753Y-14514460D01*
X14250753Y-14514460D02*
X14231706Y-14523984D01*
X14231706Y-14523984D02*
X14203134Y-14523984D01*
X14384087Y-14523984D02*
X14365039Y-14514460D01*
X14365039Y-14514460D02*
X14355515Y-14495412D01*
X14355515Y-14495412D02*
X14355515Y-14323984D01*
X14536468Y-14514460D02*
X14517420Y-14523984D01*
X14517420Y-14523984D02*
X14479325Y-14523984D01*
X14479325Y-14523984D02*
X14460277Y-14514460D01*
X14460277Y-14514460D02*
X14450753Y-14495412D01*
X14450753Y-14495412D02*
X14450753Y-14419222D01*
X14450753Y-14419222D02*
X14460277Y-14400174D01*
X14460277Y-14400174D02*
X14479325Y-14390650D01*
X14479325Y-14390650D02*
X14517420Y-14390650D01*
X14517420Y-14390650D02*
X14536468Y-14400174D01*
X14536468Y-14400174D02*
X14545991Y-14419222D01*
X14545991Y-14419222D02*
X14545991Y-14438269D01*
X14545991Y-14438269D02*
X14450753Y-14457317D01*
X14622182Y-14514460D02*
X14641230Y-14523984D01*
X14641230Y-14523984D02*
X14679325Y-14523984D01*
X14679325Y-14523984D02*
X14698372Y-14514460D01*
X14698372Y-14514460D02*
X14707896Y-14495412D01*
X14707896Y-14495412D02*
X14707896Y-14485888D01*
X14707896Y-14485888D02*
X14698372Y-14466841D01*
X14698372Y-14466841D02*
X14679325Y-14457317D01*
X14679325Y-14457317D02*
X14650753Y-14457317D01*
X14650753Y-14457317D02*
X14631706Y-14447793D01*
X14631706Y-14447793D02*
X14622182Y-14428746D01*
X14622182Y-14428746D02*
X14622182Y-14419222D01*
X14622182Y-14419222D02*
X14631706Y-14400174D01*
X14631706Y-14400174D02*
X14650753Y-14390650D01*
X14650753Y-14390650D02*
X14679325Y-14390650D01*
X14679325Y-14390650D02*
X14698372Y-14400174D01*
X14774563Y-14600174D02*
X14784087Y-14590650D01*
X14784087Y-14590650D02*
X14803134Y-14562079D01*
X14803134Y-14562079D02*
X14812658Y-14543031D01*
X14812658Y-14543031D02*
X14822182Y-14514460D01*
X14822182Y-14514460D02*
X14831706Y-14466841D01*
X14831706Y-14466841D02*
X14831706Y-14428746D01*
X14831706Y-14428746D02*
X14822182Y-14381127D01*
X14822182Y-14381127D02*
X14812658Y-14352555D01*
X14812658Y-14352555D02*
X14803134Y-14333508D01*
X14803134Y-14333508D02*
X14784087Y-14304936D01*
X14784087Y-14304936D02*
X14774563Y-14295412D01*
D12*
X9959500Y-14736500D02*
X9999500Y-14696500D01*
X9959500Y-14656500D01*
X9919500Y-14696500D01*
X9959500Y-14736500D01*
D11*
X10298372Y-14587984D02*
X10317420Y-14587984D01*
X10317420Y-14587984D02*
X10336467Y-14597508D01*
X10336467Y-14597508D02*
X10345991Y-14607031D01*
X10345991Y-14607031D02*
X10355515Y-14626079D01*
X10355515Y-14626079D02*
X10365039Y-14664174D01*
X10365039Y-14664174D02*
X10365039Y-14711793D01*
X10365039Y-14711793D02*
X10355515Y-14749888D01*
X10355515Y-14749888D02*
X10345991Y-14768936D01*
X10345991Y-14768936D02*
X10336467Y-14778460D01*
X10336467Y-14778460D02*
X10317420Y-14787984D01*
X10317420Y-14787984D02*
X10298372Y-14787984D01*
X10298372Y-14787984D02*
X10279324Y-14778460D01*
X10279324Y-14778460D02*
X10269801Y-14768936D01*
X10269801Y-14768936D02*
X10260277Y-14749888D01*
X10260277Y-14749888D02*
X10250753Y-14711793D01*
X10250753Y-14711793D02*
X10250753Y-14664174D01*
X10250753Y-14664174D02*
X10260277Y-14626079D01*
X10260277Y-14626079D02*
X10269801Y-14607031D01*
X10269801Y-14607031D02*
X10279324Y-14597508D01*
X10279324Y-14597508D02*
X10298372Y-14587984D01*
X10450753Y-14768936D02*
X10460277Y-14778460D01*
X10460277Y-14778460D02*
X10450753Y-14787984D01*
X10450753Y-14787984D02*
X10441229Y-14778460D01*
X10441229Y-14778460D02*
X10450753Y-14768936D01*
X10450753Y-14768936D02*
X10450753Y-14787984D01*
X10574563Y-14673698D02*
X10555515Y-14664174D01*
X10555515Y-14664174D02*
X10545991Y-14654650D01*
X10545991Y-14654650D02*
X10536467Y-14635603D01*
X10536467Y-14635603D02*
X10536467Y-14626079D01*
X10536467Y-14626079D02*
X10545991Y-14607031D01*
X10545991Y-14607031D02*
X10555515Y-14597508D01*
X10555515Y-14597508D02*
X10574563Y-14587984D01*
X10574563Y-14587984D02*
X10612658Y-14587984D01*
X10612658Y-14587984D02*
X10631705Y-14597508D01*
X10631705Y-14597508D02*
X10641229Y-14607031D01*
X10641229Y-14607031D02*
X10650753Y-14626079D01*
X10650753Y-14626079D02*
X10650753Y-14635603D01*
X10650753Y-14635603D02*
X10641229Y-14654650D01*
X10641229Y-14654650D02*
X10631705Y-14664174D01*
X10631705Y-14664174D02*
X10612658Y-14673698D01*
X10612658Y-14673698D02*
X10574563Y-14673698D01*
X10574563Y-14673698D02*
X10555515Y-14683222D01*
X10555515Y-14683222D02*
X10545991Y-14692746D01*
X10545991Y-14692746D02*
X10536467Y-14711793D01*
X10536467Y-14711793D02*
X10536467Y-14749888D01*
X10536467Y-14749888D02*
X10545991Y-14768936D01*
X10545991Y-14768936D02*
X10555515Y-14778460D01*
X10555515Y-14778460D02*
X10574563Y-14787984D01*
X10574563Y-14787984D02*
X10612658Y-14787984D01*
X10612658Y-14787984D02*
X10631705Y-14778460D01*
X10631705Y-14778460D02*
X10641229Y-14768936D01*
X10641229Y-14768936D02*
X10650753Y-14749888D01*
X10650753Y-14749888D02*
X10650753Y-14711793D01*
X10650753Y-14711793D02*
X10641229Y-14692746D01*
X10641229Y-14692746D02*
X10631705Y-14683222D01*
X10631705Y-14683222D02*
X10612658Y-14673698D01*
X10774563Y-14587984D02*
X10793610Y-14587984D01*
X10793610Y-14587984D02*
X10812658Y-14597508D01*
X10812658Y-14597508D02*
X10822182Y-14607031D01*
X10822182Y-14607031D02*
X10831705Y-14626079D01*
X10831705Y-14626079D02*
X10841229Y-14664174D01*
X10841229Y-14664174D02*
X10841229Y-14711793D01*
X10841229Y-14711793D02*
X10831705Y-14749888D01*
X10831705Y-14749888D02*
X10822182Y-14768936D01*
X10822182Y-14768936D02*
X10812658Y-14778460D01*
X10812658Y-14778460D02*
X10793610Y-14787984D01*
X10793610Y-14787984D02*
X10774563Y-14787984D01*
X10774563Y-14787984D02*
X10755515Y-14778460D01*
X10755515Y-14778460D02*
X10745991Y-14768936D01*
X10745991Y-14768936D02*
X10736467Y-14749888D01*
X10736467Y-14749888D02*
X10726944Y-14711793D01*
X10726944Y-14711793D02*
X10726944Y-14664174D01*
X10726944Y-14664174D02*
X10736467Y-14626079D01*
X10736467Y-14626079D02*
X10745991Y-14607031D01*
X10745991Y-14607031D02*
X10755515Y-14597508D01*
X10755515Y-14597508D02*
X10774563Y-14587984D01*
X10965039Y-14587984D02*
X10984086Y-14587984D01*
X10984086Y-14587984D02*
X11003134Y-14597508D01*
X11003134Y-14597508D02*
X11012658Y-14607031D01*
X11012658Y-14607031D02*
X11022182Y-14626079D01*
X11022182Y-14626079D02*
X11031705Y-14664174D01*
X11031705Y-14664174D02*
X11031705Y-14711793D01*
X11031705Y-14711793D02*
X11022182Y-14749888D01*
X11022182Y-14749888D02*
X11012658Y-14768936D01*
X11012658Y-14768936D02*
X11003134Y-14778460D01*
X11003134Y-14778460D02*
X10984086Y-14787984D01*
X10984086Y-14787984D02*
X10965039Y-14787984D01*
X10965039Y-14787984D02*
X10945991Y-14778460D01*
X10945991Y-14778460D02*
X10936467Y-14768936D01*
X10936467Y-14768936D02*
X10926944Y-14749888D01*
X10926944Y-14749888D02*
X10917420Y-14711793D01*
X10917420Y-14711793D02*
X10917420Y-14664174D01*
X10917420Y-14664174D02*
X10926944Y-14626079D01*
X10926944Y-14626079D02*
X10936467Y-14607031D01*
X10936467Y-14607031D02*
X10945991Y-14597508D01*
X10945991Y-14597508D02*
X10965039Y-14587984D01*
X11117420Y-14787984D02*
X11117420Y-14654650D01*
X11117420Y-14673698D02*
X11126944Y-14664174D01*
X11126944Y-14664174D02*
X11145991Y-14654650D01*
X11145991Y-14654650D02*
X11174563Y-14654650D01*
X11174563Y-14654650D02*
X11193610Y-14664174D01*
X11193610Y-14664174D02*
X11203134Y-14683222D01*
X11203134Y-14683222D02*
X11203134Y-14787984D01*
X11203134Y-14683222D02*
X11212658Y-14664174D01*
X11212658Y-14664174D02*
X11231705Y-14654650D01*
X11231705Y-14654650D02*
X11260277Y-14654650D01*
X11260277Y-14654650D02*
X11279324Y-14664174D01*
X11279324Y-14664174D02*
X11288848Y-14683222D01*
X11288848Y-14683222D02*
X11288848Y-14787984D01*
X11384086Y-14787984D02*
X11384086Y-14654650D01*
X11384086Y-14673698D02*
X11393610Y-14664174D01*
X11393610Y-14664174D02*
X11412658Y-14654650D01*
X11412658Y-14654650D02*
X11441229Y-14654650D01*
X11441229Y-14654650D02*
X11460277Y-14664174D01*
X11460277Y-14664174D02*
X11469801Y-14683222D01*
X11469801Y-14683222D02*
X11469801Y-14787984D01*
X11469801Y-14683222D02*
X11479324Y-14664174D01*
X11479324Y-14664174D02*
X11498372Y-14654650D01*
X11498372Y-14654650D02*
X11526943Y-14654650D01*
X11526943Y-14654650D02*
X11545991Y-14664174D01*
X11545991Y-14664174D02*
X11555515Y-14683222D01*
X11555515Y-14683222D02*
X11555515Y-14787984D01*
X11945991Y-14578460D02*
X11774563Y-14835603D01*
X12203134Y-14587984D02*
X12222182Y-14587984D01*
X12222182Y-14587984D02*
X12241229Y-14597508D01*
X12241229Y-14597508D02*
X12250753Y-14607031D01*
X12250753Y-14607031D02*
X12260277Y-14626079D01*
X12260277Y-14626079D02*
X12269801Y-14664174D01*
X12269801Y-14664174D02*
X12269801Y-14711793D01*
X12269801Y-14711793D02*
X12260277Y-14749888D01*
X12260277Y-14749888D02*
X12250753Y-14768936D01*
X12250753Y-14768936D02*
X12241229Y-14778460D01*
X12241229Y-14778460D02*
X12222182Y-14787984D01*
X12222182Y-14787984D02*
X12203134Y-14787984D01*
X12203134Y-14787984D02*
X12184086Y-14778460D01*
X12184086Y-14778460D02*
X12174563Y-14768936D01*
X12174563Y-14768936D02*
X12165039Y-14749888D01*
X12165039Y-14749888D02*
X12155515Y-14711793D01*
X12155515Y-14711793D02*
X12155515Y-14664174D01*
X12155515Y-14664174D02*
X12165039Y-14626079D01*
X12165039Y-14626079D02*
X12174563Y-14607031D01*
X12174563Y-14607031D02*
X12184086Y-14597508D01*
X12184086Y-14597508D02*
X12203134Y-14587984D01*
X12355515Y-14768936D02*
X12365039Y-14778460D01*
X12365039Y-14778460D02*
X12355515Y-14787984D01*
X12355515Y-14787984D02*
X12345991Y-14778460D01*
X12345991Y-14778460D02*
X12355515Y-14768936D01*
X12355515Y-14768936D02*
X12355515Y-14787984D01*
X12488848Y-14587984D02*
X12507896Y-14587984D01*
X12507896Y-14587984D02*
X12526944Y-14597508D01*
X12526944Y-14597508D02*
X12536467Y-14607031D01*
X12536467Y-14607031D02*
X12545991Y-14626079D01*
X12545991Y-14626079D02*
X12555515Y-14664174D01*
X12555515Y-14664174D02*
X12555515Y-14711793D01*
X12555515Y-14711793D02*
X12545991Y-14749888D01*
X12545991Y-14749888D02*
X12536467Y-14768936D01*
X12536467Y-14768936D02*
X12526944Y-14778460D01*
X12526944Y-14778460D02*
X12507896Y-14787984D01*
X12507896Y-14787984D02*
X12488848Y-14787984D01*
X12488848Y-14787984D02*
X12469801Y-14778460D01*
X12469801Y-14778460D02*
X12460277Y-14768936D01*
X12460277Y-14768936D02*
X12450753Y-14749888D01*
X12450753Y-14749888D02*
X12441229Y-14711793D01*
X12441229Y-14711793D02*
X12441229Y-14664174D01*
X12441229Y-14664174D02*
X12450753Y-14626079D01*
X12450753Y-14626079D02*
X12460277Y-14607031D01*
X12460277Y-14607031D02*
X12469801Y-14597508D01*
X12469801Y-14597508D02*
X12488848Y-14587984D01*
X12622182Y-14587984D02*
X12745991Y-14587984D01*
X12745991Y-14587984D02*
X12679325Y-14664174D01*
X12679325Y-14664174D02*
X12707896Y-14664174D01*
X12707896Y-14664174D02*
X12726944Y-14673698D01*
X12726944Y-14673698D02*
X12736467Y-14683222D01*
X12736467Y-14683222D02*
X12745991Y-14702269D01*
X12745991Y-14702269D02*
X12745991Y-14749888D01*
X12745991Y-14749888D02*
X12736467Y-14768936D01*
X12736467Y-14768936D02*
X12726944Y-14778460D01*
X12726944Y-14778460D02*
X12707896Y-14787984D01*
X12707896Y-14787984D02*
X12650753Y-14787984D01*
X12650753Y-14787984D02*
X12631706Y-14778460D01*
X12631706Y-14778460D02*
X12622182Y-14768936D01*
X12936467Y-14787984D02*
X12822182Y-14787984D01*
X12879325Y-14787984D02*
X12879325Y-14587984D01*
X12879325Y-14587984D02*
X12860277Y-14616555D01*
X12860277Y-14616555D02*
X12841229Y-14635603D01*
X12841229Y-14635603D02*
X12822182Y-14645127D01*
X13117420Y-14587984D02*
X13022182Y-14587984D01*
X13022182Y-14587984D02*
X13012658Y-14683222D01*
X13012658Y-14683222D02*
X13022182Y-14673698D01*
X13022182Y-14673698D02*
X13041229Y-14664174D01*
X13041229Y-14664174D02*
X13088848Y-14664174D01*
X13088848Y-14664174D02*
X13107896Y-14673698D01*
X13107896Y-14673698D02*
X13117420Y-14683222D01*
X13117420Y-14683222D02*
X13126944Y-14702269D01*
X13126944Y-14702269D02*
X13126944Y-14749888D01*
X13126944Y-14749888D02*
X13117420Y-14768936D01*
X13117420Y-14768936D02*
X13107896Y-14778460D01*
X13107896Y-14778460D02*
X13088848Y-14787984D01*
X13088848Y-14787984D02*
X13041229Y-14787984D01*
X13041229Y-14787984D02*
X13022182Y-14778460D01*
X13022182Y-14778460D02*
X13012658Y-14768936D01*
X13203134Y-14587984D02*
X13203134Y-14626079D01*
X13279325Y-14587984D02*
X13279325Y-14626079D01*
X13574563Y-14864174D02*
X13565039Y-14854650D01*
X13565039Y-14854650D02*
X13545991Y-14826079D01*
X13545991Y-14826079D02*
X13536468Y-14807031D01*
X13536468Y-14807031D02*
X13526944Y-14778460D01*
X13526944Y-14778460D02*
X13517420Y-14730841D01*
X13517420Y-14730841D02*
X13517420Y-14692746D01*
X13517420Y-14692746D02*
X13526944Y-14645127D01*
X13526944Y-14645127D02*
X13536468Y-14616555D01*
X13536468Y-14616555D02*
X13545991Y-14597508D01*
X13545991Y-14597508D02*
X13565039Y-14568936D01*
X13565039Y-14568936D02*
X13574563Y-14559412D01*
X13736468Y-14654650D02*
X13736468Y-14787984D01*
X13688848Y-14578460D02*
X13641229Y-14721317D01*
X13641229Y-14721317D02*
X13765039Y-14721317D01*
X13993610Y-14787984D02*
X13993610Y-14587984D01*
X14079325Y-14787984D02*
X14079325Y-14683222D01*
X14079325Y-14683222D02*
X14069801Y-14664174D01*
X14069801Y-14664174D02*
X14050753Y-14654650D01*
X14050753Y-14654650D02*
X14022182Y-14654650D01*
X14022182Y-14654650D02*
X14003134Y-14664174D01*
X14003134Y-14664174D02*
X13993610Y-14673698D01*
X14203134Y-14787984D02*
X14184087Y-14778460D01*
X14184087Y-14778460D02*
X14174563Y-14768936D01*
X14174563Y-14768936D02*
X14165039Y-14749888D01*
X14165039Y-14749888D02*
X14165039Y-14692746D01*
X14165039Y-14692746D02*
X14174563Y-14673698D01*
X14174563Y-14673698D02*
X14184087Y-14664174D01*
X14184087Y-14664174D02*
X14203134Y-14654650D01*
X14203134Y-14654650D02*
X14231706Y-14654650D01*
X14231706Y-14654650D02*
X14250753Y-14664174D01*
X14250753Y-14664174D02*
X14260277Y-14673698D01*
X14260277Y-14673698D02*
X14269801Y-14692746D01*
X14269801Y-14692746D02*
X14269801Y-14749888D01*
X14269801Y-14749888D02*
X14260277Y-14768936D01*
X14260277Y-14768936D02*
X14250753Y-14778460D01*
X14250753Y-14778460D02*
X14231706Y-14787984D01*
X14231706Y-14787984D02*
X14203134Y-14787984D01*
X14384087Y-14787984D02*
X14365039Y-14778460D01*
X14365039Y-14778460D02*
X14355515Y-14759412D01*
X14355515Y-14759412D02*
X14355515Y-14587984D01*
X14536468Y-14778460D02*
X14517420Y-14787984D01*
X14517420Y-14787984D02*
X14479325Y-14787984D01*
X14479325Y-14787984D02*
X14460277Y-14778460D01*
X14460277Y-14778460D02*
X14450753Y-14759412D01*
X14450753Y-14759412D02*
X14450753Y-14683222D01*
X14450753Y-14683222D02*
X14460277Y-14664174D01*
X14460277Y-14664174D02*
X14479325Y-14654650D01*
X14479325Y-14654650D02*
X14517420Y-14654650D01*
X14517420Y-14654650D02*
X14536468Y-14664174D01*
X14536468Y-14664174D02*
X14545991Y-14683222D01*
X14545991Y-14683222D02*
X14545991Y-14702269D01*
X14545991Y-14702269D02*
X14450753Y-14721317D01*
X14622182Y-14778460D02*
X14641230Y-14787984D01*
X14641230Y-14787984D02*
X14679325Y-14787984D01*
X14679325Y-14787984D02*
X14698372Y-14778460D01*
X14698372Y-14778460D02*
X14707896Y-14759412D01*
X14707896Y-14759412D02*
X14707896Y-14749888D01*
X14707896Y-14749888D02*
X14698372Y-14730841D01*
X14698372Y-14730841D02*
X14679325Y-14721317D01*
X14679325Y-14721317D02*
X14650753Y-14721317D01*
X14650753Y-14721317D02*
X14631706Y-14711793D01*
X14631706Y-14711793D02*
X14622182Y-14692746D01*
X14622182Y-14692746D02*
X14622182Y-14683222D01*
X14622182Y-14683222D02*
X14631706Y-14664174D01*
X14631706Y-14664174D02*
X14650753Y-14654650D01*
X14650753Y-14654650D02*
X14679325Y-14654650D01*
X14679325Y-14654650D02*
X14698372Y-14664174D01*
X14774563Y-14864174D02*
X14784087Y-14854650D01*
X14784087Y-14854650D02*
X14803134Y-14826079D01*
X14803134Y-14826079D02*
X14812658Y-14807031D01*
X14812658Y-14807031D02*
X14822182Y-14778460D01*
X14822182Y-14778460D02*
X14831706Y-14730841D01*
X14831706Y-14730841D02*
X14831706Y-14692746D01*
X14831706Y-14692746D02*
X14822182Y-14645127D01*
X14822182Y-14645127D02*
X14812658Y-14616555D01*
X14812658Y-14616555D02*
X14803134Y-14597508D01*
X14803134Y-14597508D02*
X14784087Y-14568936D01*
X14784087Y-14568936D02*
X14774563Y-14559412D01*
D12*
X9899500Y-14910500D02*
X9999500Y-15010500D01*
X9999500Y-14910500D02*
X9899500Y-15010500D01*
X9999500Y-14960500D02*
G75*
G02*
X9899500Y-14960500I-50000J0D01*
G01*
X9899500Y-14960500D02*
G75*
G02*
X9999500Y-14960500I50000J0D01*
G01*
D11*
X10365039Y-15051984D02*
X10250753Y-15051984D01*
X10307896Y-15051984D02*
X10307896Y-14851984D01*
X10307896Y-14851984D02*
X10288848Y-14880555D01*
X10288848Y-14880555D02*
X10269801Y-14899603D01*
X10269801Y-14899603D02*
X10250753Y-14909127D01*
X10450753Y-15032936D02*
X10460277Y-15042460D01*
X10460277Y-15042460D02*
X10450753Y-15051984D01*
X10450753Y-15051984D02*
X10441229Y-15042460D01*
X10441229Y-15042460D02*
X10450753Y-15032936D01*
X10450753Y-15032936D02*
X10450753Y-15051984D01*
X10584086Y-14851984D02*
X10603134Y-14851984D01*
X10603134Y-14851984D02*
X10622182Y-14861508D01*
X10622182Y-14861508D02*
X10631705Y-14871031D01*
X10631705Y-14871031D02*
X10641229Y-14890079D01*
X10641229Y-14890079D02*
X10650753Y-14928174D01*
X10650753Y-14928174D02*
X10650753Y-14975793D01*
X10650753Y-14975793D02*
X10641229Y-15013888D01*
X10641229Y-15013888D02*
X10631705Y-15032936D01*
X10631705Y-15032936D02*
X10622182Y-15042460D01*
X10622182Y-15042460D02*
X10603134Y-15051984D01*
X10603134Y-15051984D02*
X10584086Y-15051984D01*
X10584086Y-15051984D02*
X10565039Y-15042460D01*
X10565039Y-15042460D02*
X10555515Y-15032936D01*
X10555515Y-15032936D02*
X10545991Y-15013888D01*
X10545991Y-15013888D02*
X10536467Y-14975793D01*
X10536467Y-14975793D02*
X10536467Y-14928174D01*
X10536467Y-14928174D02*
X10545991Y-14890079D01*
X10545991Y-14890079D02*
X10555515Y-14871031D01*
X10555515Y-14871031D02*
X10565039Y-14861508D01*
X10565039Y-14861508D02*
X10584086Y-14851984D01*
X10774563Y-14851984D02*
X10793610Y-14851984D01*
X10793610Y-14851984D02*
X10812658Y-14861508D01*
X10812658Y-14861508D02*
X10822182Y-14871031D01*
X10822182Y-14871031D02*
X10831705Y-14890079D01*
X10831705Y-14890079D02*
X10841229Y-14928174D01*
X10841229Y-14928174D02*
X10841229Y-14975793D01*
X10841229Y-14975793D02*
X10831705Y-15013888D01*
X10831705Y-15013888D02*
X10822182Y-15032936D01*
X10822182Y-15032936D02*
X10812658Y-15042460D01*
X10812658Y-15042460D02*
X10793610Y-15051984D01*
X10793610Y-15051984D02*
X10774563Y-15051984D01*
X10774563Y-15051984D02*
X10755515Y-15042460D01*
X10755515Y-15042460D02*
X10745991Y-15032936D01*
X10745991Y-15032936D02*
X10736467Y-15013888D01*
X10736467Y-15013888D02*
X10726944Y-14975793D01*
X10726944Y-14975793D02*
X10726944Y-14928174D01*
X10726944Y-14928174D02*
X10736467Y-14890079D01*
X10736467Y-14890079D02*
X10745991Y-14871031D01*
X10745991Y-14871031D02*
X10755515Y-14861508D01*
X10755515Y-14861508D02*
X10774563Y-14851984D01*
X10965039Y-14851984D02*
X10984086Y-14851984D01*
X10984086Y-14851984D02*
X11003134Y-14861508D01*
X11003134Y-14861508D02*
X11012658Y-14871031D01*
X11012658Y-14871031D02*
X11022182Y-14890079D01*
X11022182Y-14890079D02*
X11031705Y-14928174D01*
X11031705Y-14928174D02*
X11031705Y-14975793D01*
X11031705Y-14975793D02*
X11022182Y-15013888D01*
X11022182Y-15013888D02*
X11012658Y-15032936D01*
X11012658Y-15032936D02*
X11003134Y-15042460D01*
X11003134Y-15042460D02*
X10984086Y-15051984D01*
X10984086Y-15051984D02*
X10965039Y-15051984D01*
X10965039Y-15051984D02*
X10945991Y-15042460D01*
X10945991Y-15042460D02*
X10936467Y-15032936D01*
X10936467Y-15032936D02*
X10926944Y-15013888D01*
X10926944Y-15013888D02*
X10917420Y-14975793D01*
X10917420Y-14975793D02*
X10917420Y-14928174D01*
X10917420Y-14928174D02*
X10926944Y-14890079D01*
X10926944Y-14890079D02*
X10936467Y-14871031D01*
X10936467Y-14871031D02*
X10945991Y-14861508D01*
X10945991Y-14861508D02*
X10965039Y-14851984D01*
X11117420Y-15051984D02*
X11117420Y-14918650D01*
X11117420Y-14937698D02*
X11126944Y-14928174D01*
X11126944Y-14928174D02*
X11145991Y-14918650D01*
X11145991Y-14918650D02*
X11174563Y-14918650D01*
X11174563Y-14918650D02*
X11193610Y-14928174D01*
X11193610Y-14928174D02*
X11203134Y-14947222D01*
X11203134Y-14947222D02*
X11203134Y-15051984D01*
X11203134Y-14947222D02*
X11212658Y-14928174D01*
X11212658Y-14928174D02*
X11231705Y-14918650D01*
X11231705Y-14918650D02*
X11260277Y-14918650D01*
X11260277Y-14918650D02*
X11279324Y-14928174D01*
X11279324Y-14928174D02*
X11288848Y-14947222D01*
X11288848Y-14947222D02*
X11288848Y-15051984D01*
X11384086Y-15051984D02*
X11384086Y-14918650D01*
X11384086Y-14937698D02*
X11393610Y-14928174D01*
X11393610Y-14928174D02*
X11412658Y-14918650D01*
X11412658Y-14918650D02*
X11441229Y-14918650D01*
X11441229Y-14918650D02*
X11460277Y-14928174D01*
X11460277Y-14928174D02*
X11469801Y-14947222D01*
X11469801Y-14947222D02*
X11469801Y-15051984D01*
X11469801Y-14947222D02*
X11479324Y-14928174D01*
X11479324Y-14928174D02*
X11498372Y-14918650D01*
X11498372Y-14918650D02*
X11526943Y-14918650D01*
X11526943Y-14918650D02*
X11545991Y-14928174D01*
X11545991Y-14928174D02*
X11555515Y-14947222D01*
X11555515Y-14947222D02*
X11555515Y-15051984D01*
X11945991Y-14842460D02*
X11774563Y-15099603D01*
X12203134Y-14851984D02*
X12222182Y-14851984D01*
X12222182Y-14851984D02*
X12241229Y-14861508D01*
X12241229Y-14861508D02*
X12250753Y-14871031D01*
X12250753Y-14871031D02*
X12260277Y-14890079D01*
X12260277Y-14890079D02*
X12269801Y-14928174D01*
X12269801Y-14928174D02*
X12269801Y-14975793D01*
X12269801Y-14975793D02*
X12260277Y-15013888D01*
X12260277Y-15013888D02*
X12250753Y-15032936D01*
X12250753Y-15032936D02*
X12241229Y-15042460D01*
X12241229Y-15042460D02*
X12222182Y-15051984D01*
X12222182Y-15051984D02*
X12203134Y-15051984D01*
X12203134Y-15051984D02*
X12184086Y-15042460D01*
X12184086Y-15042460D02*
X12174563Y-15032936D01*
X12174563Y-15032936D02*
X12165039Y-15013888D01*
X12165039Y-15013888D02*
X12155515Y-14975793D01*
X12155515Y-14975793D02*
X12155515Y-14928174D01*
X12155515Y-14928174D02*
X12165039Y-14890079D01*
X12165039Y-14890079D02*
X12174563Y-14871031D01*
X12174563Y-14871031D02*
X12184086Y-14861508D01*
X12184086Y-14861508D02*
X12203134Y-14851984D01*
X12355515Y-15032936D02*
X12365039Y-15042460D01*
X12365039Y-15042460D02*
X12355515Y-15051984D01*
X12355515Y-15051984D02*
X12345991Y-15042460D01*
X12345991Y-15042460D02*
X12355515Y-15032936D01*
X12355515Y-15032936D02*
X12355515Y-15051984D01*
X12488848Y-14851984D02*
X12507896Y-14851984D01*
X12507896Y-14851984D02*
X12526944Y-14861508D01*
X12526944Y-14861508D02*
X12536467Y-14871031D01*
X12536467Y-14871031D02*
X12545991Y-14890079D01*
X12545991Y-14890079D02*
X12555515Y-14928174D01*
X12555515Y-14928174D02*
X12555515Y-14975793D01*
X12555515Y-14975793D02*
X12545991Y-15013888D01*
X12545991Y-15013888D02*
X12536467Y-15032936D01*
X12536467Y-15032936D02*
X12526944Y-15042460D01*
X12526944Y-15042460D02*
X12507896Y-15051984D01*
X12507896Y-15051984D02*
X12488848Y-15051984D01*
X12488848Y-15051984D02*
X12469801Y-15042460D01*
X12469801Y-15042460D02*
X12460277Y-15032936D01*
X12460277Y-15032936D02*
X12450753Y-15013888D01*
X12450753Y-15013888D02*
X12441229Y-14975793D01*
X12441229Y-14975793D02*
X12441229Y-14928174D01*
X12441229Y-14928174D02*
X12450753Y-14890079D01*
X12450753Y-14890079D02*
X12460277Y-14871031D01*
X12460277Y-14871031D02*
X12469801Y-14861508D01*
X12469801Y-14861508D02*
X12488848Y-14851984D01*
X12622182Y-14851984D02*
X12745991Y-14851984D01*
X12745991Y-14851984D02*
X12679325Y-14928174D01*
X12679325Y-14928174D02*
X12707896Y-14928174D01*
X12707896Y-14928174D02*
X12726944Y-14937698D01*
X12726944Y-14937698D02*
X12736467Y-14947222D01*
X12736467Y-14947222D02*
X12745991Y-14966269D01*
X12745991Y-14966269D02*
X12745991Y-15013888D01*
X12745991Y-15013888D02*
X12736467Y-15032936D01*
X12736467Y-15032936D02*
X12726944Y-15042460D01*
X12726944Y-15042460D02*
X12707896Y-15051984D01*
X12707896Y-15051984D02*
X12650753Y-15051984D01*
X12650753Y-15051984D02*
X12631706Y-15042460D01*
X12631706Y-15042460D02*
X12622182Y-15032936D01*
X12841229Y-15051984D02*
X12879325Y-15051984D01*
X12879325Y-15051984D02*
X12898372Y-15042460D01*
X12898372Y-15042460D02*
X12907896Y-15032936D01*
X12907896Y-15032936D02*
X12926944Y-15004365D01*
X12926944Y-15004365D02*
X12936467Y-14966269D01*
X12936467Y-14966269D02*
X12936467Y-14890079D01*
X12936467Y-14890079D02*
X12926944Y-14871031D01*
X12926944Y-14871031D02*
X12917420Y-14861508D01*
X12917420Y-14861508D02*
X12898372Y-14851984D01*
X12898372Y-14851984D02*
X12860277Y-14851984D01*
X12860277Y-14851984D02*
X12841229Y-14861508D01*
X12841229Y-14861508D02*
X12831706Y-14871031D01*
X12831706Y-14871031D02*
X12822182Y-14890079D01*
X12822182Y-14890079D02*
X12822182Y-14937698D01*
X12822182Y-14937698D02*
X12831706Y-14956746D01*
X12831706Y-14956746D02*
X12841229Y-14966269D01*
X12841229Y-14966269D02*
X12860277Y-14975793D01*
X12860277Y-14975793D02*
X12898372Y-14975793D01*
X12898372Y-14975793D02*
X12917420Y-14966269D01*
X12917420Y-14966269D02*
X12926944Y-14956746D01*
X12926944Y-14956746D02*
X12936467Y-14937698D01*
X13107896Y-14918650D02*
X13107896Y-15051984D01*
X13060277Y-14842460D02*
X13012658Y-14985317D01*
X13012658Y-14985317D02*
X13136467Y-14985317D01*
X13203134Y-14851984D02*
X13203134Y-14890079D01*
X13279325Y-14851984D02*
X13279325Y-14890079D01*
X13574563Y-15128174D02*
X13565039Y-15118650D01*
X13565039Y-15118650D02*
X13545991Y-15090079D01*
X13545991Y-15090079D02*
X13536468Y-15071031D01*
X13536468Y-15071031D02*
X13526944Y-15042460D01*
X13526944Y-15042460D02*
X13517420Y-14994841D01*
X13517420Y-14994841D02*
X13517420Y-14956746D01*
X13517420Y-14956746D02*
X13526944Y-14909127D01*
X13526944Y-14909127D02*
X13536468Y-14880555D01*
X13536468Y-14880555D02*
X13545991Y-14861508D01*
X13545991Y-14861508D02*
X13565039Y-14832936D01*
X13565039Y-14832936D02*
X13574563Y-14823412D01*
X13736468Y-14918650D02*
X13736468Y-15051984D01*
X13688848Y-14842460D02*
X13641229Y-14985317D01*
X13641229Y-14985317D02*
X13765039Y-14985317D01*
X13879325Y-14851984D02*
X13898372Y-14851984D01*
X13898372Y-14851984D02*
X13917420Y-14861508D01*
X13917420Y-14861508D02*
X13926944Y-14871031D01*
X13926944Y-14871031D02*
X13936468Y-14890079D01*
X13936468Y-14890079D02*
X13945991Y-14928174D01*
X13945991Y-14928174D02*
X13945991Y-14975793D01*
X13945991Y-14975793D02*
X13936468Y-15013888D01*
X13936468Y-15013888D02*
X13926944Y-15032936D01*
X13926944Y-15032936D02*
X13917420Y-15042460D01*
X13917420Y-15042460D02*
X13898372Y-15051984D01*
X13898372Y-15051984D02*
X13879325Y-15051984D01*
X13879325Y-15051984D02*
X13860277Y-15042460D01*
X13860277Y-15042460D02*
X13850753Y-15032936D01*
X13850753Y-15032936D02*
X13841229Y-15013888D01*
X13841229Y-15013888D02*
X13831706Y-14975793D01*
X13831706Y-14975793D02*
X13831706Y-14928174D01*
X13831706Y-14928174D02*
X13841229Y-14890079D01*
X13841229Y-14890079D02*
X13850753Y-14871031D01*
X13850753Y-14871031D02*
X13860277Y-14861508D01*
X13860277Y-14861508D02*
X13879325Y-14851984D01*
X14184087Y-15051984D02*
X14184087Y-14851984D01*
X14269801Y-15051984D02*
X14269801Y-14947222D01*
X14269801Y-14947222D02*
X14260277Y-14928174D01*
X14260277Y-14928174D02*
X14241230Y-14918650D01*
X14241230Y-14918650D02*
X14212658Y-14918650D01*
X14212658Y-14918650D02*
X14193610Y-14928174D01*
X14193610Y-14928174D02*
X14184087Y-14937698D01*
X14393610Y-15051984D02*
X14374563Y-15042460D01*
X14374563Y-15042460D02*
X14365039Y-15032936D01*
X14365039Y-15032936D02*
X14355515Y-15013888D01*
X14355515Y-15013888D02*
X14355515Y-14956746D01*
X14355515Y-14956746D02*
X14365039Y-14937698D01*
X14365039Y-14937698D02*
X14374563Y-14928174D01*
X14374563Y-14928174D02*
X14393610Y-14918650D01*
X14393610Y-14918650D02*
X14422182Y-14918650D01*
X14422182Y-14918650D02*
X14441230Y-14928174D01*
X14441230Y-14928174D02*
X14450753Y-14937698D01*
X14450753Y-14937698D02*
X14460277Y-14956746D01*
X14460277Y-14956746D02*
X14460277Y-15013888D01*
X14460277Y-15013888D02*
X14450753Y-15032936D01*
X14450753Y-15032936D02*
X14441230Y-15042460D01*
X14441230Y-15042460D02*
X14422182Y-15051984D01*
X14422182Y-15051984D02*
X14393610Y-15051984D01*
X14574563Y-15051984D02*
X14555515Y-15042460D01*
X14555515Y-15042460D02*
X14545991Y-15023412D01*
X14545991Y-15023412D02*
X14545991Y-14851984D01*
X14726944Y-15042460D02*
X14707896Y-15051984D01*
X14707896Y-15051984D02*
X14669801Y-15051984D01*
X14669801Y-15051984D02*
X14650753Y-15042460D01*
X14650753Y-15042460D02*
X14641230Y-15023412D01*
X14641230Y-15023412D02*
X14641230Y-14947222D01*
X14641230Y-14947222D02*
X14650753Y-14928174D01*
X14650753Y-14928174D02*
X14669801Y-14918650D01*
X14669801Y-14918650D02*
X14707896Y-14918650D01*
X14707896Y-14918650D02*
X14726944Y-14928174D01*
X14726944Y-14928174D02*
X14736468Y-14947222D01*
X14736468Y-14947222D02*
X14736468Y-14966269D01*
X14736468Y-14966269D02*
X14641230Y-14985317D01*
X14812658Y-15042460D02*
X14831706Y-15051984D01*
X14831706Y-15051984D02*
X14869801Y-15051984D01*
X14869801Y-15051984D02*
X14888849Y-15042460D01*
X14888849Y-15042460D02*
X14898372Y-15023412D01*
X14898372Y-15023412D02*
X14898372Y-15013888D01*
X14898372Y-15013888D02*
X14888849Y-14994841D01*
X14888849Y-14994841D02*
X14869801Y-14985317D01*
X14869801Y-14985317D02*
X14841230Y-14985317D01*
X14841230Y-14985317D02*
X14822182Y-14975793D01*
X14822182Y-14975793D02*
X14812658Y-14956746D01*
X14812658Y-14956746D02*
X14812658Y-14947222D01*
X14812658Y-14947222D02*
X14822182Y-14928174D01*
X14822182Y-14928174D02*
X14841230Y-14918650D01*
X14841230Y-14918650D02*
X14869801Y-14918650D01*
X14869801Y-14918650D02*
X14888849Y-14928174D01*
X14965039Y-15128174D02*
X14974563Y-15118650D01*
X14974563Y-15118650D02*
X14993611Y-15090079D01*
X14993611Y-15090079D02*
X15003134Y-15071031D01*
X15003134Y-15071031D02*
X15012658Y-15042460D01*
X15012658Y-15042460D02*
X15022182Y-14994841D01*
X15022182Y-14994841D02*
X15022182Y-14956746D01*
X15022182Y-14956746D02*
X15012658Y-14909127D01*
X15012658Y-14909127D02*
X15003134Y-14880555D01*
X15003134Y-14880555D02*
X14993611Y-14861508D01*
X14993611Y-14861508D02*
X14974563Y-14832936D01*
X14974563Y-14832936D02*
X14965039Y-14823412D01*
M02*
