%TF.GenerationSoftware,KiCad,Pcbnew,9.0.7-9.0.7~ubuntu24.04.1*%
%TF.CreationDate,2026-01-11T20:29:35+01:00*%
%TF.ProjectId,mfi,6d66692e-6b69-4636-9164-5f7063625858,rev?*%
%TF.SameCoordinates,Original*%
%TF.FileFunction,Soldermask,Top*%
%TF.FilePolarity,Negative*%
%FSLAX46Y46*%
G04 Gerber Fmt 4.6, Leading zero omitted, Abs format (unit mm)*
G04 Created by KiCad (PCBNEW 9.0.7-9.0.7~ubuntu24.04.1) date 2026-01-11 20:29:35*
%MOMM*%
%LPD*%
G01*
G04 APERTURE LIST*
G04 Aperture macros list*
%AMRoundRect*
0 Rectangle with rounded corners*
0 $1 Rounding radius*
0 $2 $3 $4 $5 $6 $7 $8 $9 X,Y pos of 4 corners*
0 Add a 4 corners polygon primitive as box body*
4,1,4,$2,$3,$4,$5,$6,$7,$8,$9,$2,$3,0*
0 Add four circle primitives for the rounded corners*
1,1,$1+$1,$2,$3*
1,1,$1+$1,$4,$5*
1,1,$1+$1,$6,$7*
1,1,$1+$1,$8,$9*
0 Add four rect primitives between the rounded corners*
20,1,$1+$1,$2,$3,$4,$5,0*
20,1,$1+$1,$4,$5,$6,$7,0*
20,1,$1+$1,$6,$7,$8,$9,0*
20,1,$1+$1,$8,$9,$2,$3,0*%
G04 Aperture macros list end*
%ADD10RoundRect,0.062500X-0.437500X-0.062500X0.437500X-0.062500X0.437500X0.062500X-0.437500X0.062500X0*%
%ADD11R,1.400000X1.600000*%
%ADD12RoundRect,0.062500X-0.450000X-0.062500X0.450000X-0.062500X0.450000X0.062500X-0.450000X0.062500X0*%
%ADD13RoundRect,0.100000X-0.000010X-0.500000X0.000010X-0.500000X0.000010X0.500000X-0.000010X0.500000X0*%
%ADD14RoundRect,0.250000X0.550000X0.550000X-0.550000X0.550000X-0.550000X-0.550000X0.550000X-0.550000X0*%
%ADD15C,1.600000*%
%ADD16R,1.700000X1.700000*%
%ADD17C,1.700000*%
%ADD18RoundRect,0.225000X0.225000X0.250000X-0.225000X0.250000X-0.225000X-0.250000X0.225000X-0.250000X0*%
%ADD19RoundRect,0.225000X0.250000X-0.225000X0.250000X0.225000X-0.250000X0.225000X-0.250000X-0.225000X0*%
%ADD20RoundRect,0.200000X-0.275000X0.200000X-0.275000X-0.200000X0.275000X-0.200000X0.275000X0.200000X0*%
%ADD21R,1.500000X1.500000*%
%ADD22C,0.650000*%
%ADD23R,0.600000X1.450000*%
%ADD24R,0.300000X1.450000*%
%ADD25O,1.000000X2.100000*%
%ADD26O,1.000000X1.600000*%
%ADD27RoundRect,0.062500X0.437500X0.062500X-0.437500X0.062500X-0.437500X-0.062500X0.437500X-0.062500X0*%
%ADD28RoundRect,0.200000X0.275000X-0.200000X0.275000X0.200000X-0.275000X0.200000X-0.275000X-0.200000X0*%
%ADD29RoundRect,0.112500X0.187500X0.112500X-0.187500X0.112500X-0.187500X-0.112500X0.187500X-0.112500X0*%
%ADD30RoundRect,0.225000X-0.225000X-0.250000X0.225000X-0.250000X0.225000X0.250000X-0.225000X0.250000X0*%
%TA.AperFunction,Profile*%
%ADD31C,0.010000*%
%TD*%
G04 APERTURE END LIST*
D10*
%TO.C,U3*%
X141708112Y-120025000D03*
X141708112Y-120525000D03*
X141708112Y-121025000D03*
X141708112Y-121525000D03*
X144908112Y-121525000D03*
X144908112Y-121025000D03*
X144908112Y-120525000D03*
X144908112Y-120025000D03*
D11*
X143308112Y-120825000D03*
%TD*%
D12*
%TO.C,U2*%
X126775000Y-114900000D03*
X126775000Y-115400000D03*
X126775000Y-115900000D03*
X126775000Y-116400000D03*
X129400000Y-116400000D03*
X129400000Y-115900000D03*
X129400000Y-115400000D03*
X129400000Y-114900000D03*
D13*
X128087500Y-115650000D03*
%TD*%
D14*
%TO.C,C3*%
X107500000Y-120450000D03*
X106829063Y-118850000D03*
D15*
X104329063Y-118850000D03*
X103658126Y-117250000D03*
%TD*%
D16*
%TO.C,J1*%
X101960000Y-128450000D03*
D17*
X101960000Y-125910000D03*
X104500000Y-128450000D03*
X104500000Y-125910000D03*
X107040000Y-128450000D03*
X107040000Y-125910000D03*
X109580000Y-128450000D03*
X109580000Y-125910000D03*
X112120000Y-128450000D03*
X112120000Y-125910000D03*
X114660000Y-128450000D03*
X114660000Y-125910000D03*
X117200000Y-128450000D03*
X117200000Y-125910000D03*
X119740000Y-128450000D03*
X119740000Y-125910000D03*
X122280000Y-128450000D03*
X122280000Y-125910000D03*
X124820000Y-128450000D03*
X124820000Y-125910000D03*
X127360000Y-128450000D03*
X127360000Y-125910000D03*
X129900000Y-128450000D03*
X129900000Y-125910000D03*
X132440000Y-128450000D03*
X132440000Y-125910000D03*
X134980000Y-128450000D03*
X134980000Y-125910000D03*
X137520000Y-128450000D03*
X137520000Y-125910000D03*
X140060000Y-128450000D03*
X140060000Y-125910000D03*
X142600000Y-128450000D03*
X142600000Y-125910000D03*
X145140000Y-128450000D03*
X145140000Y-125910000D03*
X147680000Y-128450000D03*
X147680000Y-125910000D03*
X150220000Y-128450000D03*
X150220000Y-125910000D03*
%TD*%
D18*
%TO.C,C2*%
X128850000Y-113300000D03*
X127300000Y-113300000D03*
%TD*%
D19*
%TO.C,C9*%
X111800000Y-121500000D03*
X111800000Y-119950000D03*
%TD*%
D20*
%TO.C,R4*%
X115210000Y-120225000D03*
X115210000Y-121875000D03*
%TD*%
%TO.C,R5*%
X122900000Y-112850000D03*
X122900000Y-114500000D03*
%TD*%
D21*
%TO.C,TP2*%
X108700000Y-112650000D03*
%TD*%
%TO.C,TP4*%
X102800000Y-112550000D03*
%TD*%
D22*
%TO.C,J4*%
X119500000Y-116450000D03*
X113720000Y-116450000D03*
D23*
X119860000Y-117895000D03*
X119060000Y-117895000D03*
D24*
X117860000Y-117895000D03*
X116860000Y-117895000D03*
X116360000Y-117895000D03*
X115360000Y-117895000D03*
D23*
X114160000Y-117895000D03*
X113360000Y-117895000D03*
X113360000Y-117895000D03*
X114160000Y-117895000D03*
D24*
X114860000Y-117895000D03*
X115860000Y-117895000D03*
X117360000Y-117895000D03*
X118360000Y-117895000D03*
D23*
X119060000Y-117895000D03*
X119860000Y-117895000D03*
D25*
X120930000Y-116980000D03*
D26*
X120930000Y-112800000D03*
D25*
X112290000Y-116980000D03*
D26*
X112290000Y-112800000D03*
%TD*%
D20*
%TO.C,R3*%
X117610000Y-120225000D03*
X117610000Y-121875000D03*
%TD*%
D27*
%TO.C,U1*%
X133700000Y-120950000D03*
X133700000Y-120450000D03*
X133700000Y-119950000D03*
X133700000Y-119450000D03*
X130500000Y-119450000D03*
X130500000Y-119950000D03*
X130500000Y-120450000D03*
X130500000Y-120950000D03*
D11*
X132100000Y-120150000D03*
%TD*%
D28*
%TO.C,R2*%
X125000000Y-121800000D03*
X125000000Y-120150000D03*
%TD*%
D29*
%TO.C,D5*%
X121200000Y-120950000D03*
X119100000Y-120950000D03*
%TD*%
D28*
%TO.C,R1*%
X126600000Y-121800000D03*
X126600000Y-120150000D03*
%TD*%
D30*
%TO.C,C1*%
X131400000Y-122750000D03*
X132950000Y-122750000D03*
%TD*%
G36*
X147143039Y-119719685D02*
G01*
X147188794Y-119772489D01*
X147200000Y-119824000D01*
X147200000Y-121677579D01*
X147180315Y-121744618D01*
X147127511Y-121790373D01*
X147077590Y-121801569D01*
X139525590Y-121898389D01*
X139458303Y-121879565D01*
X139411875Y-121827352D01*
X139400000Y-121774399D01*
X139400000Y-119824000D01*
X139419685Y-119756961D01*
X139472489Y-119711206D01*
X139524000Y-119700000D01*
X147076000Y-119700000D01*
X147143039Y-119719685D01*
G37*
D31*
X137100000Y-116000000D02*
X152000000Y-116000000D01*
X132900000Y-111500000D02*
X137100000Y-116000000D01*
X100000000Y-130000000D02*
X152000000Y-130000000D01*
X100000000Y-111500000D02*
X132900000Y-111500000D01*
X152000000Y-116000000D02*
X152000000Y-130000000D01*
X100000000Y-111500000D02*
X100000000Y-130000000D01*
M02*
