%TF.GenerationSoftware,KiCad,Pcbnew,9.0.7-9.0.7~ubuntu24.04.1*%
%TF.CreationDate,2026-01-11T20:29:34+01:00*%
%TF.ProjectId,mfi,6d66692e-6b69-4636-9164-5f7063625858,rev?*%
%TF.SameCoordinates,Original*%
%TF.FileFunction,Copper,L1,Top*%
%TF.FilePolarity,Positive*%
%FSLAX46Y46*%
G04 Gerber Fmt 4.6, Leading zero omitted, Abs format (unit mm)*
G04 Created by KiCad (PCBNEW 9.0.7-9.0.7~ubuntu24.04.1) date 2026-01-11 20:29:34*
%MOMM*%
%LPD*%
G01*
G04 APERTURE LIST*
G04 Aperture macros list*
%AMRoundRect*
0 Rectangle with rounded corners*
0 $1 Rounding radius*
0 $2 $3 $4 $5 $6 $7 $8 $9 X,Y pos of 4 corners*
0 Add a 4 corners polygon primitive as box body*
4,1,4,$2,$3,$4,$5,$6,$7,$8,$9,$2,$3,0*
0 Add four circle primitives for the rounded corners*
1,1,$1+$1,$2,$3*
1,1,$1+$1,$4,$5*
1,1,$1+$1,$6,$7*
1,1,$1+$1,$8,$9*
0 Add four rect primitives between the rounded corners*
20,1,$1+$1,$2,$3,$4,$5,0*
20,1,$1+$1,$4,$5,$6,$7,0*
20,1,$1+$1,$6,$7,$8,$9,0*
20,1,$1+$1,$8,$9,$2,$3,0*%
G04 Aperture macros list end*
%TA.AperFunction,SMDPad,CuDef*%
%ADD10RoundRect,0.062500X-0.437500X-0.062500X0.437500X-0.062500X0.437500X0.062500X-0.437500X0.062500X0*%
%TD*%
%TA.AperFunction,HeatsinkPad*%
%ADD11R,1.400000X1.600000*%
%TD*%
%TA.AperFunction,SMDPad,CuDef*%
%ADD12RoundRect,0.062500X-0.450000X-0.062500X0.450000X-0.062500X0.450000X0.062500X-0.450000X0.062500X0*%
%TD*%
%TA.AperFunction,HeatsinkPad*%
%ADD13RoundRect,0.100000X-0.000010X-0.500000X0.000010X-0.500000X0.000010X0.500000X-0.000010X0.500000X0*%
%TD*%
%TA.AperFunction,ComponentPad*%
%ADD14RoundRect,0.250000X0.550000X0.550000X-0.550000X0.550000X-0.550000X-0.550000X0.550000X-0.550000X0*%
%TD*%
%TA.AperFunction,ComponentPad*%
%ADD15C,1.600000*%
%TD*%
%TA.AperFunction,ComponentPad*%
%ADD16R,1.700000X1.700000*%
%TD*%
%TA.AperFunction,ComponentPad*%
%ADD17C,1.700000*%
%TD*%
%TA.AperFunction,SMDPad,CuDef*%
%ADD18RoundRect,0.225000X0.225000X0.250000X-0.225000X0.250000X-0.225000X-0.250000X0.225000X-0.250000X0*%
%TD*%
%TA.AperFunction,SMDPad,CuDef*%
%ADD19RoundRect,0.225000X0.250000X-0.225000X0.250000X0.225000X-0.250000X0.225000X-0.250000X-0.225000X0*%
%TD*%
%TA.AperFunction,SMDPad,CuDef*%
%ADD20RoundRect,0.200000X-0.275000X0.200000X-0.275000X-0.200000X0.275000X-0.200000X0.275000X0.200000X0*%
%TD*%
%TA.AperFunction,ComponentPad*%
%ADD21R,1.500000X1.500000*%
%TD*%
%TA.AperFunction,SMDPad,CuDef*%
%ADD22R,0.600000X1.450000*%
%TD*%
%TA.AperFunction,SMDPad,CuDef*%
%ADD23R,0.300000X1.450000*%
%TD*%
%TA.AperFunction,ComponentPad*%
%ADD24O,1.000000X2.100000*%
%TD*%
%TA.AperFunction,ComponentPad*%
%ADD25O,1.000000X1.600000*%
%TD*%
%TA.AperFunction,SMDPad,CuDef*%
%ADD26RoundRect,0.062500X0.437500X0.062500X-0.437500X0.062500X-0.437500X-0.062500X0.437500X-0.062500X0*%
%TD*%
%TA.AperFunction,SMDPad,CuDef*%
%ADD27RoundRect,0.200000X0.275000X-0.200000X0.275000X0.200000X-0.275000X0.200000X-0.275000X-0.200000X0*%
%TD*%
%TA.AperFunction,SMDPad,CuDef*%
%ADD28RoundRect,0.112500X0.187500X0.112500X-0.187500X0.112500X-0.187500X-0.112500X0.187500X-0.112500X0*%
%TD*%
%TA.AperFunction,SMDPad,CuDef*%
%ADD29RoundRect,0.225000X-0.225000X-0.250000X0.225000X-0.250000X0.225000X0.250000X-0.225000X0.250000X0*%
%TD*%
%TA.AperFunction,ViaPad*%
%ADD30C,0.600000*%
%TD*%
%TA.AperFunction,ViaPad*%
%ADD31C,0.800000*%
%TD*%
%TA.AperFunction,Conductor*%
%ADD32C,0.200000*%
%TD*%
%TA.AperFunction,Conductor*%
%ADD33C,0.300000*%
%TD*%
%TA.AperFunction,Conductor*%
%ADD34C,0.167000*%
%TD*%
%TA.AperFunction,Conductor*%
%ADD35C,0.500000*%
%TD*%
%TA.AperFunction,Conductor*%
%ADD36C,0.250000*%
%TD*%
%TA.AperFunction,Conductor*%
%ADD37C,1.000000*%
%TD*%
%TA.AperFunction,Conductor*%
%ADD38C,0.400000*%
%TD*%
%TA.AperFunction,Profile*%
%ADD39C,0.010000*%
%TD*%
G04 APERTURE END LIST*
D10*
%TO.P,U3,1,GND*%
%TO.N,unconnected-(U3-GND-Pad1)*%
X141708112Y-120025000D03*
%TO.P,U3,2,NC*%
%TO.N,unconnected-(U3-NC-Pad2)*%
X141708112Y-120525000D03*
%TO.P,U3,3,NC*%
%TO.N,unconnected-(U3-NC-Pad3)*%
X141708112Y-121025000D03*
%TO.P,U3,4,GND*%
%TO.N,unconnected-(U3-GND-Pad4)*%
X141708112Y-121525000D03*
%TO.P,U3,5,SDA*%
%TO.N,unconnected-(U3-SDA-Pad5)*%
X144908112Y-121525000D03*
%TO.P,U3,6,SCL*%
%TO.N,unconnected-(U3-SCL-Pad6)*%
X144908112Y-121025000D03*
%TO.P,U3,7,GND*%
%TO.N,unconnected-(U3-GND-Pad7)*%
X144908112Y-120525000D03*
%TO.P,U3,8,VDD*%
%TO.N,unconnected-(U3-VDD-Pad8)*%
X144908112Y-120025000D03*
D11*
%TO.P,U3,9,GND*%
%TO.N,unconnected-(U3-GND-Pad9)*%
X143308112Y-120825000D03*
%TD*%
D12*
%TO.P,U2,1,GND*%
%TO.N,GND*%
X126775000Y-114900000D03*
%TO.P,U2,2,SDA*%
%TO.N,/SDA*%
X126775000Y-115400000D03*
%TO.P,U2,3,NC*%
%TO.N,unconnected-(U2-NC-Pad3)*%
X126775000Y-115900000D03*
%TO.P,U2,4,NC*%
%TO.N,unconnected-(U2-NC-Pad4)*%
X126775000Y-116400000D03*
%TO.P,U2,5,NC*%
%TO.N,unconnected-(U2-NC-Pad5)*%
X129400000Y-116400000D03*
%TO.P,U2,6,SCL*%
%TO.N,/SCL*%
X129400000Y-115900000D03*
%TO.P,U2,7,RST*%
%TO.N,+3.3V*%
X129400000Y-115400000D03*
%TO.P,U2,8,VDD*%
X129400000Y-114900000D03*
D13*
%TO.P,U2,9,Thermal*%
%TO.N,GND*%
X128087500Y-115650000D03*
%TD*%
D14*
%TO.P,C3,1*%
%TO.N,+5V*%
X107500000Y-120450000D03*
X106829063Y-118850000D03*
D15*
%TO.P,C3,2*%
%TO.N,GND*%
X104329063Y-118850000D03*
X103658126Y-117250000D03*
%TD*%
D16*
%TO.P,J1,1,3.3V*%
%TO.N,+3.3V*%
X101960000Y-128450000D03*
D17*
%TO.P,J1,2,5V*%
%TO.N,+5V*%
X101960000Y-125910000D03*
%TO.P,J1,3,BCM2_SDA*%
%TO.N,/SDA*%
X104500000Y-128450000D03*
%TO.P,J1,4,5V*%
%TO.N,+5V*%
X104500000Y-125910000D03*
%TO.P,J1,5,BCM3_SCL*%
%TO.N,/SCL*%
X107040000Y-128450000D03*
%TO.P,J1,6,GND*%
%TO.N,GND*%
X107040000Y-125910000D03*
%TO.P,J1,7,BCM4_GPCLK0*%
%TO.N,unconnected-(J1-BCM4_GPCLK0-Pad7)*%
X109580000Y-128450000D03*
%TO.P,J1,8,BCM14_TXD*%
%TO.N,unconnected-(J1-BCM14_TXD-Pad8)*%
X109580000Y-125910000D03*
%TO.P,J1,9,GND*%
%TO.N,GND*%
X112120000Y-128450000D03*
%TO.P,J1,10,BCM15_RXD*%
%TO.N,unconnected-(J1-BCM15_RXD-Pad10)*%
X112120000Y-125910000D03*
%TO.P,J1,11,BCM17*%
%TO.N,unconnected-(J1-BCM17-Pad11)*%
X114660000Y-128450000D03*
%TO.P,J1,12,BCM18_PCM_C*%
%TO.N,unconnected-(J1-BCM18_PCM_C-Pad12)*%
X114660000Y-125910000D03*
%TO.P,J1,13,BCM27*%
%TO.N,unconnected-(J1-BCM27-Pad13)*%
X117200000Y-128450000D03*
%TO.P,J1,14,GND*%
%TO.N,GND*%
X117200000Y-125910000D03*
%TO.P,J1,15,BCM22*%
%TO.N,unconnected-(J1-BCM22-Pad15)*%
X119740000Y-128450000D03*
%TO.P,J1,16,BCM23*%
%TO.N,unconnected-(J1-BCM23-Pad16)*%
X119740000Y-125910000D03*
%TO.P,J1,17,3.3V*%
%TO.N,unconnected-(J1-3.3V-Pad17)*%
X122280000Y-128450000D03*
%TO.P,J1,18,BCM24*%
%TO.N,unconnected-(J1-BCM24-Pad18)*%
X122280000Y-125910000D03*
%TO.P,J1,19,BCM10_MOSI*%
%TO.N,unconnected-(J1-BCM10_MOSI-Pad19)*%
X124820000Y-128450000D03*
%TO.P,J1,20,GND*%
%TO.N,GND*%
X124820000Y-125910000D03*
%TO.P,J1,21,BCM9_MISO*%
%TO.N,unconnected-(J1-BCM9_MISO-Pad21)*%
X127360000Y-128450000D03*
%TO.P,J1,22,BCM25*%
%TO.N,unconnected-(J1-BCM25-Pad22)*%
X127360000Y-125910000D03*
%TO.P,J1,23,BCM11_SCLK*%
%TO.N,unconnected-(J1-BCM11_SCLK-Pad23)*%
X129900000Y-128450000D03*
%TO.P,J1,24,BCM8_CE0*%
%TO.N,unconnected-(J1-BCM8_CE0-Pad24)*%
X129900000Y-125910000D03*
%TO.P,J1,25,GND*%
%TO.N,GND*%
X132440000Y-128450000D03*
%TO.P,J1,26,BCM7_CE1*%
%TO.N,unconnected-(J1-BCM7_CE1-Pad26)*%
X132440000Y-125910000D03*
%TO.P,J1,27,BCM0_ID_SD*%
%TO.N,unconnected-(J1-BCM0_ID_SD-Pad27)*%
X134980000Y-128450000D03*
%TO.P,J1,28,BCM1_ID_SC*%
%TO.N,unconnected-(J1-BCM1_ID_SC-Pad28)*%
X134980000Y-125910000D03*
%TO.P,J1,29,BCM5*%
%TO.N,unconnected-(J1-BCM5-Pad29)*%
X137520000Y-128450000D03*
%TO.P,J1,30,GND*%
%TO.N,GND*%
X137520000Y-125910000D03*
%TO.P,J1,31,BCM6*%
%TO.N,unconnected-(J1-BCM6-Pad31)*%
X140060000Y-128450000D03*
%TO.P,J1,32,BCM12_PWM0*%
%TO.N,unconnected-(J1-BCM12_PWM0-Pad32)*%
X140060000Y-125910000D03*
%TO.P,J1,33,BCM13_PWM1*%
%TO.N,unconnected-(J1-BCM13_PWM1-Pad33)*%
X142600000Y-128450000D03*
%TO.P,J1,34,GND*%
%TO.N,GND*%
X142600000Y-125910000D03*
%TO.P,J1,35,BCM19_MISO_PCM_FS*%
%TO.N,unconnected-(J1-BCM19_MISO_PCM_FS-Pad35)*%
X145140000Y-128450000D03*
%TO.P,J1,36,BCM16*%
%TO.N,unconnected-(J1-BCM16-Pad36)*%
X145140000Y-125910000D03*
%TO.P,J1,37,BCM26*%
%TO.N,unconnected-(J1-BCM26-Pad37)*%
X147680000Y-128450000D03*
%TO.P,J1,38,BCM20_MOSI_PCM_DI*%
%TO.N,unconnected-(J1-BCM20_MOSI_PCM_DI-Pad38)*%
X147680000Y-125910000D03*
%TO.P,J1,39,GND*%
%TO.N,GND*%
X150220000Y-128450000D03*
%TO.P,J1,40,BCM21_SCLK_PCM_DO*%
%TO.N,unconnected-(J1-BCM21_SCLK_PCM_DO-Pad40)*%
X150220000Y-125910000D03*
%TD*%
D18*
%TO.P,C2,1*%
%TO.N,+3.3V*%
X128850000Y-113300000D03*
%TO.P,C2,2*%
%TO.N,GND*%
X127300000Y-113300000D03*
%TD*%
D19*
%TO.P,C9,1*%
%TO.N,+5V*%
X111800000Y-121500000D03*
%TO.P,C9,2*%
%TO.N,GND*%
X111800000Y-119950000D03*
%TD*%
D20*
%TO.P,R4,1*%
%TO.N,Net-(J4-CC2)*%
X115210000Y-120225000D03*
%TO.P,R4,2*%
%TO.N,GND*%
X115210000Y-121875000D03*
%TD*%
%TO.P,R5,1*%
%TO.N,Net-(J4-SHIELD)*%
X122900000Y-112850000D03*
%TO.P,R5,2*%
%TO.N,GND*%
X122900000Y-114500000D03*
%TD*%
D21*
%TO.P,TP2,1,1*%
%TO.N,+5V*%
X108700000Y-112650000D03*
%TD*%
%TO.P,TP4,1,1*%
%TO.N,GND*%
X102800000Y-112550000D03*
%TD*%
D22*
%TO.P,J4,A1,GND*%
%TO.N,GND*%
X119860000Y-117895000D03*
%TO.P,J4,A4,VBUS*%
%TO.N,+5V*%
X119060000Y-117895000D03*
D23*
%TO.P,J4,A5,CC1*%
%TO.N,Net-(J4-CC1)*%
X117860000Y-117895000D03*
%TO.P,J4,A6,D+*%
%TO.N,unconnected-(J4-D+-PadA6)*%
X116860000Y-117895000D03*
%TO.P,J4,A7,D-*%
%TO.N,unconnected-(J4-D--PadA7)*%
X116360000Y-117895000D03*
%TO.P,J4,A8,SBU1*%
%TO.N,unconnected-(J4-SBU1-PadA8)*%
X115360000Y-117895000D03*
D22*
%TO.P,J4,A9,VBUS*%
%TO.N,+5V*%
X114160000Y-117895000D03*
%TO.P,J4,A12,GND*%
%TO.N,GND*%
X113360000Y-117895000D03*
%TO.P,J4,B1,GND*%
X113360000Y-117895000D03*
%TO.P,J4,B4,VBUS*%
%TO.N,+5V*%
X114160000Y-117895000D03*
D23*
%TO.P,J4,B5,CC2*%
%TO.N,Net-(J4-CC2)*%
X114860000Y-117895000D03*
%TO.P,J4,B6,D+*%
%TO.N,unconnected-(J4-D+-PadB6)*%
X115860000Y-117895000D03*
%TO.P,J4,B7,D-*%
%TO.N,unconnected-(J4-D--PadB7)*%
X117360000Y-117895000D03*
%TO.P,J4,B8,SBU2*%
%TO.N,unconnected-(J4-SBU2-PadB8)*%
X118360000Y-117895000D03*
D22*
%TO.P,J4,B9,VBUS*%
%TO.N,+5V*%
X119060000Y-117895000D03*
%TO.P,J4,B12,GND*%
%TO.N,GND*%
X119860000Y-117895000D03*
D24*
%TO.P,J4,S1,SHIELD*%
%TO.N,Net-(J4-SHIELD)*%
X120930000Y-116980000D03*
D25*
X120930000Y-112800000D03*
D24*
X112290000Y-116980000D03*
D25*
X112290000Y-112800000D03*
%TD*%
D20*
%TO.P,R3,1*%
%TO.N,Net-(J4-CC1)*%
X117610000Y-120225000D03*
%TO.P,R3,2*%
%TO.N,GND*%
X117610000Y-121875000D03*
%TD*%
D26*
%TO.P,U1,1,GND*%
%TO.N,GND*%
X133700000Y-120950000D03*
%TO.P,U1,2,NC*%
%TO.N,unconnected-(U1-NC-Pad2)*%
X133700000Y-120450000D03*
%TO.P,U1,3,NC*%
%TO.N,unconnected-(U1-NC-Pad3)*%
X133700000Y-119950000D03*
%TO.P,U1,4,GND*%
%TO.N,GND*%
X133700000Y-119450000D03*
%TO.P,U1,5,SDA*%
%TO.N,/SDA*%
X130500000Y-119450000D03*
%TO.P,U1,6,SCL*%
%TO.N,/SCL*%
X130500000Y-119950000D03*
%TO.P,U1,7,GND*%
%TO.N,GND*%
X130500000Y-120450000D03*
%TO.P,U1,8,VDD*%
%TO.N,+3.3V*%
X130500000Y-120950000D03*
D11*
%TO.P,U1,9,GND*%
%TO.N,GND*%
X132100000Y-120150000D03*
%TD*%
D27*
%TO.P,R2,1*%
%TO.N,+3.3V*%
X125000000Y-121800000D03*
%TO.P,R2,2*%
%TO.N,/SDA*%
X125000000Y-120150000D03*
%TD*%
D28*
%TO.P,D5,1,A1*%
%TO.N,GND*%
X121200000Y-120950000D03*
%TO.P,D5,2,A2*%
%TO.N,+5V*%
X119100000Y-120950000D03*
%TD*%
D27*
%TO.P,R1,1*%
%TO.N,+3.3V*%
X126600000Y-121800000D03*
%TO.P,R1,2*%
%TO.N,/SCL*%
X126600000Y-120150000D03*
%TD*%
D29*
%TO.P,C1,1*%
%TO.N,+3.3V*%
X131400000Y-122750000D03*
%TO.P,C1,2*%
%TO.N,GND*%
X132950000Y-122750000D03*
%TD*%
D30*
%TO.N,/SCL*%
X127600000Y-119960500D03*
X127500000Y-118800000D03*
D31*
%TO.N,+3.3V*%
X128500000Y-120700000D03*
X128500000Y-118700000D03*
%TO.N,GND*%
X126100000Y-113300000D03*
X134100000Y-122750000D03*
X124000000Y-114450000D03*
X113210000Y-119450000D03*
X129400000Y-121550000D03*
X116460000Y-121900000D03*
X121200000Y-120150000D03*
X120810000Y-118900000D03*
%TO.N,+3.3V*%
X120800000Y-122750000D03*
X123800000Y-122750000D03*
%TD*%
D32*
%TO.N,unconnected-(U3-GND-Pad4)*%
X139641556Y-121525000D02*
X141758444Y-121525000D01*
%TO.N,unconnected-(U3-NC-Pad3)*%
X139641556Y-121025000D02*
X141758444Y-121025000D01*
%TO.N,unconnected-(U3-NC-Pad2)*%
X139666556Y-120525000D02*
X141733444Y-120525000D01*
%TO.N,unconnected-(U3-GND-Pad1)*%
X139666556Y-120025000D02*
X141733444Y-120025000D01*
%TO.N,unconnected-(U3-SDA-Pad5)*%
X144908112Y-121525000D02*
X147025000Y-121525000D01*
%TO.N,unconnected-(U3-SCL-Pad6)*%
X144908112Y-121025000D02*
X147025000Y-121025000D01*
%TO.N,unconnected-(U3-GND-Pad7)*%
X144908112Y-120525000D02*
X146975000Y-120525000D01*
%TO.N,unconnected-(U3-VDD-Pad8)*%
X144908112Y-120025000D02*
X146975000Y-120025000D01*
D33*
%TO.N,+3.3V*%
X130700000Y-115400000D02*
X130700000Y-114400000D01*
X130700000Y-114400000D02*
X129600000Y-113300000D01*
X129600000Y-113300000D02*
X128850000Y-113300000D01*
X129400000Y-114900000D02*
X129400000Y-113850000D01*
X129400000Y-113850000D02*
X128850000Y-113300000D01*
X130700000Y-117500000D02*
X130700000Y-115400000D01*
D32*
X129400000Y-115400000D02*
X130700000Y-115400000D01*
D33*
X128500000Y-118700000D02*
X129500000Y-118700000D01*
X129500000Y-118700000D02*
X130700000Y-117500000D01*
D34*
%TO.N,/SCL*%
X130200000Y-116100000D02*
X130200000Y-117200000D01*
X130200000Y-117200000D02*
X129600000Y-117800000D01*
X129400000Y-115900000D02*
X130000000Y-115900000D01*
X130000000Y-115900000D02*
X130200000Y-116100000D01*
X127500000Y-118300000D02*
X127500000Y-118900000D01*
X129600000Y-117800000D02*
X128000000Y-117800000D01*
X128000000Y-117800000D02*
X127500000Y-118300000D01*
D35*
%TO.N,+3.3V*%
X126600000Y-122750000D02*
X128500000Y-122750000D01*
X128500000Y-120700000D02*
X128500000Y-122750000D01*
D34*
%TO.N,unconnected-(U2-NC-Pad5)*%
X129400000Y-116400000D02*
X129400000Y-117300000D01*
%TO.N,unconnected-(U2-NC-Pad4)*%
X126775000Y-116400000D02*
X125700000Y-116400000D01*
%TO.N,unconnected-(U2-NC-Pad3)*%
X126775000Y-115900000D02*
X125700000Y-115900000D01*
%TO.N,/SDA*%
X125000000Y-120150000D02*
X125000000Y-119600000D01*
X125000000Y-119600000D02*
X125100000Y-119500000D01*
X125100000Y-119500000D02*
X125100000Y-115700000D01*
X125100000Y-115700000D02*
X125400000Y-115400000D01*
X125400000Y-115400000D02*
X126775000Y-115400000D01*
D36*
%TO.N,GND*%
X128087500Y-115650000D02*
X128087500Y-114087500D01*
X128087500Y-114087500D02*
X127300000Y-113300000D01*
X126775000Y-114900000D02*
X126775000Y-113825000D01*
X126775000Y-113825000D02*
X127300000Y-113300000D01*
D35*
X127300000Y-113300000D02*
X126100000Y-113300000D01*
D33*
X134900000Y-122350000D02*
X134500000Y-122750000D01*
D36*
X129400000Y-121450000D02*
X129400000Y-121550000D01*
D35*
X116485000Y-121875000D02*
X116460000Y-121900000D01*
D33*
X112710000Y-119950000D02*
X113210000Y-119450000D01*
D37*
X104329063Y-118850000D02*
X104329063Y-117920937D01*
D36*
X129900000Y-120450000D02*
X129400000Y-120950000D01*
D33*
X134600000Y-119450000D02*
X134900000Y-119750000D01*
D36*
X130500000Y-120450000D02*
X129900000Y-120450000D01*
D35*
X116435000Y-121875000D02*
X116460000Y-121900000D01*
D33*
X134900000Y-119750000D02*
X134900000Y-122350000D01*
D35*
X117610000Y-121875000D02*
X116485000Y-121875000D01*
D36*
X121200000Y-120950000D02*
X121200000Y-120150000D01*
D33*
X132100000Y-120150000D02*
X132100000Y-121150000D01*
X132100000Y-121150000D02*
X132950000Y-122000000D01*
D37*
X104329063Y-117920937D02*
X103658126Y-117250000D01*
D35*
X119810000Y-117950000D02*
X120860000Y-119000000D01*
X122900000Y-114500000D02*
X123950000Y-114500000D01*
D36*
X129400000Y-120950000D02*
X129400000Y-121450000D01*
D33*
X111800000Y-119950000D02*
X112710000Y-119950000D01*
X132950000Y-122000000D02*
X132950000Y-122750000D01*
D35*
X115210000Y-121875000D02*
X116435000Y-121875000D01*
D33*
X133700000Y-120950000D02*
X134900000Y-120950000D01*
X133700000Y-119450000D02*
X134600000Y-119450000D01*
D35*
X113360000Y-118250000D02*
X113360000Y-119550000D01*
D33*
X134500000Y-122750000D02*
X132950000Y-122750000D01*
D35*
X123950000Y-114500000D02*
X124000000Y-114450000D01*
%TO.N,+3.3V*%
X120800000Y-122850000D02*
X120700000Y-122950000D01*
D36*
X101960000Y-128450000D02*
X102500000Y-128450000D01*
D35*
X126600000Y-121800000D02*
X126600000Y-122750000D01*
X125000000Y-121800000D02*
X125000000Y-122750000D01*
D36*
X125000000Y-121800000D02*
X125000000Y-121850000D01*
D33*
X130500000Y-121850000D02*
X131400000Y-122750000D01*
D36*
X104900000Y-127250000D02*
X105800000Y-126350000D01*
D35*
X128500000Y-122750000D02*
X131400000Y-122750000D01*
X123800000Y-122750000D02*
X125000000Y-122750000D01*
D33*
X130500000Y-120950000D02*
X130500000Y-121850000D01*
D35*
X107700000Y-122950000D02*
X105800000Y-124850000D01*
X125000000Y-122750000D02*
X126600000Y-122750000D01*
D36*
X105800000Y-126350000D02*
X105800000Y-124850000D01*
D35*
X120800000Y-122750000D02*
X120800000Y-122850000D01*
D36*
X102500000Y-128450000D02*
X103700000Y-127250000D01*
D35*
X120700000Y-122950000D02*
X107700000Y-122950000D01*
D36*
X103700000Y-127250000D02*
X104900000Y-127250000D01*
%TO.N,Net-(J4-CC1)*%
X117860000Y-120075000D02*
X117860000Y-117925000D01*
%TO.N,Net-(J4-CC2)*%
X114860000Y-120225000D02*
X114860000Y-118075000D01*
D35*
%TO.N,Net-(J4-SHIELD)*%
X112290000Y-113850000D02*
X112290000Y-112800000D01*
D37*
X112290000Y-116380000D02*
X112290000Y-112800000D01*
D35*
X112265000Y-113825000D02*
X112290000Y-113850000D01*
D33*
X120930000Y-112800000D02*
X122850000Y-112800000D01*
X122850000Y-112800000D02*
X122900000Y-112850000D01*
D37*
X120930000Y-116980000D02*
X120930000Y-112800000D01*
X120930000Y-112800000D02*
X112290000Y-112800000D01*
D38*
%TO.N,+5V*%
X114000000Y-121050000D02*
X113900000Y-120950000D01*
D37*
X113250000Y-121500000D02*
X113900000Y-120850000D01*
X101960000Y-125910000D02*
X101960000Y-123390000D01*
X106829063Y-118850000D02*
X106829063Y-114520937D01*
D35*
X119100000Y-119510000D02*
X119100000Y-120950000D01*
D38*
X119000000Y-121050000D02*
X114000000Y-121050000D01*
D37*
X106829063Y-118850000D02*
X106829063Y-119779063D01*
X108550000Y-121500000D02*
X107500000Y-120450000D01*
D38*
X119100000Y-120950000D02*
X119000000Y-121050000D01*
D35*
X119110000Y-117950000D02*
X119110000Y-119500000D01*
D37*
X111800000Y-121500000D02*
X113250000Y-121500000D01*
X101960000Y-123390000D02*
X104900000Y-120450000D01*
X104500000Y-125910000D02*
X104500000Y-120950000D01*
D35*
X114160000Y-117859835D02*
X114160000Y-120590000D01*
D37*
X104900000Y-120450000D02*
X107500000Y-120450000D01*
D35*
X119110000Y-119500000D02*
X119100000Y-119510000D01*
D37*
X111800000Y-121500000D02*
X108550000Y-121500000D01*
X106829063Y-114520937D02*
X108700000Y-112650000D01*
X106829063Y-119779063D02*
X107500000Y-120450000D01*
D35*
X114160000Y-120590000D02*
X113800000Y-120950000D01*
D36*
%TO.N,/SCL*%
X107040000Y-128450000D02*
X108340000Y-127150000D01*
X110500000Y-127150000D02*
X110900000Y-126750000D01*
X125800000Y-120950000D02*
X126600000Y-120150000D01*
D34*
X130500000Y-119950000D02*
X127400000Y-119950000D01*
D36*
X108340000Y-127150000D02*
X110500000Y-127150000D01*
X110900000Y-126750000D02*
X110900000Y-125052000D01*
D34*
X127400000Y-119950000D02*
X127200000Y-120150000D01*
D36*
X121400000Y-124150000D02*
X124600000Y-120950000D01*
X124600000Y-120950000D02*
X125800000Y-120950000D01*
X110900000Y-125052000D02*
X111802000Y-124150000D01*
D34*
X127200000Y-120150000D02*
X126600000Y-120150000D01*
D36*
X111802000Y-124150000D02*
X121400000Y-124150000D01*
%TO.N,/SDA*%
X108300000Y-126454537D02*
X108300000Y-125238442D01*
X109888442Y-123650000D02*
X121000000Y-123650000D01*
X104500000Y-128450000D02*
X105764000Y-127186000D01*
X107568537Y-127186000D02*
X108300000Y-126454537D01*
X121000000Y-123650000D02*
X124500000Y-120150000D01*
X105764000Y-127186000D02*
X107568537Y-127186000D01*
D34*
X125800000Y-119450000D02*
X125100000Y-120150000D01*
X130500000Y-119450000D02*
X125800000Y-119450000D01*
D36*
X108300000Y-125238442D02*
X109888442Y-123650000D01*
X124500000Y-120150000D02*
X125000000Y-120150000D01*
%TD*%
D39*
X137100000Y-116000000D02*
X152000000Y-116000000D01*
X132900000Y-111500000D02*
X137100000Y-116000000D01*
X100000000Y-130000000D02*
X152000000Y-130000000D01*
X100000000Y-111500000D02*
X132900000Y-111500000D01*
X152000000Y-116000000D02*
X152000000Y-130000000D01*
X100000000Y-111500000D02*
X100000000Y-130000000D01*
M02*
