M48
; DRILL file {KiCad 9.0.7-9.0.7~ubuntu24.04.1} date 2026-01-11T20:29:39+0100
; FORMAT={-:-/ absolute / metric / decimal}
; #@! TF.CreationDate,2026-01-11T20:29:39+01:00
; #@! TF.GenerationSoftware,Kicad,Pcbnew,9.0.7-9.0.7~ubuntu24.04.1
; #@! TF.FileFunction,Plated,1,2,PTH
FMAT,2
METRIC
; #@! TA.AperFunction,Plated,PTH,ViaDrill
T1C0.300
; #@! TA.AperFunction,Plated,PTH,ViaDrill
T2C0.400
; #@! TA.AperFunction,Plated,PTH,ComponentDrill
T3C0.600
; #@! TA.AperFunction,Plated,PTH,ComponentDrill
T4C0.700
; #@! TA.AperFunction,Plated,PTH,ComponentDrill
T5C0.800
; #@! TA.AperFunction,Plated,PTH,ComponentDrill
T6C1.000
%
G90
G05
T1
X127.5Y-118.8
X127.6Y-119.96
T2
X113.21Y-119.45
X116.46Y-121.9
X120.8Y-122.75
X120.81Y-118.9
X121.2Y-120.15
X123.8Y-122.75
X124.0Y-114.45
X126.1Y-113.3
X128.5Y-118.7
X128.5Y-120.7
X129.4Y-121.55
X134.1Y-122.75
T4
X102.8Y-112.55
X108.7Y-112.65
T5
X103.658Y-117.25
X104.329Y-118.85
X106.829Y-118.85
X107.5Y-120.45
T6
X101.96Y-125.91
X101.96Y-128.45
X104.5Y-125.91
X104.5Y-128.45
X107.04Y-125.91
X107.04Y-128.45
X109.58Y-125.91
X109.58Y-128.45
X112.12Y-125.91
X112.12Y-128.45
X114.66Y-125.91
X114.66Y-128.45
X117.2Y-125.91
X117.2Y-128.45
X119.74Y-125.91
X119.74Y-128.45
X122.28Y-125.91
X122.28Y-128.45
X124.82Y-125.91
X124.82Y-128.45
X127.36Y-125.91
X127.36Y-128.45
X129.9Y-125.91
X129.9Y-128.45
X132.44Y-125.91
X132.44Y-128.45
X134.98Y-125.91
X134.98Y-128.45
X137.52Y-125.91
X137.52Y-128.45
X140.06Y-125.91
X140.06Y-128.45
X142.6Y-125.91
X142.6Y-128.45
X145.14Y-125.91
X145.14Y-128.45
X147.68Y-125.91
X147.68Y-128.45
X150.22Y-125.91
X150.22Y-128.45
T3
G00X112.29Y-113.1
M15
G01X112.29Y-112.5
M16
G05
G00X112.29Y-117.53
M15
G01X112.29Y-116.43
M16
G05
G00X120.93Y-113.1
M15
G01X120.93Y-112.5
M16
G05
G00X120.93Y-117.53
M15
G01X120.93Y-116.43
M16
G05
M30
