%TF.GenerationSoftware,KiCad,Pcbnew,9.0.7-9.0.7~ubuntu24.04.1*%
%TF.CreationDate,2026-01-11T20:29:34+01:00*%
%TF.ProjectId,mfi,6d66692e-6b69-4636-9164-5f7063625858,rev?*%
%TF.SameCoordinates,Original*%
%TF.FileFunction,Legend,Top*%
%TF.FilePolarity,Positive*%
%FSLAX46Y46*%
G04 Gerber Fmt 4.6, Leading zero omitted, Abs format (unit mm)*
G04 Created by KiCad (PCBNEW 9.0.7-9.0.7~ubuntu24.04.1) date 2026-01-11 20:29:34*
%MOMM*%
%LPD*%
G01*
G04 APERTURE LIST*
%ADD10C,0.150000*%
%ADD11C,0.120000*%
%TA.AperFunction,Profile*%
%ADD12C,0.010000*%
%TD*%
G04 APERTURE END LIST*
D10*
X109450000Y-119550000D02*
X109450000Y-118050000D01*
X108700000Y-118800000D02*
X110200000Y-118800000D01*
G36*
X111155930Y-114742877D02*
G01*
X109783708Y-114742877D01*
X109783708Y-114162623D01*
X110134355Y-114162623D01*
X110134355Y-114191887D01*
X110145554Y-114218923D01*
X110166246Y-114239615D01*
X110193282Y-114250814D01*
X110207914Y-114252255D01*
X110513866Y-114252255D01*
X110513866Y-114558207D01*
X110515307Y-114572839D01*
X110526506Y-114599875D01*
X110547198Y-114620567D01*
X110574234Y-114631766D01*
X110603498Y-114631766D01*
X110630534Y-114620567D01*
X110651226Y-114599875D01*
X110662425Y-114572839D01*
X110663866Y-114558207D01*
X110663866Y-114252255D01*
X110969819Y-114252255D01*
X110984451Y-114250814D01*
X111011487Y-114239615D01*
X111032179Y-114218923D01*
X111043378Y-114191887D01*
X111043378Y-114162623D01*
X111032179Y-114135587D01*
X111011487Y-114114895D01*
X110984451Y-114103696D01*
X110969819Y-114102255D01*
X110663866Y-114102255D01*
X110663866Y-113796303D01*
X110662425Y-113781671D01*
X110651226Y-113754635D01*
X110630534Y-113733943D01*
X110603498Y-113722744D01*
X110574234Y-113722744D01*
X110547198Y-113733943D01*
X110526506Y-113754635D01*
X110515307Y-113781671D01*
X110513866Y-113796303D01*
X110513866Y-114102255D01*
X110207914Y-114102255D01*
X110193282Y-114103696D01*
X110166246Y-114114895D01*
X110145554Y-114135587D01*
X110134355Y-114162623D01*
X109783708Y-114162623D01*
X109783708Y-112843922D01*
X109894819Y-112843922D01*
X109894819Y-113320112D01*
X109895351Y-113325523D01*
X109895169Y-113327352D01*
X109895707Y-113329138D01*
X109896260Y-113334744D01*
X109900454Y-113344870D01*
X109903622Y-113355368D01*
X109906013Y-113358291D01*
X109907459Y-113361780D01*
X109915212Y-113369533D01*
X109922153Y-113378016D01*
X109925479Y-113379800D01*
X109928151Y-113382472D01*
X109938280Y-113386667D01*
X109947940Y-113391850D01*
X109953464Y-113392957D01*
X109955187Y-113393671D01*
X109957024Y-113393671D01*
X109962356Y-113394740D01*
X110438546Y-113442359D01*
X110453249Y-113442381D01*
X110456865Y-113441290D01*
X110460640Y-113441290D01*
X110470764Y-113437096D01*
X110481265Y-113433928D01*
X110484189Y-113431535D01*
X110487676Y-113430091D01*
X110495424Y-113422342D01*
X110503913Y-113415397D01*
X110505698Y-113412068D01*
X110508369Y-113409398D01*
X110512562Y-113399273D01*
X110517747Y-113389610D01*
X110518122Y-113385850D01*
X110519568Y-113382362D01*
X110519568Y-113371400D01*
X110520659Y-113360491D01*
X110519568Y-113356875D01*
X110519568Y-113353099D01*
X110515373Y-113342972D01*
X110512206Y-113332475D01*
X110509814Y-113329551D01*
X110508369Y-113326063D01*
X110499042Y-113314698D01*
X110460029Y-113275685D01*
X110425771Y-113207169D01*
X110425771Y-113004484D01*
X110460029Y-112935968D01*
X110490436Y-112905561D01*
X110558952Y-112871303D01*
X110761637Y-112871303D01*
X110830153Y-112905561D01*
X110860561Y-112935968D01*
X110894819Y-113004484D01*
X110894819Y-113207169D01*
X110860561Y-113275684D01*
X110821548Y-113314697D01*
X110812220Y-113326063D01*
X110801021Y-113353099D01*
X110801021Y-113382362D01*
X110812219Y-113409398D01*
X110832912Y-113430091D01*
X110859948Y-113441290D01*
X110889211Y-113441290D01*
X110916247Y-113430092D01*
X110927612Y-113420765D01*
X110975232Y-113373146D01*
X110979950Y-113367396D01*
X110981450Y-113366096D01*
X110982872Y-113363836D01*
X110984560Y-113361780D01*
X110985317Y-113359952D01*
X110989282Y-113353653D01*
X111036901Y-113258415D01*
X111042156Y-113244684D01*
X111042347Y-113241994D01*
X111043378Y-113239506D01*
X111044819Y-113224874D01*
X111044819Y-112986779D01*
X111043378Y-112972147D01*
X111042347Y-112969658D01*
X111042156Y-112966969D01*
X111036901Y-112953238D01*
X110989282Y-112858000D01*
X110985317Y-112851700D01*
X110984560Y-112849873D01*
X110982872Y-112847816D01*
X110981450Y-112845557D01*
X110979950Y-112844256D01*
X110975232Y-112838507D01*
X110927612Y-112790888D01*
X110921863Y-112786170D01*
X110920564Y-112784672D01*
X110918305Y-112783250D01*
X110916247Y-112781561D01*
X110914417Y-112780803D01*
X110908121Y-112776840D01*
X110812883Y-112729221D01*
X110799151Y-112723966D01*
X110796463Y-112723775D01*
X110793974Y-112722744D01*
X110779342Y-112721303D01*
X110541247Y-112721303D01*
X110526615Y-112722744D01*
X110524126Y-112723774D01*
X110521437Y-112723966D01*
X110507706Y-112729221D01*
X110412468Y-112776840D01*
X110406168Y-112780804D01*
X110404341Y-112781562D01*
X110402284Y-112783250D01*
X110400025Y-112784672D01*
X110398725Y-112786170D01*
X110392976Y-112790889D01*
X110345357Y-112838508D01*
X110340638Y-112844257D01*
X110339140Y-112845557D01*
X110337718Y-112847816D01*
X110336030Y-112849873D01*
X110335272Y-112851700D01*
X110331308Y-112858000D01*
X110283689Y-112953238D01*
X110278434Y-112966970D01*
X110278243Y-112969657D01*
X110277212Y-112972147D01*
X110275771Y-112986779D01*
X110275771Y-113224874D01*
X110277212Y-113239506D01*
X110278243Y-113241995D01*
X110278434Y-113244683D01*
X110283689Y-113258415D01*
X110293009Y-113277056D01*
X110044819Y-113252237D01*
X110044819Y-112843922D01*
X110043378Y-112829290D01*
X110032179Y-112802254D01*
X110011487Y-112781562D01*
X109984451Y-112770363D01*
X109955187Y-112770363D01*
X109928151Y-112781562D01*
X109907459Y-112802254D01*
X109896260Y-112829290D01*
X109894819Y-112843922D01*
X109783708Y-112843922D01*
X109783708Y-111834542D01*
X109895408Y-111834542D01*
X109897483Y-111863732D01*
X109910569Y-111889905D01*
X109932676Y-111909079D01*
X109946102Y-111915073D01*
X110732648Y-112177255D01*
X109946102Y-112439437D01*
X109932676Y-112445431D01*
X109910569Y-112464605D01*
X109897483Y-112490778D01*
X109895408Y-112519968D01*
X109904662Y-112547731D01*
X109923836Y-112569838D01*
X109950009Y-112582924D01*
X109979199Y-112584999D01*
X109993536Y-112581739D01*
X110993536Y-112248406D01*
X111006961Y-112242412D01*
X111011008Y-112238901D01*
X111015802Y-112236505D01*
X111021966Y-112229397D01*
X111029068Y-112223238D01*
X111031463Y-112218446D01*
X111034976Y-112214397D01*
X111037950Y-112205474D01*
X111042155Y-112197065D01*
X111042534Y-112191720D01*
X111044230Y-112186635D01*
X111043563Y-112177255D01*
X111044230Y-112167875D01*
X111042534Y-112162789D01*
X111042155Y-112157445D01*
X111037950Y-112149035D01*
X111034976Y-112140113D01*
X111031463Y-112136063D01*
X111029068Y-112131272D01*
X111021966Y-112125112D01*
X111015802Y-112118005D01*
X111011008Y-112115608D01*
X111006961Y-112112098D01*
X110993536Y-112106104D01*
X109993536Y-111772771D01*
X109979199Y-111769511D01*
X109950009Y-111771586D01*
X109923836Y-111784672D01*
X109904662Y-111806779D01*
X109895408Y-111834542D01*
X109783708Y-111834542D01*
X109783708Y-111658400D01*
X111155930Y-111658400D01*
X111155930Y-114742877D01*
G37*
G36*
X101305547Y-111857543D02*
G01*
X101382534Y-111896037D01*
X101456648Y-111970150D01*
X101494819Y-112084663D01*
X101494819Y-112235588D01*
X100644819Y-112235588D01*
X100644819Y-112084663D01*
X100682990Y-111970149D01*
X100757103Y-111896037D01*
X100834090Y-111857543D01*
X101007624Y-111814160D01*
X101132013Y-111814160D01*
X101305547Y-111857543D01*
G37*
G36*
X101755930Y-114591937D02*
G01*
X100383708Y-114591937D01*
X100383708Y-113929636D01*
X100494819Y-113929636D01*
X100494819Y-114072493D01*
X100495548Y-114079898D01*
X100495408Y-114081873D01*
X100495998Y-114084470D01*
X100496260Y-114087125D01*
X100497018Y-114088956D01*
X100498668Y-114096210D01*
X100546287Y-114239067D01*
X100552281Y-114252492D01*
X100554046Y-114254527D01*
X100555078Y-114257018D01*
X100564405Y-114268383D01*
X100659643Y-114363621D01*
X100665393Y-114368341D01*
X100666692Y-114369838D01*
X100668946Y-114371257D01*
X100671008Y-114372949D01*
X100672840Y-114373707D01*
X100679135Y-114377670D01*
X100774373Y-114425289D01*
X100775442Y-114425698D01*
X100775878Y-114426021D01*
X100782014Y-114428213D01*
X100788104Y-114430544D01*
X100788644Y-114430582D01*
X100789724Y-114430968D01*
X100980200Y-114478587D01*
X100982736Y-114478962D01*
X100983758Y-114479385D01*
X100989270Y-114479927D01*
X100994744Y-114480737D01*
X100995836Y-114480574D01*
X100998390Y-114480826D01*
X101141247Y-114480826D01*
X101143800Y-114480574D01*
X101144893Y-114480737D01*
X101150366Y-114479927D01*
X101155879Y-114479385D01*
X101156900Y-114478962D01*
X101159437Y-114478587D01*
X101349913Y-114430968D01*
X101350992Y-114430582D01*
X101351532Y-114430544D01*
X101357613Y-114428216D01*
X101363759Y-114426021D01*
X101364194Y-114425698D01*
X101365264Y-114425289D01*
X101460502Y-114377670D01*
X101466798Y-114373706D01*
X101468628Y-114372949D01*
X101470686Y-114371259D01*
X101472945Y-114369838D01*
X101474244Y-114368339D01*
X101479994Y-114363621D01*
X101575233Y-114268383D01*
X101584561Y-114257018D01*
X101585592Y-114254527D01*
X101587357Y-114252493D01*
X101593351Y-114239067D01*
X101640970Y-114096211D01*
X101642619Y-114088955D01*
X101643378Y-114087125D01*
X101643639Y-114084471D01*
X101644230Y-114081874D01*
X101644089Y-114079899D01*
X101644819Y-114072493D01*
X101644819Y-113977255D01*
X101644089Y-113969848D01*
X101644230Y-113967874D01*
X101643639Y-113965276D01*
X101643378Y-113962623D01*
X101642619Y-113960792D01*
X101640970Y-113953537D01*
X101593351Y-113810681D01*
X101587357Y-113797255D01*
X101585590Y-113795218D01*
X101584560Y-113792730D01*
X101575232Y-113781364D01*
X101527612Y-113733745D01*
X101516247Y-113724418D01*
X101500410Y-113717858D01*
X101489212Y-113713220D01*
X101474580Y-113711779D01*
X101141247Y-113711779D01*
X101126615Y-113713220D01*
X101099579Y-113724419D01*
X101078887Y-113745111D01*
X101067688Y-113772147D01*
X101066247Y-113786779D01*
X101066247Y-113977255D01*
X101067688Y-113991887D01*
X101078887Y-114018923D01*
X101099579Y-114039615D01*
X101126615Y-114050814D01*
X101155879Y-114050814D01*
X101182915Y-114039615D01*
X101203607Y-114018923D01*
X101214806Y-113991887D01*
X101216247Y-113977255D01*
X101216247Y-113861779D01*
X101443514Y-113861779D01*
X101456648Y-113874912D01*
X101494819Y-113989425D01*
X101494819Y-114060323D01*
X101456648Y-114174835D01*
X101382534Y-114248948D01*
X101305547Y-114287442D01*
X101132013Y-114330826D01*
X101007624Y-114330826D01*
X100834090Y-114287442D01*
X100757103Y-114248949D01*
X100682990Y-114174836D01*
X100644819Y-114060322D01*
X100644819Y-113947341D01*
X100684520Y-113867939D01*
X100689775Y-113854208D01*
X100691849Y-113825018D01*
X100682595Y-113797256D01*
X100663422Y-113775149D01*
X100637247Y-113762061D01*
X100608057Y-113759987D01*
X100580296Y-113769241D01*
X100558188Y-113788414D01*
X100550356Y-113800857D01*
X100502737Y-113896095D01*
X100497482Y-113909827D01*
X100497291Y-113912514D01*
X100496260Y-113915004D01*
X100494819Y-113929636D01*
X100383708Y-113929636D01*
X100383708Y-113352968D01*
X100495002Y-113352968D01*
X100496260Y-113362864D01*
X100496260Y-113372839D01*
X100498089Y-113377254D01*
X100498692Y-113381998D01*
X100503642Y-113390662D01*
X100507459Y-113399875D01*
X100510837Y-113403253D01*
X100513211Y-113407407D01*
X100521100Y-113413516D01*
X100528151Y-113420567D01*
X100532567Y-113422396D01*
X100536348Y-113425324D01*
X100545971Y-113427948D01*
X100555187Y-113431766D01*
X100562669Y-113432502D01*
X100564580Y-113433024D01*
X100566055Y-113432836D01*
X100569819Y-113433207D01*
X101569819Y-113433207D01*
X101584451Y-113431766D01*
X101611487Y-113420567D01*
X101632179Y-113399875D01*
X101643378Y-113372839D01*
X101643378Y-113343575D01*
X101632179Y-113316539D01*
X101611487Y-113295847D01*
X101584451Y-113284648D01*
X101569819Y-113283207D01*
X100852236Y-113283207D01*
X101607030Y-112851897D01*
X101610114Y-112849707D01*
X101611487Y-112849139D01*
X101612884Y-112847741D01*
X101619019Y-112843387D01*
X101625127Y-112835498D01*
X101632179Y-112828447D01*
X101634009Y-112824028D01*
X101636936Y-112820249D01*
X101639560Y-112810627D01*
X101643378Y-112801411D01*
X101643378Y-112796630D01*
X101644636Y-112792018D01*
X101643378Y-112782121D01*
X101643378Y-112772147D01*
X101641548Y-112767731D01*
X101640946Y-112762988D01*
X101635995Y-112754323D01*
X101632179Y-112745111D01*
X101628800Y-112741732D01*
X101626427Y-112737579D01*
X101618537Y-112731469D01*
X101611487Y-112724419D01*
X101607070Y-112722589D01*
X101603290Y-112719662D01*
X101593666Y-112717037D01*
X101584451Y-112713220D01*
X101576968Y-112712483D01*
X101575058Y-112711962D01*
X101573582Y-112712149D01*
X101569819Y-112711779D01*
X100569819Y-112711779D01*
X100555187Y-112713220D01*
X100528151Y-112724419D01*
X100507459Y-112745111D01*
X100496260Y-112772147D01*
X100496260Y-112801411D01*
X100507459Y-112828447D01*
X100528151Y-112849139D01*
X100555187Y-112860338D01*
X100569819Y-112861779D01*
X101287402Y-112861779D01*
X100532609Y-113293089D01*
X100529525Y-113295277D01*
X100528151Y-113295847D01*
X100526751Y-113297246D01*
X100520619Y-113301599D01*
X100514509Y-113309488D01*
X100507459Y-113316539D01*
X100505629Y-113320955D01*
X100502702Y-113324736D01*
X100500077Y-113334359D01*
X100496260Y-113343575D01*
X100496260Y-113348355D01*
X100495002Y-113352968D01*
X100383708Y-113352968D01*
X100383708Y-112072493D01*
X100494819Y-112072493D01*
X100494819Y-112310588D01*
X100496260Y-112325220D01*
X100507459Y-112352256D01*
X100528151Y-112372948D01*
X100555187Y-112384147D01*
X100569819Y-112385588D01*
X101569819Y-112385588D01*
X101584451Y-112384147D01*
X101611487Y-112372948D01*
X101632179Y-112352256D01*
X101643378Y-112325220D01*
X101644819Y-112310588D01*
X101644819Y-112072493D01*
X101644089Y-112065086D01*
X101644230Y-112063112D01*
X101643639Y-112060514D01*
X101643378Y-112057861D01*
X101642619Y-112056030D01*
X101640970Y-112048775D01*
X101593351Y-111905919D01*
X101587357Y-111892493D01*
X101585592Y-111890458D01*
X101584561Y-111887968D01*
X101575233Y-111876603D01*
X101479994Y-111781365D01*
X101474244Y-111776646D01*
X101472945Y-111775148D01*
X101470686Y-111773726D01*
X101468628Y-111772037D01*
X101466798Y-111771279D01*
X101460502Y-111767316D01*
X101365264Y-111719697D01*
X101364194Y-111719287D01*
X101363759Y-111718965D01*
X101357613Y-111716769D01*
X101351532Y-111714442D01*
X101350992Y-111714403D01*
X101349913Y-111714018D01*
X101159437Y-111666399D01*
X101156900Y-111666023D01*
X101155879Y-111665601D01*
X101150366Y-111665058D01*
X101144893Y-111664249D01*
X101143800Y-111664411D01*
X101141247Y-111664160D01*
X100998390Y-111664160D01*
X100995836Y-111664411D01*
X100994744Y-111664249D01*
X100989270Y-111665058D01*
X100983758Y-111665601D01*
X100982736Y-111666023D01*
X100980200Y-111666399D01*
X100789724Y-111714018D01*
X100788644Y-111714403D01*
X100788104Y-111714442D01*
X100782014Y-111716772D01*
X100775878Y-111718965D01*
X100775442Y-111719287D01*
X100774373Y-111719697D01*
X100679135Y-111767316D01*
X100672840Y-111771278D01*
X100671008Y-111772037D01*
X100668946Y-111773728D01*
X100666692Y-111775148D01*
X100665393Y-111776644D01*
X100659643Y-111781365D01*
X100564405Y-111876603D01*
X100555078Y-111887968D01*
X100554046Y-111890458D01*
X100552281Y-111892494D01*
X100546287Y-111905919D01*
X100498668Y-112048776D01*
X100497018Y-112056029D01*
X100496260Y-112057861D01*
X100495998Y-112060515D01*
X100495408Y-112063113D01*
X100495548Y-112065087D01*
X100494819Y-112072493D01*
X100383708Y-112072493D01*
X100383708Y-111553049D01*
X101755930Y-111553049D01*
X101755930Y-114591937D01*
G37*
X142546207Y-118029819D02*
X142546207Y-118839342D01*
X142546207Y-118839342D02*
X142593826Y-118934580D01*
X142593826Y-118934580D02*
X142641445Y-118982200D01*
X142641445Y-118982200D02*
X142736683Y-119029819D01*
X142736683Y-119029819D02*
X142927159Y-119029819D01*
X142927159Y-119029819D02*
X143022397Y-118982200D01*
X143022397Y-118982200D02*
X143070016Y-118934580D01*
X143070016Y-118934580D02*
X143117635Y-118839342D01*
X143117635Y-118839342D02*
X143117635Y-118029819D01*
X143498588Y-118029819D02*
X144117635Y-118029819D01*
X144117635Y-118029819D02*
X143784302Y-118410771D01*
X143784302Y-118410771D02*
X143927159Y-118410771D01*
X143927159Y-118410771D02*
X144022397Y-118458390D01*
X144022397Y-118458390D02*
X144070016Y-118506009D01*
X144070016Y-118506009D02*
X144117635Y-118601247D01*
X144117635Y-118601247D02*
X144117635Y-118839342D01*
X144117635Y-118839342D02*
X144070016Y-118934580D01*
X144070016Y-118934580D02*
X144022397Y-118982200D01*
X144022397Y-118982200D02*
X143927159Y-119029819D01*
X143927159Y-119029819D02*
X143641445Y-119029819D01*
X143641445Y-119029819D02*
X143546207Y-118982200D01*
X143546207Y-118982200D02*
X143498588Y-118934580D01*
X124654819Y-116361904D02*
X125464342Y-116361904D01*
X125464342Y-116361904D02*
X125559580Y-116314285D01*
X125559580Y-116314285D02*
X125607200Y-116266666D01*
X125607200Y-116266666D02*
X125654819Y-116171428D01*
X125654819Y-116171428D02*
X125654819Y-115980952D01*
X125654819Y-115980952D02*
X125607200Y-115885714D01*
X125607200Y-115885714D02*
X125559580Y-115838095D01*
X125559580Y-115838095D02*
X125464342Y-115790476D01*
X125464342Y-115790476D02*
X124654819Y-115790476D01*
X124750057Y-115361904D02*
X124702438Y-115314285D01*
X124702438Y-115314285D02*
X124654819Y-115219047D01*
X124654819Y-115219047D02*
X124654819Y-114980952D01*
X124654819Y-114980952D02*
X124702438Y-114885714D01*
X124702438Y-114885714D02*
X124750057Y-114838095D01*
X124750057Y-114838095D02*
X124845295Y-114790476D01*
X124845295Y-114790476D02*
X124940533Y-114790476D01*
X124940533Y-114790476D02*
X125083390Y-114838095D01*
X125083390Y-114838095D02*
X125654819Y-115409523D01*
X125654819Y-115409523D02*
X125654819Y-114790476D01*
X105333333Y-113309580D02*
X105285714Y-113357200D01*
X105285714Y-113357200D02*
X105142857Y-113404819D01*
X105142857Y-113404819D02*
X105047619Y-113404819D01*
X105047619Y-113404819D02*
X104904762Y-113357200D01*
X104904762Y-113357200D02*
X104809524Y-113261961D01*
X104809524Y-113261961D02*
X104761905Y-113166723D01*
X104761905Y-113166723D02*
X104714286Y-112976247D01*
X104714286Y-112976247D02*
X104714286Y-112833390D01*
X104714286Y-112833390D02*
X104761905Y-112642914D01*
X104761905Y-112642914D02*
X104809524Y-112547676D01*
X104809524Y-112547676D02*
X104904762Y-112452438D01*
X104904762Y-112452438D02*
X105047619Y-112404819D01*
X105047619Y-112404819D02*
X105142857Y-112404819D01*
X105142857Y-112404819D02*
X105285714Y-112452438D01*
X105285714Y-112452438D02*
X105333333Y-112500057D01*
X105666667Y-112404819D02*
X106285714Y-112404819D01*
X106285714Y-112404819D02*
X105952381Y-112785771D01*
X105952381Y-112785771D02*
X106095238Y-112785771D01*
X106095238Y-112785771D02*
X106190476Y-112833390D01*
X106190476Y-112833390D02*
X106238095Y-112881009D01*
X106238095Y-112881009D02*
X106285714Y-112976247D01*
X106285714Y-112976247D02*
X106285714Y-113214342D01*
X106285714Y-113214342D02*
X106238095Y-113309580D01*
X106238095Y-113309580D02*
X106190476Y-113357200D01*
X106190476Y-113357200D02*
X106095238Y-113404819D01*
X106095238Y-113404819D02*
X105809524Y-113404819D01*
X105809524Y-113404819D02*
X105714286Y-113357200D01*
X105714286Y-113357200D02*
X105666667Y-113309580D01*
X100966666Y-123154819D02*
X100966666Y-123869104D01*
X100966666Y-123869104D02*
X100919047Y-124011961D01*
X100919047Y-124011961D02*
X100823809Y-124107200D01*
X100823809Y-124107200D02*
X100680952Y-124154819D01*
X100680952Y-124154819D02*
X100585714Y-124154819D01*
X101966666Y-124154819D02*
X101395238Y-124154819D01*
X101680952Y-124154819D02*
X101680952Y-123154819D01*
X101680952Y-123154819D02*
X101585714Y-123297676D01*
X101585714Y-123297676D02*
X101490476Y-123392914D01*
X101490476Y-123392914D02*
X101395238Y-123440533D01*
X130533333Y-113659580D02*
X130485714Y-113707200D01*
X130485714Y-113707200D02*
X130342857Y-113754819D01*
X130342857Y-113754819D02*
X130247619Y-113754819D01*
X130247619Y-113754819D02*
X130104762Y-113707200D01*
X130104762Y-113707200D02*
X130009524Y-113611961D01*
X130009524Y-113611961D02*
X129961905Y-113516723D01*
X129961905Y-113516723D02*
X129914286Y-113326247D01*
X129914286Y-113326247D02*
X129914286Y-113183390D01*
X129914286Y-113183390D02*
X129961905Y-112992914D01*
X129961905Y-112992914D02*
X130009524Y-112897676D01*
X130009524Y-112897676D02*
X130104762Y-112802438D01*
X130104762Y-112802438D02*
X130247619Y-112754819D01*
X130247619Y-112754819D02*
X130342857Y-112754819D01*
X130342857Y-112754819D02*
X130485714Y-112802438D01*
X130485714Y-112802438D02*
X130533333Y-112850057D01*
X130914286Y-112850057D02*
X130961905Y-112802438D01*
X130961905Y-112802438D02*
X131057143Y-112754819D01*
X131057143Y-112754819D02*
X131295238Y-112754819D01*
X131295238Y-112754819D02*
X131390476Y-112802438D01*
X131390476Y-112802438D02*
X131438095Y-112850057D01*
X131438095Y-112850057D02*
X131485714Y-112945295D01*
X131485714Y-112945295D02*
X131485714Y-113040533D01*
X131485714Y-113040533D02*
X131438095Y-113183390D01*
X131438095Y-113183390D02*
X130866667Y-113754819D01*
X130866667Y-113754819D02*
X131485714Y-113754819D01*
X111533333Y-123259580D02*
X111485714Y-123307200D01*
X111485714Y-123307200D02*
X111342857Y-123354819D01*
X111342857Y-123354819D02*
X111247619Y-123354819D01*
X111247619Y-123354819D02*
X111104762Y-123307200D01*
X111104762Y-123307200D02*
X111009524Y-123211961D01*
X111009524Y-123211961D02*
X110961905Y-123116723D01*
X110961905Y-123116723D02*
X110914286Y-122926247D01*
X110914286Y-122926247D02*
X110914286Y-122783390D01*
X110914286Y-122783390D02*
X110961905Y-122592914D01*
X110961905Y-122592914D02*
X111009524Y-122497676D01*
X111009524Y-122497676D02*
X111104762Y-122402438D01*
X111104762Y-122402438D02*
X111247619Y-122354819D01*
X111247619Y-122354819D02*
X111342857Y-122354819D01*
X111342857Y-122354819D02*
X111485714Y-122402438D01*
X111485714Y-122402438D02*
X111533333Y-122450057D01*
X112009524Y-123354819D02*
X112200000Y-123354819D01*
X112200000Y-123354819D02*
X112295238Y-123307200D01*
X112295238Y-123307200D02*
X112342857Y-123259580D01*
X112342857Y-123259580D02*
X112438095Y-123116723D01*
X112438095Y-123116723D02*
X112485714Y-122926247D01*
X112485714Y-122926247D02*
X112485714Y-122545295D01*
X112485714Y-122545295D02*
X112438095Y-122450057D01*
X112438095Y-122450057D02*
X112390476Y-122402438D01*
X112390476Y-122402438D02*
X112295238Y-122354819D01*
X112295238Y-122354819D02*
X112104762Y-122354819D01*
X112104762Y-122354819D02*
X112009524Y-122402438D01*
X112009524Y-122402438D02*
X111961905Y-122450057D01*
X111961905Y-122450057D02*
X111914286Y-122545295D01*
X111914286Y-122545295D02*
X111914286Y-122783390D01*
X111914286Y-122783390D02*
X111961905Y-122878628D01*
X111961905Y-122878628D02*
X112009524Y-122926247D01*
X112009524Y-122926247D02*
X112104762Y-122973866D01*
X112104762Y-122973866D02*
X112295238Y-122973866D01*
X112295238Y-122973866D02*
X112390476Y-122926247D01*
X112390476Y-122926247D02*
X112438095Y-122878628D01*
X112438095Y-122878628D02*
X112485714Y-122783390D01*
X114462295Y-121683332D02*
X114081342Y-121949999D01*
X114462295Y-122140475D02*
X113662295Y-122140475D01*
X113662295Y-122140475D02*
X113662295Y-121835713D01*
X113662295Y-121835713D02*
X113700390Y-121759523D01*
X113700390Y-121759523D02*
X113738485Y-121721428D01*
X113738485Y-121721428D02*
X113814676Y-121683332D01*
X113814676Y-121683332D02*
X113928961Y-121683332D01*
X113928961Y-121683332D02*
X114005152Y-121721428D01*
X114005152Y-121721428D02*
X114043247Y-121759523D01*
X114043247Y-121759523D02*
X114081342Y-121835713D01*
X114081342Y-121835713D02*
X114081342Y-122140475D01*
X113928961Y-120997618D02*
X114462295Y-120997618D01*
X113624200Y-121188094D02*
X114195628Y-121378571D01*
X114195628Y-121378571D02*
X114195628Y-120883332D01*
X123304819Y-116191666D02*
X122828628Y-116524999D01*
X123304819Y-116763094D02*
X122304819Y-116763094D01*
X122304819Y-116763094D02*
X122304819Y-116382142D01*
X122304819Y-116382142D02*
X122352438Y-116286904D01*
X122352438Y-116286904D02*
X122400057Y-116239285D01*
X122400057Y-116239285D02*
X122495295Y-116191666D01*
X122495295Y-116191666D02*
X122638152Y-116191666D01*
X122638152Y-116191666D02*
X122733390Y-116239285D01*
X122733390Y-116239285D02*
X122781009Y-116286904D01*
X122781009Y-116286904D02*
X122828628Y-116382142D01*
X122828628Y-116382142D02*
X122828628Y-116763094D01*
X122304819Y-115286904D02*
X122304819Y-115763094D01*
X122304819Y-115763094D02*
X122781009Y-115810713D01*
X122781009Y-115810713D02*
X122733390Y-115763094D01*
X122733390Y-115763094D02*
X122685771Y-115667856D01*
X122685771Y-115667856D02*
X122685771Y-115429761D01*
X122685771Y-115429761D02*
X122733390Y-115334523D01*
X122733390Y-115334523D02*
X122781009Y-115286904D01*
X122781009Y-115286904D02*
X122876247Y-115239285D01*
X122876247Y-115239285D02*
X123114342Y-115239285D01*
X123114342Y-115239285D02*
X123209580Y-115286904D01*
X123209580Y-115286904D02*
X123257200Y-115334523D01*
X123257200Y-115334523D02*
X123304819Y-115429761D01*
X123304819Y-115429761D02*
X123304819Y-115667856D01*
X123304819Y-115667856D02*
X123257200Y-115763094D01*
X123257200Y-115763094D02*
X123209580Y-115810713D01*
X110454819Y-116683333D02*
X111169104Y-116683333D01*
X111169104Y-116683333D02*
X111311961Y-116730952D01*
X111311961Y-116730952D02*
X111407200Y-116826190D01*
X111407200Y-116826190D02*
X111454819Y-116969047D01*
X111454819Y-116969047D02*
X111454819Y-117064285D01*
X110788152Y-115778571D02*
X111454819Y-115778571D01*
X110407200Y-116016666D02*
X111121485Y-116254761D01*
X111121485Y-116254761D02*
X111121485Y-115635714D01*
X116862295Y-120683332D02*
X116481342Y-120949999D01*
X116862295Y-121140475D02*
X116062295Y-121140475D01*
X116062295Y-121140475D02*
X116062295Y-120835713D01*
X116062295Y-120835713D02*
X116100390Y-120759523D01*
X116100390Y-120759523D02*
X116138485Y-120721428D01*
X116138485Y-120721428D02*
X116214676Y-120683332D01*
X116214676Y-120683332D02*
X116328961Y-120683332D01*
X116328961Y-120683332D02*
X116405152Y-120721428D01*
X116405152Y-120721428D02*
X116443247Y-120759523D01*
X116443247Y-120759523D02*
X116481342Y-120835713D01*
X116481342Y-120835713D02*
X116481342Y-121140475D01*
X116062295Y-120416666D02*
X116062295Y-119921428D01*
X116062295Y-119921428D02*
X116367057Y-120188094D01*
X116367057Y-120188094D02*
X116367057Y-120073809D01*
X116367057Y-120073809D02*
X116405152Y-119997618D01*
X116405152Y-119997618D02*
X116443247Y-119959523D01*
X116443247Y-119959523D02*
X116519438Y-119921428D01*
X116519438Y-119921428D02*
X116709914Y-119921428D01*
X116709914Y-119921428D02*
X116786104Y-119959523D01*
X116786104Y-119959523D02*
X116824200Y-119997618D01*
X116824200Y-119997618D02*
X116862295Y-120073809D01*
X116862295Y-120073809D02*
X116862295Y-120302380D01*
X116862295Y-120302380D02*
X116824200Y-120378571D01*
X116824200Y-120378571D02*
X116786104Y-120416666D01*
X135238095Y-120404819D02*
X135238095Y-121214342D01*
X135238095Y-121214342D02*
X135285714Y-121309580D01*
X135285714Y-121309580D02*
X135333333Y-121357200D01*
X135333333Y-121357200D02*
X135428571Y-121404819D01*
X135428571Y-121404819D02*
X135619047Y-121404819D01*
X135619047Y-121404819D02*
X135714285Y-121357200D01*
X135714285Y-121357200D02*
X135761904Y-121309580D01*
X135761904Y-121309580D02*
X135809523Y-121214342D01*
X135809523Y-121214342D02*
X135809523Y-120404819D01*
X136809523Y-121404819D02*
X136238095Y-121404819D01*
X136523809Y-121404819D02*
X136523809Y-120404819D01*
X136523809Y-120404819D02*
X136428571Y-120547676D01*
X136428571Y-120547676D02*
X136333333Y-120642914D01*
X136333333Y-120642914D02*
X136238095Y-120690533D01*
X125554819Y-118616666D02*
X125078628Y-118949999D01*
X125554819Y-119188094D02*
X124554819Y-119188094D01*
X124554819Y-119188094D02*
X124554819Y-118807142D01*
X124554819Y-118807142D02*
X124602438Y-118711904D01*
X124602438Y-118711904D02*
X124650057Y-118664285D01*
X124650057Y-118664285D02*
X124745295Y-118616666D01*
X124745295Y-118616666D02*
X124888152Y-118616666D01*
X124888152Y-118616666D02*
X124983390Y-118664285D01*
X124983390Y-118664285D02*
X125031009Y-118711904D01*
X125031009Y-118711904D02*
X125078628Y-118807142D01*
X125078628Y-118807142D02*
X125078628Y-119188094D01*
X124650057Y-118235713D02*
X124602438Y-118188094D01*
X124602438Y-118188094D02*
X124554819Y-118092856D01*
X124554819Y-118092856D02*
X124554819Y-117854761D01*
X124554819Y-117854761D02*
X124602438Y-117759523D01*
X124602438Y-117759523D02*
X124650057Y-117711904D01*
X124650057Y-117711904D02*
X124745295Y-117664285D01*
X124745295Y-117664285D02*
X124840533Y-117664285D01*
X124840533Y-117664285D02*
X124983390Y-117711904D01*
X124983390Y-117711904D02*
X125554819Y-118283332D01*
X125554819Y-118283332D02*
X125554819Y-117664285D01*
X118761905Y-123054819D02*
X118761905Y-122054819D01*
X118761905Y-122054819D02*
X119000000Y-122054819D01*
X119000000Y-122054819D02*
X119142857Y-122102438D01*
X119142857Y-122102438D02*
X119238095Y-122197676D01*
X119238095Y-122197676D02*
X119285714Y-122292914D01*
X119285714Y-122292914D02*
X119333333Y-122483390D01*
X119333333Y-122483390D02*
X119333333Y-122626247D01*
X119333333Y-122626247D02*
X119285714Y-122816723D01*
X119285714Y-122816723D02*
X119238095Y-122911961D01*
X119238095Y-122911961D02*
X119142857Y-123007200D01*
X119142857Y-123007200D02*
X119000000Y-123054819D01*
X119000000Y-123054819D02*
X118761905Y-123054819D01*
X120238095Y-122054819D02*
X119761905Y-122054819D01*
X119761905Y-122054819D02*
X119714286Y-122531009D01*
X119714286Y-122531009D02*
X119761905Y-122483390D01*
X119761905Y-122483390D02*
X119857143Y-122435771D01*
X119857143Y-122435771D02*
X120095238Y-122435771D01*
X120095238Y-122435771D02*
X120190476Y-122483390D01*
X120190476Y-122483390D02*
X120238095Y-122531009D01*
X120238095Y-122531009D02*
X120285714Y-122626247D01*
X120285714Y-122626247D02*
X120285714Y-122864342D01*
X120285714Y-122864342D02*
X120238095Y-122959580D01*
X120238095Y-122959580D02*
X120190476Y-123007200D01*
X120190476Y-123007200D02*
X120095238Y-123054819D01*
X120095238Y-123054819D02*
X119857143Y-123054819D01*
X119857143Y-123054819D02*
X119761905Y-123007200D01*
X119761905Y-123007200D02*
X119714286Y-122959580D01*
X127064819Y-118516666D02*
X126588628Y-118849999D01*
X127064819Y-119088094D02*
X126064819Y-119088094D01*
X126064819Y-119088094D02*
X126064819Y-118707142D01*
X126064819Y-118707142D02*
X126112438Y-118611904D01*
X126112438Y-118611904D02*
X126160057Y-118564285D01*
X126160057Y-118564285D02*
X126255295Y-118516666D01*
X126255295Y-118516666D02*
X126398152Y-118516666D01*
X126398152Y-118516666D02*
X126493390Y-118564285D01*
X126493390Y-118564285D02*
X126541009Y-118611904D01*
X126541009Y-118611904D02*
X126588628Y-118707142D01*
X126588628Y-118707142D02*
X126588628Y-119088094D01*
X127064819Y-117564285D02*
X127064819Y-118135713D01*
X127064819Y-117849999D02*
X126064819Y-117849999D01*
X126064819Y-117849999D02*
X126207676Y-117945237D01*
X126207676Y-117945237D02*
X126302914Y-118040475D01*
X126302914Y-118040475D02*
X126350533Y-118135713D01*
X129633333Y-123159580D02*
X129585714Y-123207200D01*
X129585714Y-123207200D02*
X129442857Y-123254819D01*
X129442857Y-123254819D02*
X129347619Y-123254819D01*
X129347619Y-123254819D02*
X129204762Y-123207200D01*
X129204762Y-123207200D02*
X129109524Y-123111961D01*
X129109524Y-123111961D02*
X129061905Y-123016723D01*
X129061905Y-123016723D02*
X129014286Y-122826247D01*
X129014286Y-122826247D02*
X129014286Y-122683390D01*
X129014286Y-122683390D02*
X129061905Y-122492914D01*
X129061905Y-122492914D02*
X129109524Y-122397676D01*
X129109524Y-122397676D02*
X129204762Y-122302438D01*
X129204762Y-122302438D02*
X129347619Y-122254819D01*
X129347619Y-122254819D02*
X129442857Y-122254819D01*
X129442857Y-122254819D02*
X129585714Y-122302438D01*
X129585714Y-122302438D02*
X129633333Y-122350057D01*
X130585714Y-123254819D02*
X130014286Y-123254819D01*
X130300000Y-123254819D02*
X130300000Y-122254819D01*
X130300000Y-122254819D02*
X130204762Y-122397676D01*
X130204762Y-122397676D02*
X130109524Y-122492914D01*
X130109524Y-122492914D02*
X130014286Y-122540533D01*
D11*
%TO.C,U3*%
X141698112Y-119415000D02*
X144918112Y-119415000D01*
X141698112Y-119640000D02*
X141698112Y-119415000D01*
X141698112Y-122125000D02*
X141698112Y-121900000D01*
X144918112Y-119415000D02*
X144918112Y-119640000D01*
X144918112Y-121900000D02*
X144918112Y-122125000D01*
X144918112Y-122125000D02*
X141698112Y-122125000D01*
X141056889Y-120025000D02*
X140726889Y-120265000D01*
X140726889Y-119785000D01*
X141056889Y-120025000D01*
G36*
X141056889Y-120025000D02*
G01*
X140726889Y-120265000D01*
X140726889Y-119785000D01*
X141056889Y-120025000D01*
G37*
%TO.C,U2*%
X126727500Y-114515000D02*
X129447500Y-114515000D01*
X129447500Y-116800000D02*
X126727500Y-116800000D01*
X126197500Y-114900000D02*
X125867500Y-115140000D01*
X125867500Y-114660000D01*
X126197500Y-114900000D01*
G36*
X126197500Y-114900000D02*
G01*
X125867500Y-115140000D01*
X125867500Y-114660000D01*
X126197500Y-114900000D01*
G37*
%TO.C,C3*%
X100499063Y-119449000D02*
X100499063Y-118251000D01*
X100539063Y-119712000D02*
X100539063Y-117988000D01*
X100579063Y-119912000D02*
X100579063Y-117788000D01*
X100619063Y-120080000D02*
X100619063Y-117620000D01*
X100659063Y-120227000D02*
X100659063Y-117473000D01*
X100699063Y-120359000D02*
X100699063Y-117341000D01*
X100739063Y-120480000D02*
X100739063Y-117220000D01*
X100779063Y-120592000D02*
X100779063Y-117108000D01*
X100819063Y-120696000D02*
X100819063Y-117004000D01*
X100859063Y-120794000D02*
X100859063Y-116906000D01*
X100899063Y-120887000D02*
X100899063Y-116813000D01*
X100939063Y-120974000D02*
X100939063Y-116726000D01*
X100979063Y-121058000D02*
X100979063Y-116642000D01*
X101019063Y-121138000D02*
X101019063Y-116562000D01*
X101059063Y-121215000D02*
X101059063Y-116485000D01*
X101099063Y-121289000D02*
X101099063Y-116411000D01*
X101139063Y-121360000D02*
X101139063Y-116340000D01*
X101179063Y-121428000D02*
X101179063Y-116272000D01*
X101219063Y-121494000D02*
X101219063Y-116206000D01*
X101259063Y-121558000D02*
X101259063Y-116142000D01*
X101299063Y-121620000D02*
X101299063Y-116080000D01*
X101339063Y-121680000D02*
X101339063Y-116020000D01*
X101379063Y-121738000D02*
X101379063Y-115962000D01*
X101419063Y-121795000D02*
X101419063Y-115905000D01*
X101459063Y-121850000D02*
X101459063Y-115850000D01*
X101499063Y-121903000D02*
X101499063Y-115797000D01*
X101539063Y-121955000D02*
X101539063Y-115745000D01*
X101579063Y-122006000D02*
X101579063Y-115694000D01*
X101619063Y-122055000D02*
X101619063Y-115645000D01*
X101659063Y-122104000D02*
X101659063Y-115596000D01*
X101699063Y-122151000D02*
X101699063Y-115549000D01*
X101739063Y-122197000D02*
X101739063Y-115503000D01*
X101779063Y-122241000D02*
X101779063Y-115459000D01*
X101819063Y-122285000D02*
X101819063Y-115415000D01*
X101859063Y-122328000D02*
X101859063Y-115372000D01*
X101899063Y-122370000D02*
X101899063Y-115330000D01*
X101939063Y-122411000D02*
X101939063Y-115289000D01*
X101979063Y-122451000D02*
X101979063Y-115249000D01*
X102019063Y-122490000D02*
X102019063Y-115210000D01*
X102059063Y-122528000D02*
X102059063Y-115172000D01*
X102099063Y-122566000D02*
X102099063Y-115134000D01*
X102139063Y-122602000D02*
X102139063Y-115098000D01*
X102179063Y-122638000D02*
X102179063Y-115062000D01*
X102219063Y-122673000D02*
X102219063Y-115027000D01*
X102259063Y-122708000D02*
X102259063Y-114992000D01*
X102299063Y-122741000D02*
X102299063Y-114959000D01*
X102339063Y-122774000D02*
X102339063Y-114926000D01*
X102379063Y-122807000D02*
X102379063Y-114893000D01*
X102419063Y-122838000D02*
X102419063Y-114862000D01*
X102459063Y-122870000D02*
X102459063Y-114830000D01*
X102499063Y-122900000D02*
X102499063Y-114800000D01*
X102539063Y-122930000D02*
X102539063Y-114770000D01*
X102579063Y-122959000D02*
X102579063Y-114741000D01*
X102619063Y-116210000D02*
X102619063Y-114712000D01*
X102619063Y-122988000D02*
X102619063Y-118290000D01*
X102659063Y-116210000D02*
X102659063Y-114684000D01*
X102659063Y-123016000D02*
X102659063Y-118290000D01*
X102699063Y-116210000D02*
X102699063Y-114657000D01*
X102699063Y-123043000D02*
X102699063Y-118290000D01*
X102739063Y-116210000D02*
X102739063Y-114630000D01*
X102739063Y-123070000D02*
X102739063Y-118290000D01*
X102779063Y-116210000D02*
X102779063Y-114603000D01*
X102779063Y-123097000D02*
X102779063Y-118290000D01*
X102819063Y-116210000D02*
X102819063Y-114578000D01*
X102819063Y-123122000D02*
X102819063Y-118290000D01*
X102859063Y-116210000D02*
X102859063Y-114552000D01*
X102859063Y-123148000D02*
X102859063Y-118290000D01*
X102899063Y-116210000D02*
X102899063Y-114527000D01*
X102899063Y-123173000D02*
X102899063Y-118290000D01*
X102939063Y-116210000D02*
X102939063Y-114503000D01*
X102939063Y-123197000D02*
X102939063Y-118290000D01*
X102979063Y-116210000D02*
X102979063Y-114479000D01*
X102979063Y-123221000D02*
X102979063Y-118290000D01*
X103019063Y-116210000D02*
X103019063Y-114456000D01*
X103019063Y-123244000D02*
X103019063Y-118290000D01*
X103059063Y-116210000D02*
X103059063Y-114433000D01*
X103059063Y-123267000D02*
X103059063Y-118290000D01*
X103099063Y-116210000D02*
X103099063Y-114411000D01*
X103099063Y-123289000D02*
X103099063Y-118290000D01*
X103139063Y-116210000D02*
X103139063Y-114389000D01*
X103139063Y-123311000D02*
X103139063Y-118290000D01*
X103179063Y-116210000D02*
X103179063Y-114367000D01*
X103179063Y-123333000D02*
X103179063Y-118290000D01*
X103219063Y-116210000D02*
X103219063Y-114346000D01*
X103219063Y-123354000D02*
X103219063Y-118290000D01*
X103259063Y-116210000D02*
X103259063Y-114326000D01*
X103259063Y-123374000D02*
X103259063Y-118290000D01*
X103299063Y-116210000D02*
X103299063Y-114306000D01*
X103299063Y-123394000D02*
X103299063Y-119890000D01*
X103339063Y-116210000D02*
X103339063Y-114286000D01*
X103339063Y-123414000D02*
X103339063Y-119890000D01*
X103379063Y-116210000D02*
X103379063Y-114267000D01*
X103379063Y-123433000D02*
X103379063Y-119890000D01*
X103419063Y-116210000D02*
X103419063Y-114248000D01*
X103419063Y-123452000D02*
X103419063Y-119890000D01*
X103459063Y-116210000D02*
X103459063Y-114230000D01*
X103459063Y-123470000D02*
X103459063Y-119890000D01*
X103499063Y-116210000D02*
X103499063Y-114212000D01*
X103499063Y-123488000D02*
X103499063Y-119890000D01*
X103539063Y-116210000D02*
X103539063Y-114194000D01*
X103539063Y-123506000D02*
X103539063Y-119890000D01*
X103579063Y-116210000D02*
X103579063Y-114177000D01*
X103579063Y-123523000D02*
X103579063Y-119890000D01*
X103619063Y-116210000D02*
X103619063Y-114160000D01*
X103619063Y-123540000D02*
X103619063Y-119890000D01*
X103659063Y-116210000D02*
X103659063Y-114144000D01*
X103659063Y-123556000D02*
X103659063Y-119890000D01*
X103699063Y-116210000D02*
X103699063Y-114128000D01*
X103699063Y-123572000D02*
X103699063Y-119890000D01*
X103739063Y-116210000D02*
X103739063Y-114112000D01*
X103739063Y-123588000D02*
X103739063Y-119890000D01*
X103779063Y-116210000D02*
X103779063Y-114097000D01*
X103779063Y-123603000D02*
X103779063Y-119890000D01*
X103819063Y-116210000D02*
X103819063Y-114082000D01*
X103819063Y-123618000D02*
X103819063Y-119890000D01*
X103859063Y-116210000D02*
X103859063Y-114068000D01*
X103859063Y-123632000D02*
X103859063Y-119890000D01*
X103899063Y-116210000D02*
X103899063Y-114053000D01*
X103899063Y-123647000D02*
X103899063Y-119890000D01*
X103939063Y-116210000D02*
X103939063Y-114040000D01*
X103939063Y-123660000D02*
X103939063Y-119890000D01*
X103979063Y-116210000D02*
X103979063Y-114026000D01*
X103979063Y-123674000D02*
X103979063Y-119890000D01*
X104019063Y-116210000D02*
X104019063Y-114013000D01*
X104019063Y-123687000D02*
X104019063Y-119890000D01*
X104059063Y-116210000D02*
X104059063Y-114001000D01*
X104059063Y-123699000D02*
X104059063Y-119890000D01*
X104099063Y-116210000D02*
X104099063Y-113989000D01*
X104099063Y-123711000D02*
X104099063Y-119890000D01*
X104139063Y-116210000D02*
X104139063Y-113977000D01*
X104139063Y-123723000D02*
X104139063Y-119890000D01*
X104179063Y-116210000D02*
X104179063Y-113965000D01*
X104179063Y-123735000D02*
X104179063Y-119890000D01*
X104219063Y-116210000D02*
X104219063Y-113954000D01*
X104219063Y-123746000D02*
X104219063Y-119890000D01*
X104259063Y-116210000D02*
X104259063Y-113943000D01*
X104259063Y-123757000D02*
X104259063Y-119890000D01*
X104299063Y-116210000D02*
X104299063Y-113933000D01*
X104299063Y-123767000D02*
X104299063Y-119890000D01*
X104339063Y-116210000D02*
X104339063Y-113922000D01*
X104339063Y-123778000D02*
X104339063Y-119890000D01*
X104379063Y-116210000D02*
X104379063Y-113913000D01*
X104379063Y-123787000D02*
X104379063Y-119890000D01*
X104419063Y-116210000D02*
X104419063Y-113903000D01*
X104419063Y-123797000D02*
X104419063Y-119890000D01*
X104459063Y-116210000D02*
X104459063Y-113894000D01*
X104459063Y-123806000D02*
X104459063Y-119890000D01*
X104499063Y-116210000D02*
X104499063Y-113885000D01*
X104499063Y-123815000D02*
X104499063Y-119890000D01*
X104539063Y-116210000D02*
X104539063Y-113877000D01*
X104539063Y-123823000D02*
X104539063Y-119890000D01*
X104579063Y-116210000D02*
X104579063Y-113869000D01*
X104579063Y-123831000D02*
X104579063Y-119890000D01*
X104619063Y-116210000D02*
X104619063Y-113861000D01*
X104619063Y-123839000D02*
X104619063Y-119890000D01*
X104659063Y-116210000D02*
X104659063Y-113853000D01*
X104659063Y-123847000D02*
X104659063Y-119890000D01*
X104699063Y-117810000D02*
X104699063Y-113846000D01*
X104699063Y-123854000D02*
X104699063Y-119890000D01*
X104739063Y-117810000D02*
X104739063Y-113839000D01*
X104739063Y-123861000D02*
X104739063Y-119890000D01*
X104779063Y-117810000D02*
X104779063Y-113833000D01*
X104779063Y-123867000D02*
X104779063Y-119890000D01*
X104819063Y-117810000D02*
X104819063Y-113827000D01*
X104819063Y-123873000D02*
X104819063Y-119890000D01*
X104859063Y-117810000D02*
X104859063Y-113821000D01*
X104859063Y-123879000D02*
X104859063Y-119890000D01*
X104899063Y-117810000D02*
X104899063Y-113815000D01*
X104899063Y-123885000D02*
X104899063Y-119890000D01*
X104939063Y-117810000D02*
X104939063Y-113810000D01*
X104939063Y-123890000D02*
X104939063Y-119890000D01*
X104979063Y-117810000D02*
X104979063Y-113805000D01*
X104979063Y-123895000D02*
X104979063Y-119890000D01*
X105019063Y-117810000D02*
X105019063Y-113801000D01*
X105019063Y-123899000D02*
X105019063Y-119890000D01*
X105059063Y-117810000D02*
X105059063Y-113796000D01*
X105059063Y-123904000D02*
X105059063Y-119890000D01*
X105099063Y-117810000D02*
X105099063Y-113793000D01*
X105099063Y-123907000D02*
X105099063Y-119890000D01*
X105139063Y-117810000D02*
X105139063Y-113789000D01*
X105139063Y-123911000D02*
X105139063Y-119890000D01*
X105179063Y-117810000D02*
X105179063Y-113786000D01*
X105179063Y-123914000D02*
X105179063Y-119890000D01*
X105219063Y-117810000D02*
X105219063Y-113783000D01*
X105219063Y-123917000D02*
X105219063Y-119890000D01*
X105259063Y-117810000D02*
X105259063Y-113780000D01*
X105259063Y-123920000D02*
X105259063Y-119890000D01*
X105299063Y-117810000D02*
X105299063Y-113778000D01*
X105299063Y-123922000D02*
X105299063Y-119890000D01*
X105339063Y-117810000D02*
X105339063Y-113776000D01*
X105339063Y-123924000D02*
X105339063Y-119890000D01*
X105379063Y-123926000D02*
X105379063Y-113774000D01*
X105419063Y-123927000D02*
X105419063Y-113773000D01*
X105459063Y-123929000D02*
X105459063Y-113771000D01*
X105499063Y-123929000D02*
X105499063Y-113771000D01*
X105539063Y-123930000D02*
X105539063Y-113770000D01*
X105579063Y-123930000D02*
X105579063Y-113770000D01*
X110558709Y-122225000D02*
X110558709Y-121225000D01*
X111058709Y-121725000D02*
X110058709Y-121725000D01*
X110699063Y-118850000D02*
G75*
G02*
X100459063Y-118850000I-5120000J0D01*
G01*
X100459063Y-118850000D02*
G75*
G02*
X110699063Y-118850000I5120000J0D01*
G01*
%TO.C,J1*%
X100580000Y-124530000D02*
X151600000Y-124530000D01*
X100580000Y-127180000D02*
X100580000Y-124530000D01*
X100580000Y-129830000D02*
X100580000Y-128450000D01*
X101960000Y-129830000D02*
X100580000Y-129830000D01*
X103230000Y-127180000D02*
X100580000Y-127180000D01*
X103230000Y-129830000D02*
X103230000Y-127180000D01*
X103230000Y-129830000D02*
X151600000Y-129830000D01*
X151600000Y-129830000D02*
X151600000Y-124530000D01*
%TO.C,C2*%
X128215580Y-113810000D02*
X127934420Y-113810000D01*
X128215580Y-112790000D02*
X127934420Y-112790000D01*
%TO.C,C9*%
X111290000Y-120865580D02*
X111290000Y-120584420D01*
X112310000Y-120865580D02*
X112310000Y-120584420D01*
%TO.C,R4*%
X114687500Y-120812742D02*
X114687500Y-121287258D01*
X115732500Y-120812742D02*
X115732500Y-121287258D01*
%TO.C,R5*%
X122377500Y-113437742D02*
X122377500Y-113912258D01*
X123422500Y-113437742D02*
X123422500Y-113912258D01*
%TO.C,TP2*%
X107750000Y-111700000D02*
X109650000Y-111700000D01*
X107750000Y-113600000D02*
X107750000Y-111700000D01*
X109650000Y-111700000D02*
X109650000Y-113600000D01*
X109650000Y-113600000D02*
X107750000Y-113600000D01*
%TO.C,TP4*%
X101850000Y-111600000D02*
X103750000Y-111600000D01*
X101850000Y-113500000D02*
X101850000Y-111600000D01*
X103750000Y-111600000D02*
X103750000Y-113500000D01*
X103750000Y-113500000D02*
X101850000Y-113500000D01*
%TO.C,J4*%
X111910000Y-111850000D02*
X111910000Y-109950000D01*
X111910000Y-115750000D02*
X111910000Y-113750000D01*
X121310000Y-109950000D02*
X111910000Y-109950000D01*
X121310000Y-111850000D02*
X121310000Y-109950000D01*
X121310000Y-115750000D02*
X121310000Y-113750000D01*
%TO.C,R3*%
X117087500Y-120812742D02*
X117087500Y-121287258D01*
X118132500Y-120812742D02*
X118132500Y-121287258D01*
%TO.C,U1*%
X130490000Y-118850000D02*
X133710000Y-118850000D01*
X130490000Y-119075000D02*
X130490000Y-118850000D01*
X130490000Y-121560000D02*
X130490000Y-121335000D01*
X133710000Y-118850000D02*
X133710000Y-119075000D01*
X133710000Y-121335000D02*
X133710000Y-121560000D01*
X133710000Y-121560000D02*
X130490000Y-121560000D01*
X134681223Y-121190000D02*
X134351223Y-120950000D01*
X134681223Y-120710000D01*
X134681223Y-121190000D01*
G36*
X134681223Y-121190000D02*
G01*
X134351223Y-120950000D01*
X134681223Y-120710000D01*
X134681223Y-121190000D01*
G37*
%TO.C,R2*%
X124477500Y-121212258D02*
X124477500Y-120737742D01*
X125522500Y-121212258D02*
X125522500Y-120737742D01*
%TO.C,D5*%
X121760000Y-120100000D02*
X119100000Y-120100000D01*
X121760000Y-121800000D02*
X119100000Y-121800000D01*
X121760000Y-121800000D02*
X121760000Y-120100000D01*
%TO.C,R1*%
X126077500Y-121212258D02*
X126077500Y-120737742D01*
X127122500Y-121212258D02*
X127122500Y-120737742D01*
%TO.C,C1*%
X132034420Y-122240000D02*
X132315580Y-122240000D01*
X132034420Y-123260000D02*
X132315580Y-123260000D01*
%TD*%
D12*
X137100000Y-116000000D02*
X152000000Y-116000000D01*
X132900000Y-111500000D02*
X137100000Y-116000000D01*
X100000000Y-130000000D02*
X152000000Y-130000000D01*
X100000000Y-111500000D02*
X132900000Y-111500000D01*
X152000000Y-116000000D02*
X152000000Y-130000000D01*
X100000000Y-111500000D02*
X100000000Y-130000000D01*
M02*
