%TF.GenerationSoftware,KiCad,Pcbnew,9.0.7-9.0.7~ubuntu24.04.1*%
%TF.CreationDate,2026-01-11T20:29:35+01:00*%
%TF.ProjectId,mfi,6d66692e-6b69-4636-9164-5f7063625858,rev?*%
%TF.SameCoordinates,Original*%
%TF.FileFunction,Soldermask,Bot*%
%TF.FilePolarity,Negative*%
%FSLAX46Y46*%
G04 Gerber Fmt 4.6, Leading zero omitted, Abs format (unit mm)*
G04 Created by KiCad (PCBNEW 9.0.7-9.0.7~ubuntu24.04.1) date 2026-01-11 20:29:35*
%MOMM*%
%LPD*%
G01*
G04 APERTURE LIST*
G04 Aperture macros list*
%AMRoundRect*
0 Rectangle with rounded corners*
0 $1 Rounding radius*
0 $2 $3 $4 $5 $6 $7 $8 $9 X,Y pos of 4 corners*
0 Add a 4 corners polygon primitive as box body*
4,1,4,$2,$3,$4,$5,$6,$7,$8,$9,$2,$3,0*
0 Add four circle primitives for the rounded corners*
1,1,$1+$1,$2,$3*
1,1,$1+$1,$4,$5*
1,1,$1+$1,$6,$7*
1,1,$1+$1,$8,$9*
0 Add four rect primitives between the rounded corners*
20,1,$1+$1,$2,$3,$4,$5,0*
20,1,$1+$1,$4,$5,$6,$7,0*
20,1,$1+$1,$6,$7,$8,$9,0*
20,1,$1+$1,$8,$9,$2,$3,0*%
G04 Aperture macros list end*
%ADD10RoundRect,0.250000X0.550000X0.550000X-0.550000X0.550000X-0.550000X-0.550000X0.550000X-0.550000X0*%
%ADD11C,1.600000*%
%ADD12R,1.700000X1.700000*%
%ADD13C,1.700000*%
%ADD14R,1.500000X1.500000*%
%ADD15C,0.650000*%
%ADD16O,1.000000X2.100000*%
%ADD17O,1.000000X1.600000*%
%TA.AperFunction,Profile*%
%ADD18C,0.010000*%
%TD*%
G04 APERTURE END LIST*
D10*
%TO.C,C3*%
X107500000Y-120450000D03*
X106829063Y-118850000D03*
D11*
X104329063Y-118850000D03*
X103658126Y-117250000D03*
%TD*%
D12*
%TO.C,J1*%
X101960000Y-128450000D03*
D13*
X101960000Y-125910000D03*
X104500000Y-128450000D03*
X104500000Y-125910000D03*
X107040000Y-128450000D03*
X107040000Y-125910000D03*
X109580000Y-128450000D03*
X109580000Y-125910000D03*
X112120000Y-128450000D03*
X112120000Y-125910000D03*
X114660000Y-128450000D03*
X114660000Y-125910000D03*
X117200000Y-128450000D03*
X117200000Y-125910000D03*
X119740000Y-128450000D03*
X119740000Y-125910000D03*
X122280000Y-128450000D03*
X122280000Y-125910000D03*
X124820000Y-128450000D03*
X124820000Y-125910000D03*
X127360000Y-128450000D03*
X127360000Y-125910000D03*
X129900000Y-128450000D03*
X129900000Y-125910000D03*
X132440000Y-128450000D03*
X132440000Y-125910000D03*
X134980000Y-128450000D03*
X134980000Y-125910000D03*
X137520000Y-128450000D03*
X137520000Y-125910000D03*
X140060000Y-128450000D03*
X140060000Y-125910000D03*
X142600000Y-128450000D03*
X142600000Y-125910000D03*
X145140000Y-128450000D03*
X145140000Y-125910000D03*
X147680000Y-128450000D03*
X147680000Y-125910000D03*
X150220000Y-128450000D03*
X150220000Y-125910000D03*
%TD*%
D14*
%TO.C,TP2*%
X108700000Y-112650000D03*
%TD*%
%TO.C,TP4*%
X102800000Y-112550000D03*
%TD*%
D15*
%TO.C,J4*%
X119500000Y-116450000D03*
X113720000Y-116450000D03*
D16*
X120930000Y-116980000D03*
D17*
X120930000Y-112800000D03*
D16*
X112290000Y-116980000D03*
D17*
X112290000Y-112800000D03*
%TD*%
D18*
X137100000Y-116000000D02*
X152000000Y-116000000D01*
X132900000Y-111500000D02*
X137100000Y-116000000D01*
X100000000Y-130000000D02*
X152000000Y-130000000D01*
X100000000Y-111500000D02*
X132900000Y-111500000D01*
X152000000Y-116000000D02*
X152000000Y-130000000D01*
X100000000Y-111500000D02*
X100000000Y-130000000D01*
M02*
